<svg width="842" height="689" fill="none" xmlns="http://www.w3.org/2000/svg"><g clip-path="url(#clip0)"><path d="M-689.558 58.546c-8.931-97.14 65.538-181.854 163.021-185.449l1186.813-43.763c148.206-5.465 231.857 168.204 135.197 280.684L355.551 621.934c-42.139 49.034-108.444 69.922-171.079 53.892l-720.81-184.467c-69.649-17.824-120.556-77.536-127.138-149.128l-26.082-283.685z" fill="#C4C4C4"/><path d="M-689.558 58.546c-8.931-97.14 65.538-181.854 163.021-185.449l1186.813-43.763c148.206-5.465 231.857 168.204 135.197 280.684L355.551 621.934c-42.139 49.034-108.444 69.922-171.079 53.892l-720.81-184.467c-69.649-17.824-120.556-77.536-127.138-149.128l-26.082-283.685z" fill="url(#paint0_linear)"/></g><defs><linearGradient id="paint0_linear" x1="-218.932" y1="26.093" x2="868.253" y2="574.727" gradientUnits="userSpaceOnUse"><stop stop-color="#01ADFF"/><stop offset="1" stop-color="#01E1FF"/></linearGradient><clipPath id="clip0"><path fill="#fff" transform="translate(-597)" d="M0 0h1439v689H0z"/></clipPath></defs></svg>