<svg width="1439" height="689" fill="none" xmlns="http://www.w3.org/2000/svg"><g clip-path="url(#clip0)"><path d="M-92.558 58.546c-8.931-97.14 65.539-181.854 163.021-185.449l1186.817-43.763c148.2-5.465 231.85 168.204 135.19 280.684L952.551 621.934c-42.139 49.034-108.444 69.922-171.079 53.892L60.662 491.359c-69.65-17.824-120.556-77.536-127.138-149.128L-92.558 58.546z" fill="#C4C4C4"/><path d="M-92.558 58.546c-8.931-97.14 65.539-181.854 163.021-185.449l1186.817-43.763c148.2-5.465 231.85 168.204 135.19 280.684L952.551 621.934c-42.139 49.034-108.444 69.922-171.079 53.892L60.662 491.359c-69.65-17.824-120.556-77.536-127.138-149.128L-92.558 58.546z" fill="url(#paint0_linear)"/></g><defs><linearGradient id="paint0_linear" x1="378.068" y1="26.093" x2="1465.25" y2="574.727" gradientUnits="userSpaceOnUse"><stop stop-color="#01ADFF"/><stop offset="1" stop-color="#01E1FF"/></linearGradient><clipPath id="clip0"><path fill="#fff" d="M0 0h1439v689H0z"/></clipPath></defs></svg>