<svg width="808" height="676" fill="none" xmlns="http://www.w3.org/2000/svg"><path d="M-517.636 57.7c-8.902-96.823 65.07-181.375 162.217-185.417l985.246-41.004C778.39-174.903 862.739-.839 765.828 111.932L332.552 616.114c-44.7 52.016-116.277 72.077-181.499 50.869L-374.03 496.25c-64.603-21.006-110.499-78.456-116.718-146.104L-517.636 57.7z" fill="#C4C4C4"/><path d="M-517.636 57.7c-8.902-96.823 65.07-181.375 162.217-185.417l985.246-41.004C778.39-174.903 862.739-.839 765.828 111.932L332.552 616.114c-44.7 52.016-116.277 72.077-181.499 50.869L-374.03 496.25c-64.603-21.006-110.499-78.456-116.718-146.104L-517.636 57.7z" fill="url(#paint0_linear)"/><defs><linearGradient id="paint0_linear" x1="-246.932" y1="26.093" x2="840.253" y2="574.727" gradientUnits="userSpaceOnUse"><stop stop-color="#01ADFF"/><stop offset="1" stop-color="#01E1FF"/></linearGradient></defs></svg>