<svg width="539" height="464" fill="none" xmlns="http://www.w3.org/2000/svg"><g clip-path="url(#clip0)"><path d="M42.254 167.805c29.116-36.42 18.796-51.987 14.734-86.977C52.926 45.832 67.426 0 67.426 0c248.37 16.127 292.248 137.245 306.641 235.418 13.078 89.2-8.451 168.873-35.209 228.585h-78.341c-3.374-8.562-7.452-16.677-12.197-25.382-29.49-54.115-103.563-52.278-132.803-43.854-29.237 8.421-61.884 8.71-76.439-6.026-14.56-14.733-8.438-26.668-4.114-39.602 4.329-12.926 6.288-13.064 4.857-16.909-1.183-3.171-4.634-5.162-12.857-10.244-8.218-5.082-11.32-14.502-6.575-22.043 4.28-6.795 8.944-9.169 9.096-9.243-.218-.165-1.426-1.328-7.343-7.637-8.168-8.71-6.159-19.07.713-24.603 6.872-5.526 9.376-12.671 9.376-12.671s-21.658-10.934-30.22-25.271c-8.55-14.342 11.132-16.295 40.243-52.713z" fill="#E9E9EC"/><path d="M42.254 167.805c29.116-36.42 18.796-51.987 14.734-86.977C52.926 45.832 67.426 0 67.426 0c248.37 16.127 292.248 137.245 306.641 235.418 13.078 89.2-8.451 168.873-35.209 228.585h-78.341c-3.374-8.562-7.452-16.677-12.197-25.382-29.49-54.115-103.563-52.278-132.803-43.854-29.237 8.421-61.884 8.71-76.439-6.026-14.56-14.733-8.438-26.668-4.114-39.602 4.329-12.926 6.288-13.064 4.857-16.909-1.183-3.171-4.634-5.162-12.857-10.244-8.218-5.082-11.32-14.502-6.575-22.043 4.28-6.795 8.944-9.169 9.096-9.243-.218-.165-1.426-1.328-7.343-7.637-8.168-8.71-6.159-19.07.713-24.603 6.872-5.526 9.376-12.671 9.376-12.671s-21.658-10.934-30.22-25.271c-8.55-14.342 11.132-16.295 40.243-52.713z" fill="url(#paint0_linear)"/></g><g clip-path="url(#clip1)" fill="#D7DCE2"><path d="M577.841 234.18h105.01l24.884 24.89h88.429l21.495-21.497h314.301v2.263H818.594l-21.492 21.494H706.8l-24.887-24.886H578.779l-34.505 34.504H442.095l-34.222-34.221h-191.08l-35.701 35.698-1.596-1.597 36.359-36.365h192.956l34.222 34.222h100.303l34.505-34.505z"/><path d="M180.446 275.728a4.255 4.255 0 1 0-.001-8.51 4.255 4.255 0 0 0 .001 8.51zm-33.072-124.134h30.529l38.89 38.887h191.08l34.222-34.218h102.179l34.505 34.501h103.134l24.887-24.889h90.302l21.492 21.497h313.366v2.264H817.659l-21.495-21.497h-88.429l-24.884 24.892h-105.01l-34.505-34.507H443.033l-34.222 34.221H215.855l-38.887-38.887h-29.594v-2.264z"/><path d="M147.587 156.98a4.254 4.254 0 1 0-.001-8.507 4.254 4.254 0 0 0 .001 8.507zm491.455 77.624l1.596 1.6-60.755 60.766h-94.457l-24.81 24.809-1.6-1.602 25.478-25.474h94.451l60.097-60.099z"/><path d="M459.97 325.082a4.253 4.253 0 1 0 0-8.507 4.254 4.254 0 1 0 0 8.507zm-73.377-90.287l1.599 1.599-29.461 29.461H272.76l-54.863 54.869h-54.865l-8.974 8.976-1.6-1.603 9.633-9.637h54.868l54.862-54.866h85.972l28.8-28.799z"/><path d="M153.412 333a4.254 4.254 0 1 0-.001-8.509 4.254 4.254 0 0 0 .001 8.509zm214.549-121.446H469.59l57.175 57.177-1.599 1.602-56.514-56.518H367.961v-2.261z"/><path d="M368.173 216.937a4.255 4.255 0 1 0-.001-8.51 4.255 4.255 0 0 0 .001 8.51zm59.427 38.694l1.599 1.596-26.724 26.732h-85.421v-2.264h84.483l26.063-26.064z"/><path d="M317.266 287.078a4.254 4.254 0 1 0 0-8.508 4.254 4.254 0 0 0 0 8.508zm158.5-130.437l58.491 58.496 97.112.179-.003 2.264-98.047-.185-59.152-59.154 1.599-1.6z"/><path d="M135.186 197.064a4.174 4.174 0 0 0 4.02-3.075h18.656l28.409 28.414h296.935l9.039 9.043c-.895 1.596-.726 3.62.63 4.977a4.189 4.189 0 0 0 5.924 0 4.198 4.198 0 0 0 0-5.927c-1.356-1.357-3.386-1.523-4.979-.628l-9.695-9.695H187.194l-26.186-26.184h283.538l21.169-21.174h87.097l24.516 24.514h103.428l33.985-33.985h16.372l56.267 56.272h95.872c.492 1.769 2.098 3.076 4.02 3.076a4.19 4.19 0 0 0 0-8.378c-1.922 0-3.531 1.307-4.02 3.075h-94.949l-54.038-54.042h79.273l33.705 33.708H1037.3l32.86-32.865c1.6.895 3.62.729 4.98-.631a4.2 4.2 0 0 0 0-5.924 4.196 4.196 0 0 0-5.93 0c-1.35 1.357-1.52 3.384-.62 4.98l-32.21 32.21H871.03l26.465-26.464h84.68l54.035-54.043h54.04l6.54-6.539c1.6.889 3.62.723 4.98-.63a4.2 4.2 0 0 0 0-5.924 4.2 4.2 0 0 0-5.93 0c-1.36 1.356-1.52 3.383-.63 4.976l-5.88 5.884h-54.04l-54.041 54.046h-84.676l-28.689 28.691h-19.715l-19.025-19.024 25.272-25.271h78.977c.489 1.769 2.098 3.076 4.02 3.076a4.19 4.19 0 0 0 0-8.379c-1.922 0-3.528 1.305-4.017 3.076H853.49l-25.921 25.923-13.108-13.109H713.822l-33.985 33.985h-57.544l57.381-57.383h93.033l22.138-22.139c1.599.895 3.623.725 4.976-.631a4.192 4.192 0 0 0 0-5.927 4.198 4.198 0 0 0-5.927 0c-1.353 1.359-1.519 3.386-.624 4.98l-21.486 21.484h-93.036l-59.608 59.613h-40.887l-24.512-24.514h-88.946l-21.169 21.17h-233.59l25.069-25.071h124.478c.489 1.769 2.094 3.076 4.02 3.076a4.188 4.188 0 0 0 4.186-4.192 4.185 4.185 0 0 0-4.186-4.189c-1.929 0-3.531 1.307-4.02 3.075h-125.4l-27.296 27.298h-67.681c-.489-1.768-2.095-3.075-4.02-3.075a4.205 4.205 0 0 0-4.186 4.201 4.187 4.187 0 0 0 4.186 4.189z"/><path d="M1100.52 276.448h-24.92l-38.3-38.304H847.243l-33.705 33.705h-30.946l-57.981-57.988-92.344-.169c-.489-1.772-2.089-3.079-4.017-3.082a4.185 4.185 0 0 0-4.195 4.18 4.192 4.192 0 0 0 4.183 4.198c1.922.003 3.53-1.301 4.026-3.069l91.424.169 55.754 55.758h-64.698l-33.985-33.988H577.331l-24.516 24.518h-87.097l-21.169-21.174H139.206c-.489-1.769-2.095-3.076-4.02-3.076a4.196 4.196 0 0 0-4.186 4.195 4.185 4.185 0 0 0 4.186 4.19 4.173 4.173 0 0 0 4.02-3.076h304.42l21.169 21.171h88.946l24.512-24.515h101.584l33.985 33.985h100.642l33.705-33.705h188.211l38.3 38.304h25.84a4.185 4.185 0 0 0 4.03 3.075c2.31 0 4.18-1.876 4.18-4.189a4.184 4.184 0 0 0-4.18-4.189c-1.93 0-3.53 1.304-4.03 3.076z"/></g><defs><linearGradient id="paint0_linear" x1="406.5" y1="-28" x2="188.999" y2="464.003" gradientUnits="userSpaceOnUse"><stop stop-color="#fff" stop-opacity=".51"/><stop offset=".252" stop-color="#fff" stop-opacity=".76"/><stop offset="1" stop-color="#fff" stop-opacity="0"/></linearGradient><clipPath id="clip0"><path fill="#fff" transform="matrix(-1 0 0 1 378 0)" d="M0 0h378v464H0z"/></clipPath><clipPath id="clip1"><path fill="#fff" transform="translate(131 100)" d="M0 0h1005v233H0z"/></clipPath></defs></svg>