<svg width="300" height="109" fill="none" xmlns="http://www.w3.org/2000/svg"><path d="M54.392 56.678H3.608C1.616 56.678 0 55.089 0 53.131V41.547C0 39.589 1.616 38 3.608 38h50.783C56.384 38 58 39.589 58 41.547V53.13c0 1.96-1.616 3.548-3.608 3.548z" fill="#556080"/><path d="M54.392 75.356H3.608C1.616 75.356 0 73.767 0 71.809V60.225c0-1.958 1.616-3.547 3.608-3.547h50.783c1.993 0 3.609 1.589 3.609 3.547v11.583c0 1.96-1.616 3.548-3.608 3.548z" fill="#38454F"/><path d="M54.392 94.034H3.608C1.616 94.034 0 92.445 0 90.487V78.903c0-1.958 1.616-3.547 3.608-3.547h50.783c1.993 0 3.609 1.589 3.609 3.547v11.583c0 1.96-1.616 3.548-3.608 3.548z" fill="#556080"/><path d="M9.5 50.78c1.933 0 3.5-1.54 3.5-3.441 0-1.9-1.567-3.44-3.5-3.44S6 45.438 6 47.338s1.567 3.44 3.5 3.44zM49 46.847c.552 0 1-.44 1-.983a.992.992 0 0 0-1-.983c-.552 0-1 .44-1 .983 0 .543.448.983 1 .983zm-4 0c.552 0 1-.44 1-.983a.992.992 0 0 0-1-.983c-.552 0-1 .44-1 .983 0 .543.448.983 1 .983zm6 2.95c.552 0 1-.44 1-.983a.992.992 0 0 0-1-.983c-.552 0-1 .44-1 .983 0 .542.448.983 1 .983zm-4 0c.552 0 1-.44 1-.983a.992.992 0 0 0-1-.983c-.552 0-1 .44-1 .983 0 .542.448.983 1 .983zm-6-2.95c.552 0 1-.44 1-.983a.992.992 0 0 0-1-.983c-.552 0-1 .44-1 .983 0 .543.448.983 1 .983zm2 2.95c.552 0 1-.44 1-.983a.992.992 0 0 0-1-.983c-.552 0-1 .44-1 .983 0 .542.448.983 1 .983zm-6-2.95c.552 0 1-.44 1-.983a.992.992 0 0 0-1-.983c-.552 0-1 .44-1 .983 0 .543.448.983 1 .983zm2 2.95c.552 0 1-.44 1-.983a.992.992 0 0 0-1-.983c-.552 0-1 .44-1 .983 0 .542.448.983 1 .983zm-6-2.95c.552 0 1-.44 1-.983a.992.992 0 0 0-1-.983c-.552 0-1 .44-1 .983 0 .543.448.983 1 .983zm2 2.95c.552 0 1-.44 1-.983a.992.992 0 0 0-1-.983c-.552 0-1 .44-1 .983 0 .542.448.983 1 .983zM9.5 69.458c1.933 0 3.5-1.54 3.5-3.44 0-1.901-1.567-3.442-3.5-3.442S6 64.116 6 66.017c0 1.9 1.567 3.44 3.5 3.44zM49 65.525c.552 0 1-.44 1-.983a.992.992 0 0 0-1-.983c-.552 0-1 .44-1 .983 0 .543.448.983 1 .983zm-4 0c.552 0 1-.44 1-.983a.992.992 0 0 0-1-.983c-.552 0-1 .44-1 .983 0 .543.448.983 1 .983zm6 2.95c.552 0 1-.44 1-.983a.992.992 0 0 0-1-.984c-.552 0-1 .44-1 .984 0 .542.448.983 1 .983zm-4 0c.552 0 1-.44 1-.983a.992.992 0 0 0-1-.984c-.552 0-1 .44-1 .984 0 .542.448.983 1 .983zm-6-2.95c.552 0 1-.44 1-.983a.992.992 0 0 0-1-.983c-.552 0-1 .44-1 .983 0 .543.448.983 1 .983zm2 2.95c.552 0 1-.44 1-.983a.992.992 0 0 0-1-.984c-.552 0-1 .44-1 .984 0 .542.448.983 1 .983zm-6-2.95c.552 0 1-.44 1-.983a.992.992 0 0 0-1-.983c-.552 0-1 .44-1 .983 0 .543.448.983 1 .983zm2 2.95c.552 0 1-.44 1-.983a.992.992 0 0 0-1-.984c-.552 0-1 .44-1 .984 0 .542.448.983 1 .983zm-6-2.95c.552 0 1-.44 1-.983a.992.992 0 0 0-1-.983c-.552 0-1 .44-1 .983 0 .543.448.983 1 .983zm2 2.95c.552 0 1-.44 1-.983a.992.992 0 0 0-1-.984c-.552 0-1 .44-1 .984 0 .542.448.983 1 .983zM9.5 88.135c1.933 0 3.5-1.54 3.5-3.44s-1.567-3.44-3.5-3.44-3.5 1.54-3.5 3.44 1.567 3.44 3.5 3.44zM49 84.203c.552 0 1-.44 1-.983a.992.992 0 0 0-1-.983c-.552 0-1 .44-1 .983 0 .543.448.983 1 .983zm-4 0c.552 0 1-.44 1-.983a.992.992 0 0 0-1-.983c-.552 0-1 .44-1 .983 0 .543.448.983 1 .983zm6 2.95c.552 0 1-.44 1-.983a.992.992 0 0 0-1-.984c-.552 0-1 .44-1 .984 0 .543.448.983 1 .983zm-4 0c.552 0 1-.44 1-.983a.992.992 0 0 0-1-.984c-.552 0-1 .44-1 .984 0 .543.448.983 1 .983zm-6-2.95c.552 0 1-.44 1-.983a.992.992 0 0 0-1-.983c-.552 0-1 .44-1 .983 0 .543.448.983 1 .983zm2 2.95c.552 0 1-.44 1-.983a.992.992 0 0 0-1-.984c-.552 0-1 .44-1 .984 0 .543.448.983 1 .983zm-6-2.95c.552 0 1-.44 1-.983a.992.992 0 0 0-1-.983c-.552 0-1 .44-1 .983 0 .543.448.983 1 .983zm2 2.95c.552 0 1-.44 1-.983a.992.992 0 0 0-1-.984c-.552 0-1 .44-1 .984 0 .543.448.983 1 .983zm-6-2.95c.552 0 1-.44 1-.983a.992.992 0 0 0-1-.983c-.552 0-1 .44-1 .983 0 .543.448.983 1 .983zm2 2.95c.552 0 1-.44 1-.983a.992.992 0 0 0-1-.984c-.552 0-1 .44-1 .984 0 .543.448.983 1 .983z" fill="#8697CB"/><path d="M143.034 108.661c7.751 0 14.034-6.192 14.034-13.83 0-7.639-6.283-13.831-14.034-13.831S129 87.192 129 94.83c0 7.639 6.283 13.831 14.034 13.831z" fill="#26B999"/><path d="M150.719 88.121a1.179 1.179 0 0 0-1.628.289l-6.545 9.266-4.618-3.737a1.18 1.18 0 0 0-1.646.16 1.139 1.139 0 0 0 .163 1.622l5.597 4.529a1.188 1.188 0 0 0 .902.251c.323-.045.613-.219.8-.483l7.267-10.291a1.145 1.145 0 0 0-.292-1.606z" fill="#fff"/><path d="M151.856 2h-4v3h-9V2h-19v56h47V2h-15z" fill="#545E73"/><path d="M147.856 0h-9v5h9V0z" fill="#404656"/><path d="M154.856 5v3h-23V5h-9v50h41V5h-9z" fill="#ECF0F1"/><path d="M147.856 2v3h-9V2h-7v6h23V2h-7z" fill="#8697CB"/><path d="M141.856 16h-13a1 1 0 1 1 0-2h13a1 1 0 1 1 0 2zm16 6h-29a1 1 0 1 1 0-2h29a1 1 0 1 1 0 2z" fill="#BFC9D6"/><path d="M127.078 34.824h.391c.383 0 .665-.064.847-.191.183-.128.274-.328.274-.602 0-.27-.094-.463-.281-.578-.185-.114-.473-.172-.864-.172h-.367v1.543zm0 .985V38h-1.211v-5.71h1.664c.776 0 1.351.141 1.723.425.372.281.558.71.558 1.285 0 .336-.092.635-.277.898-.185.26-.446.465-.785.614A214.511 214.511 0 0 0 130.43 38h-1.344l-1.363-2.191h-.645zm7.36 2.191h-3.29v-5.71h3.29v.991h-2.079v1.254h1.934v.992h-1.934V37h2.079v1zm6.378-2.863c0 .672-.119 1.235-.359 1.691a2.172 2.172 0 0 1-1.047.996l1.375 1.535h-1.551l-1.046-1.28h-.09c-.875 0-1.547-.255-2.016-.763-.469-.507-.703-1.237-.703-2.187 0-.95.234-1.676.703-2.176.471-.503 1.146-.754 2.023-.754.878 0 1.549.253 2.012.758.466.505.699 1.232.699 2.18zm-4.168 0c0 .638.122 1.118.364 1.441.242.323.604.484 1.086.484.966 0 1.449-.641 1.449-1.925 0-1.287-.481-1.93-1.442-1.93-.481 0-.845.163-1.089.488-.245.323-.368.804-.368 1.442zm10-2.848v3.695c0 .422-.095.792-.285 1.11a1.826 1.826 0 0 1-.816.73c-.357.17-.779.254-1.266.254-.734 0-1.304-.187-1.711-.562-.406-.378-.609-.894-.609-1.547v-3.68h1.207v3.496c0 .44.089.763.266.969.177.206.47.309.878.309.396 0 .683-.103.86-.31.18-.207.269-.533.269-.976V32.29h1.207zM151.336 38h-3.289v-5.71h3.289v.991h-2.078v1.254h1.933v.992h-1.933V37h2.078v1zm4.566-1.586c0 .516-.186.922-.558 1.219-.37.297-.886.445-1.547.445-.609 0-1.149-.114-1.617-.344V36.61c.385.172.711.293.976.364.268.07.513.105.735.105.265 0 .468-.05.609-.152.143-.102.215-.253.215-.453a.488.488 0 0 0-.094-.297 1.018 1.018 0 0 0-.277-.254c-.12-.08-.366-.21-.739-.387-.348-.164-.61-.321-.785-.472a1.795 1.795 0 0 1-.418-.528 1.507 1.507 0 0 1-.156-.703c0-.505.171-.902.512-1.191.344-.29.818-.434 1.422-.434.297 0 .579.035.847.105.271.07.554.17.848.297l-.391.942a5.639 5.639 0 0 0-.757-.262 2.414 2.414 0 0 0-.586-.074c-.23 0-.405.053-.528.16a.53.53 0 0 0-.183.418c0 .107.024.2.074.281a.86.86 0 0 0 .234.23c.11.074.366.206.77.4.534.254.9.51 1.097.769.198.255.297.569.297.941zM159.141 38h-1.211v-4.703h-1.551v-1.008h4.312v1.008h-1.55V38zm-53.787 9.354a.5.5 0 0 0 0-.708l-3.182-3.181a.501.501 0 0 0-.708.707L104.293 47l-2.829 2.828a.5.5 0 0 0 .708.707l3.182-3.181zM73 47.5h32v-1H73v1zm-.354 40.854a.5.5 0 0 1 0-.708l3.182-3.181a.5.5 0 1 1 .707.707L73.707 88l2.829 2.828a.5.5 0 1 1-.708.707l-3.182-3.181zM105 88.5H73v-1h32v1zm107.354-41.146a.5.5 0 0 0 0-.708l-3.182-3.181a.501.501 0 0 0-.708.707L211.293 47l-2.829 2.828a.5.5 0 0 0 .708.707l3.182-3.181zM180 47.5h32v-1h-32v1zm-.354 40.854a.5.5 0 0 1 0-.708l3.182-3.181a.501.501 0 0 1 .708.707L180.707 88l2.829 2.828a.5.5 0 0 1-.708.707l-3.182-3.181zM212 88.5h-32v-1h32v1z" fill="#38454F"/><path d="M277.996 42.86v21.322a4.861 4.861 0 0 1-4.86 4.81H251.86a4.86 4.86 0 0 1-4.86-4.86V42.86a4.86 4.86 0 0 1 4.86-4.86h21.276a4.86 4.86 0 0 1 4.86 4.86z" fill="#02A1E9"/><path d="M267.714 55.422c1.593-3.058 2.649-6.286 2.649-6.286h-6.148V46.97h7.577v-1.319h-7.577v-3.484h-3.527v3.484h-7.576v1.32h7.576v2.165h-6.371v1.159h12.312s-.682 2.097-1.827 4.174c-3.303-1.02-6.35-1.732-8.796-1.732-5.867 0-7.168 2.948-6.891 5.643.224 2.15 1.824 5.29 6.713 5.29 4.466 0 8.071-2.56 10.289-5.607 4.231 1.949 8.7 4.349 11.879 6.12v-5.114c-3.36-1.152-6.897-2.495-10.282-3.647zm-12.597 6.428c-4.131 0-4.771-2.329-4.842-3.72-.068-1.215.753-3.498 5.418-3.498 1.735 0 4.487.886 7.577 2.176-1.746 2.294-4.544 5.042-8.153 5.042z" fill="#fff"/><path d="M253.32 75.77c1.143 0 2.07-.826 2.07-1.845 0-1.02-.927-1.846-2.07-1.846-1.143 0-2.07.826-2.07 1.846 0 1.019.927 1.845 2.07 1.845z" fill="#02A1E9"/><path d="M244.263 74.102v15.952h3.853V73.206h-2.957a.896.896 0 0 0-.896.896zm7.131 4.485v11.467h3.852V77.691h-2.956a.896.896 0 0 0-.896.896zm14.289-1.184c-1.755 0-2.99.91-3.536 1.407v-1.12h-2.957a.896.896 0 0 0-.896.897V95h3.853v-5.444c.584.442 1.376.757 2.444.757 3.594 0 6.354-3.105 6.354-7.016 0-3.91-2.847-5.894-5.262-5.894zm-1.265 11.587c-.791 0-1.628-.747-2.271-1.495v-6.629c.6-.596 1.619-1.45 2.501-1.45 1.323 0 2.559 1.811 2.559 4.457 0 2.645-1.208 5.117-2.789 5.117zm13.859-11.587c-3.393 0-4.515.72-4.515.72l.403.862s1.265-.46 3.335-.46c2.3 0 2.53 1.236 2.53 2.76v.71a9.449 9.449 0 0 0-2.616-.365c-1.754 0-4.859.69-4.859 4.284s2.76 4.399 4.571 4.399c1.061 0 2.166-.55 2.904-1.008v.75h3.853v-8.77c0-2.588-2.214-3.882-5.606-3.882zm-.23 11.271c-1.611 0-2.617-.949-2.617-2.703s1.783-2.846 3.192-2.846c.709 0 1.147.225 1.408.45v4.287c-.453.394-1.131.812-1.983.812zm21.125-11.271h-2.586l-3.469 7.9-.095-.186-3.954-7.715h-3.947l6.031 11.77.144.28-.631 1.438c-.974 1.932-3.763 1.802-3.763 1.802v1.618s1.201.1 2.07 0c.828-.096 2.673-.647 3.57-2.551l1.843-3.989h-.001l4.788-10.367zm-64.432-4.195h-1.635l-1.328 2.764L225 90.056h2.604l1.342-2.79h8.071l1.294 2.79h4.25l-7.344-15.823-.477-1.025zm1.729 12.88h-6.956l3.54-7.36 3.416 7.36z" fill="#3D3A39"/></svg>