<svg width="291" height="109" fill="none" xmlns="http://www.w3.org/2000/svg"><path d="M54.392 56.678H3.608C1.616 56.678 0 55.089 0 53.131V41.547C0 39.589 1.616 38 3.608 38h50.783C56.384 38 58 39.589 58 41.547V53.13c0 1.96-1.616 3.548-3.608 3.548z" fill="#556080"/><path d="M54.392 75.356H3.608C1.616 75.356 0 73.767 0 71.809V60.225c0-1.958 1.616-3.547 3.608-3.547h50.783c1.993 0 3.609 1.589 3.609 3.547v11.583c0 1.96-1.616 3.548-3.608 3.548z" fill="#38454F"/><path d="M54.392 94.034H3.608C1.616 94.034 0 92.445 0 90.487V78.903c0-1.958 1.616-3.547 3.608-3.547h50.783c1.993 0 3.609 1.589 3.609 3.547v11.583c0 1.96-1.616 3.548-3.608 3.548z" fill="#556080"/><path d="M9.5 50.78c1.933 0 3.5-1.54 3.5-3.441 0-1.9-1.567-3.44-3.5-3.44S6 45.438 6 47.338s1.567 3.44 3.5 3.44zM49 46.847c.552 0 1-.44 1-.983a.992.992 0 0 0-1-.983c-.552 0-1 .44-1 .983 0 .543.448.983 1 .983zm-4 0c.552 0 1-.44 1-.983a.992.992 0 0 0-1-.983c-.552 0-1 .44-1 .983 0 .543.448.983 1 .983zm6 2.95c.552 0 1-.44 1-.983a.992.992 0 0 0-1-.983c-.552 0-1 .44-1 .983 0 .542.448.983 1 .983zm-4 0c.552 0 1-.44 1-.983a.992.992 0 0 0-1-.983c-.552 0-1 .44-1 .983 0 .542.448.983 1 .983zm-6-2.95c.552 0 1-.44 1-.983a.992.992 0 0 0-1-.983c-.552 0-1 .44-1 .983 0 .543.448.983 1 .983zm2 2.95c.552 0 1-.44 1-.983a.992.992 0 0 0-1-.983c-.552 0-1 .44-1 .983 0 .542.448.983 1 .983zm-6-2.95c.552 0 1-.44 1-.983a.992.992 0 0 0-1-.983c-.552 0-1 .44-1 .983 0 .543.448.983 1 .983zm2 2.95c.552 0 1-.44 1-.983a.992.992 0 0 0-1-.983c-.552 0-1 .44-1 .983 0 .542.448.983 1 .983zm-6-2.95c.552 0 1-.44 1-.983a.992.992 0 0 0-1-.983c-.552 0-1 .44-1 .983 0 .543.448.983 1 .983zm2 2.95c.552 0 1-.44 1-.983a.992.992 0 0 0-1-.983c-.552 0-1 .44-1 .983 0 .542.448.983 1 .983zM9.5 69.458c1.933 0 3.5-1.54 3.5-3.44 0-1.901-1.567-3.442-3.5-3.442S6 64.116 6 66.017c0 1.9 1.567 3.44 3.5 3.44zM49 65.525c.552 0 1-.44 1-.983a.992.992 0 0 0-1-.983c-.552 0-1 .44-1 .983 0 .543.448.983 1 .983zm-4 0c.552 0 1-.44 1-.983a.992.992 0 0 0-1-.983c-.552 0-1 .44-1 .983 0 .543.448.983 1 .983zm6 2.95c.552 0 1-.44 1-.983a.992.992 0 0 0-1-.984c-.552 0-1 .44-1 .984 0 .542.448.983 1 .983zm-4 0c.552 0 1-.44 1-.983a.992.992 0 0 0-1-.984c-.552 0-1 .44-1 .984 0 .542.448.983 1 .983zm-6-2.95c.552 0 1-.44 1-.983a.992.992 0 0 0-1-.983c-.552 0-1 .44-1 .983 0 .543.448.983 1 .983zm2 2.95c.552 0 1-.44 1-.983a.992.992 0 0 0-1-.984c-.552 0-1 .44-1 .984 0 .542.448.983 1 .983zm-6-2.95c.552 0 1-.44 1-.983a.992.992 0 0 0-1-.983c-.552 0-1 .44-1 .983 0 .543.448.983 1 .983zm2 2.95c.552 0 1-.44 1-.983a.992.992 0 0 0-1-.984c-.552 0-1 .44-1 .984 0 .542.448.983 1 .983zm-6-2.95c.552 0 1-.44 1-.983a.992.992 0 0 0-1-.983c-.552 0-1 .44-1 .983 0 .543.448.983 1 .983zm2 2.95c.552 0 1-.44 1-.983a.992.992 0 0 0-1-.984c-.552 0-1 .44-1 .984 0 .542.448.983 1 .983zM9.5 88.135c1.933 0 3.5-1.54 3.5-3.44s-1.567-3.44-3.5-3.44-3.5 1.54-3.5 3.44 1.567 3.44 3.5 3.44zM49 84.203c.552 0 1-.44 1-.983a.992.992 0 0 0-1-.983c-.552 0-1 .44-1 .983 0 .543.448.983 1 .983zm-4 0c.552 0 1-.44 1-.983a.992.992 0 0 0-1-.983c-.552 0-1 .44-1 .983 0 .543.448.983 1 .983zm6 2.95c.552 0 1-.44 1-.983a.992.992 0 0 0-1-.984c-.552 0-1 .44-1 .984 0 .543.448.983 1 .983zm-4 0c.552 0 1-.44 1-.983a.992.992 0 0 0-1-.984c-.552 0-1 .44-1 .984 0 .543.448.983 1 .983zm-6-2.95c.552 0 1-.44 1-.983a.992.992 0 0 0-1-.983c-.552 0-1 .44-1 .983 0 .543.448.983 1 .983zm2 2.95c.552 0 1-.44 1-.983a.992.992 0 0 0-1-.984c-.552 0-1 .44-1 .984 0 .543.448.983 1 .983zm-6-2.95c.552 0 1-.44 1-.983a.992.992 0 0 0-1-.983c-.552 0-1 .44-1 .983 0 .543.448.983 1 .983zm2 2.95c.552 0 1-.44 1-.983a.992.992 0 0 0-1-.984c-.552 0-1 .44-1 .984 0 .543.448.983 1 .983zm-6-2.95c.552 0 1-.44 1-.983a.992.992 0 0 0-1-.983c-.552 0-1 .44-1 .983 0 .543.448.983 1 .983zm2 2.95c.552 0 1-.44 1-.983a.992.992 0 0 0-1-.984c-.552 0-1 .44-1 .984 0 .543.448.983 1 .983z" fill="#8697CB"/><path d="M143.034 108.661c7.751 0 14.034-6.192 14.034-13.83 0-7.639-6.283-13.831-14.034-13.831S129 87.192 129 94.83c0 7.639 6.283 13.831 14.034 13.831z" fill="#26B999"/><path d="M150.719 88.121a1.179 1.179 0 0 0-1.628.289l-6.545 9.266-4.618-3.737a1.18 1.18 0 0 0-1.646.16 1.139 1.139 0 0 0 .163 1.622l5.597 4.529a1.188 1.188 0 0 0 .902.251c.323-.045.613-.219.8-.483l7.267-10.291a1.145 1.145 0 0 0-.292-1.606z" fill="#fff"/><path d="M151.856 2h-4v3h-9V2h-19v56h47V2h-15z" fill="#545E73"/><path d="M147.856 0h-9v5h9V0z" fill="#404656"/><path d="M154.856 5v3h-23V5h-9v50h41V5h-9z" fill="#ECF0F1"/><path d="M147.856 2v3h-9V2h-7v6h23V2h-7z" fill="#8697CB"/><path d="M141.856 16h-13a1 1 0 1 1 0-2h13a1 1 0 1 1 0 2zm16 6h-29a1 1 0 1 1 0-2h29a1 1 0 1 1 0 2z" fill="#BFC9D6"/><path d="M135.01 35v-7.139h1.513V35h-1.513zm7.524-1.982c0 .644-.233 1.152-.698 1.523-.462.371-1.107.557-1.934.557-.761 0-1.435-.144-2.021-.43v-1.406a8.39 8.39 0 0 0 1.221.454c.335.088.641.132.918.132.332 0 .585-.064.761-.19.179-.128.269-.316.269-.567a.615.615 0 0 0-.117-.371 1.294 1.294 0 0 0-.347-.318c-.15-.1-.457-.262-.923-.483-.436-.205-.763-.402-.981-.59a2.217 2.217 0 0 1-.523-.66 1.883 1.883 0 0 1-.195-.879c0-.631.213-1.128.64-1.49.429-.36 1.022-.541 1.777-.541.371 0 .724.044 1.059.132.339.088.692.211 1.06.37l-.488 1.178a7.075 7.075 0 0 0-.948-.328 3.008 3.008 0 0 0-.732-.092c-.286 0-.506.066-.659.2a.66.66 0 0 0-.23.522c0 .134.031.25.093.352.062.097.16.194.293.288.137.091.457.257.962.498.667.319 1.125.64 1.372.962.247.319.371.711.371 1.177zm7.774-1.597c0 1.181-.293 2.09-.879 2.724-.586.635-1.426.953-2.52.953s-1.933-.318-2.519-.953c-.586-.634-.879-1.546-.879-2.734s.293-2.095.879-2.72c.589-.628 1.432-.942 2.529-.942s1.935.316 2.515.947c.582.632.874 1.54.874 2.725zm-5.21 0c0 .797.151 1.398.454 1.802.302.403.755.605 1.357.605 1.208 0 1.812-.802 1.812-2.407 0-1.608-.601-2.412-1.802-2.412-.602 0-1.056.203-1.362.61-.306.404-.459 1.004-.459 1.802zm-14.131 9.44h2.221c1.013 0 1.747.145 2.203.435.459.286.688.744.688 1.372 0 .426-.101.776-.303 1.05a1.19 1.19 0 0 1-.796.493v.049c.453.1.778.29.977.566.202.277.303.645.303 1.104 0 .65-.236 1.159-.708 1.523-.469.365-1.107.547-1.914.547h-2.671v-7.139zm1.513 2.828h.879c.411 0 .707-.064.889-.191.186-.127.278-.337.278-.63 0-.273-.101-.469-.302-.586-.199-.12-.515-.18-.948-.18h-.796v1.587zm0 1.2v1.861h.987c.416 0 .724-.08.923-.24.198-.159.298-.403.298-.732 0-.592-.424-.888-1.27-.888h-.938zm7.305-1.45c.69 0 1.239.194 1.646.581.41.388.615.918.615 1.592 0 .798-.246 1.411-.737 1.841-.492.43-1.195.645-2.11.645-.794 0-1.435-.129-1.924-.386v-1.304c.258.137.557.25.899.337.342.085.666.127.972.127.921 0 1.381-.377 1.381-1.133 0-.72-.477-1.079-1.43-1.079-.173 0-.363.018-.572.054a3.916 3.916 0 0 0-.507.107l-.601-.322.269-3.638h3.872v1.28h-2.549l-.132 1.401.171-.034c.198-.046.444-.069.737-.069zm3.613-2.578h2.222c1.012 0 1.747.145 2.202.435.459.286.689.744.689 1.372 0 .426-.101.776-.303 1.05a1.192 1.192 0 0 1-.796.493v.049c.453.1.778.29.977.566.201.277.302.645.302 1.104 0 .65-.236 1.159-.708 1.523-.468.365-1.106.547-1.914.547h-2.671v-7.139zm1.514 2.828h.879c.41 0 .706-.064.889-.191.185-.127.278-.337.278-.63 0-.273-.101-.469-.303-.586-.198-.12-.514-.18-.947-.18h-.796v1.587zm0 1.2v1.861h.986c.417 0 .725-.08.923-.24.199-.159.298-.403.298-.732 0-.592-.423-.888-1.269-.888h-.938zm9.419-2.431c0 .446-.135.825-.405 1.138-.27.312-.65.527-1.138.644v.03c.576.071 1.012.247 1.309.527.296.277.444.65.444 1.123 0 .687-.249 1.222-.747 1.606-.498.381-1.209.572-2.134.572-.775 0-1.461-.129-2.06-.386v-1.284c.276.14.581.254.913.342.332.087.661.131.986.131.498 0 .866-.084 1.104-.254.237-.169.356-.44.356-.815 0-.335-.137-.573-.41-.713-.274-.14-.71-.21-1.309-.21h-.542v-1.157h.552c.553 0 .957-.072 1.211-.215.257-.146.386-.395.386-.747 0-.54-.339-.81-1.016-.81-.234 0-.474.039-.718.117a3.502 3.502 0 0 0-.805.405l-.699-1.04c.651-.469 1.428-.703 2.329-.703.739 0 1.322.15 1.749.449.429.3.644.716.644 1.25zm-48.977 4.896a.5.5 0 0 0 0-.708l-3.182-3.181a.501.501 0 0 0-.708.707L104.293 47l-2.829 2.828a.5.5 0 0 0 .708.707l3.182-3.181zM73 47.5h32v-1H73v1zm-.354 40.854a.5.5 0 0 1 0-.708l3.182-3.181a.5.5 0 1 1 .707.707L73.707 88l2.829 2.828a.5.5 0 1 1-.708.707l-3.182-3.181zM105 88.5H73v-1h32v1zm112.354-41.146a.5.5 0 0 0 0-.708l-3.182-3.181a.501.501 0 0 0-.708.707L216.293 47l-2.829 2.828a.5.5 0 0 0 .708.707l3.182-3.181zM185 47.5h32v-1h-32v1zm-.354 40.854a.5.5 0 0 1 0-.708l3.182-3.181a.501.501 0 0 1 .708.707L185.707 88l2.829 2.828a.5.5 0 0 1-.708.707l-3.182-3.181zM217 88.5h-32v-1h32v1z" fill="#38454F"/><path d="M276.555 52.282h-35.068v34.344h35.068V52.282z" fill="#556080"/><path d="M287.25 50.834L259 36.304l-28.25 14.53h56.5z" fill="#ECF0F1"/><path d="M242.893 47.894L259 39.627l16.107 8.267h-32.214z" fill="#FCFCFD"/><path d="M285.972 87.947h-53.944v2.855h53.944v-2.855zM235.82 53.731v1.704c0 1.15.938 2.088 2.088 2.088h7.244c1.15 0 2.088-.937 2.088-2.088v-1.704h-11.42zm11.42 31.489v-1.705c0-1.15-.938-2.088-2.088-2.088h-7.244c-1.15 0-2.088.938-2.088 2.088v1.705h11.42z" fill="#BFC9D6"/><path d="M245.28 57.523h-7.457V81.47h7.457V57.523z" fill="#D4DAE0"/><path d="M253.375 53.731v1.704c0 1.15.938 2.088 2.088 2.088h7.287c1.15 0 2.088-.937 2.088-2.088v-1.704h-11.463zm11.42 31.489v-1.705c0-1.15-.937-2.088-2.088-2.088h-7.286a2.091 2.091 0 0 0-2.088 2.088v1.705h11.462z" fill="#BFC9D6"/><path d="M262.792 57.523h-7.457V81.47h7.457V57.523z" fill="#D4DAE0"/><path d="M270.888 53.731v1.704c0 1.15.938 2.088 2.088 2.088h7.286a2.091 2.091 0 0 0 2.088-2.088v-1.704h-11.462zm11.42 31.489v-1.705c0-1.15-.938-2.088-2.088-2.088h-7.244c-1.15 0-2.088.938-2.088 2.088v1.705h11.42z" fill="#BFC9D6"/><path d="M280.348 57.523h-7.457V81.47h7.457V57.523zM283 50h-48v4h48v-4zm.458 35.22h-48.916v2.855h48.916V85.22z" fill="#D4DAE0"/></svg>