<svg width="296" height="127" fill="none" xmlns="http://www.w3.org/2000/svg"><path d="M154.392 109.865h-23.649a5.608 5.608 0 0 1-5.608-5.608v-23.65A5.608 5.608 0 0 1 130.743 75h23.649A5.608 5.608 0 0 1 160 80.608v23.649a5.608 5.608 0 0 1-5.608 5.608z" fill="#BFC9D6"/><path d="M155.84 116.135h-26.545A6.295 6.295 0 0 1 123 109.84V83.295A6.295 6.295 0 0 1 129.295 77h26.545a6.295 6.295 0 0 1 6.295 6.295v26.545a6.296 6.296 0 0 1-6.295 6.295z" fill="#D7DCE2"/><path d="M156.82 120.965h-28.465a6.75 6.75 0 0 1-6.75-6.75V85.75a6.75 6.75 0 0 1 6.75-6.75h28.465a6.75 6.75 0 0 1 6.75 6.75v28.465a6.75 6.75 0 0 1-6.75 6.75z" fill="#E6E9ED"/><rect x="126" y="87" width="20" height="2" rx="1" fill="#D7DCE2"/><rect x="126" y="93" width="14" height="2" rx="1" fill="#D7DCE2"/><rect x="126" y="99" width="14" height="2" rx="1" fill="#D7DCE2"/><rect x="126" y="105" width="14" height="2" rx="1" fill="#D7DCE2"/><path d="M152 114.259a9.055 9.055 0 0 1-6-2.259v15l6-5.88 6 5.88v-15a9.055 9.055 0 0 1-6 2.259z" fill="#556080"/><path d="M161 106a9 9 0 0 1-9 9 9 9 0 0 1-9-9 9 9 0 0 1 9-9 9 9 0 0 1 9 9z" fill="#FFCF56"/><path d="M157 106a5 5 0 1 1-10.001-.001A5 5 0 0 1 157 106z" fill="#EDB53A"/><path d="M54.392 56.678H3.608C1.616 56.678 0 55.089 0 53.131V41.547C0 39.589 1.616 38 3.608 38h50.783C56.384 38 58 39.589 58 41.547V53.13c0 1.96-1.616 3.548-3.608 3.548z" fill="#556080"/><path d="M54.392 75.356H3.608C1.616 75.356 0 73.767 0 71.809V60.225c0-1.958 1.616-3.547 3.608-3.547h50.783c1.993 0 3.609 1.589 3.609 3.547v11.583c0 1.96-1.616 3.548-3.608 3.548z" fill="#38454F"/><path d="M54.392 94.034H3.608C1.616 94.034 0 92.445 0 90.487V78.903c0-1.958 1.616-3.547 3.608-3.547h50.783c1.993 0 3.609 1.589 3.609 3.547v11.583c0 1.96-1.616 3.548-3.608 3.548z" fill="#556080"/><path d="M9.5 50.78c1.933 0 3.5-1.54 3.5-3.441 0-1.9-1.567-3.44-3.5-3.44S6 45.438 6 47.338s1.567 3.44 3.5 3.44zM49 46.847c.552 0 1-.44 1-.983a.992.992 0 0 0-1-.983c-.552 0-1 .44-1 .983 0 .543.448.983 1 .983zm-4 0c.552 0 1-.44 1-.983a.992.992 0 0 0-1-.983c-.552 0-1 .44-1 .983 0 .543.448.983 1 .983zm6 2.95c.552 0 1-.44 1-.983a.992.992 0 0 0-1-.983c-.552 0-1 .44-1 .983 0 .542.448.983 1 .983zm-4 0c.552 0 1-.44 1-.983a.992.992 0 0 0-1-.983c-.552 0-1 .44-1 .983 0 .542.448.983 1 .983zm-6-2.95c.552 0 1-.44 1-.983a.992.992 0 0 0-1-.983c-.552 0-1 .44-1 .983 0 .543.448.983 1 .983zm2 2.95c.552 0 1-.44 1-.983a.992.992 0 0 0-1-.983c-.552 0-1 .44-1 .983 0 .542.448.983 1 .983zm-6-2.95c.552 0 1-.44 1-.983a.992.992 0 0 0-1-.983c-.552 0-1 .44-1 .983 0 .543.448.983 1 .983zm2 2.95c.552 0 1-.44 1-.983a.992.992 0 0 0-1-.983c-.552 0-1 .44-1 .983 0 .542.448.983 1 .983zm-6-2.95c.552 0 1-.44 1-.983a.992.992 0 0 0-1-.983c-.552 0-1 .44-1 .983 0 .543.448.983 1 .983zm2 2.95c.552 0 1-.44 1-.983a.992.992 0 0 0-1-.983c-.552 0-1 .44-1 .983 0 .542.448.983 1 .983zM9.5 69.458c1.933 0 3.5-1.54 3.5-3.44 0-1.901-1.567-3.442-3.5-3.442S6 64.116 6 66.017c0 1.9 1.567 3.44 3.5 3.44zM49 65.525c.552 0 1-.44 1-.983a.992.992 0 0 0-1-.983c-.552 0-1 .44-1 .983 0 .543.448.983 1 .983zm-4 0c.552 0 1-.44 1-.983a.992.992 0 0 0-1-.983c-.552 0-1 .44-1 .983 0 .543.448.983 1 .983zm6 2.95c.552 0 1-.44 1-.983a.992.992 0 0 0-1-.984c-.552 0-1 .44-1 .984 0 .542.448.983 1 .983zm-4 0c.552 0 1-.44 1-.983a.992.992 0 0 0-1-.984c-.552 0-1 .44-1 .984 0 .542.448.983 1 .983zm-6-2.95c.552 0 1-.44 1-.983a.992.992 0 0 0-1-.983c-.552 0-1 .44-1 .983 0 .543.448.983 1 .983zm2 2.95c.552 0 1-.44 1-.983a.992.992 0 0 0-1-.984c-.552 0-1 .44-1 .984 0 .542.448.983 1 .983zm-6-2.95c.552 0 1-.44 1-.983a.992.992 0 0 0-1-.983c-.552 0-1 .44-1 .983 0 .543.448.983 1 .983zm2 2.95c.552 0 1-.44 1-.983a.992.992 0 0 0-1-.984c-.552 0-1 .44-1 .984 0 .542.448.983 1 .983zm-6-2.95c.552 0 1-.44 1-.983a.992.992 0 0 0-1-.983c-.552 0-1 .44-1 .983 0 .543.448.983 1 .983zm2 2.95c.552 0 1-.44 1-.983a.992.992 0 0 0-1-.984c-.552 0-1 .44-1 .984 0 .542.448.983 1 .983zM9.5 88.135c1.933 0 3.5-1.54 3.5-3.44s-1.567-3.44-3.5-3.44-3.5 1.54-3.5 3.44 1.567 3.44 3.5 3.44zM49 84.203c.552 0 1-.44 1-.983a.992.992 0 0 0-1-.983c-.552 0-1 .44-1 .983 0 .543.448.983 1 .983zm-4 0c.552 0 1-.44 1-.983a.992.992 0 0 0-1-.983c-.552 0-1 .44-1 .983 0 .543.448.983 1 .983zm6 2.95c.552 0 1-.44 1-.983a.992.992 0 0 0-1-.984c-.552 0-1 .44-1 .984 0 .543.448.983 1 .983zm-4 0c.552 0 1-.44 1-.983a.992.992 0 0 0-1-.984c-.552 0-1 .44-1 .984 0 .543.448.983 1 .983zm-6-2.95c.552 0 1-.44 1-.983a.992.992 0 0 0-1-.983c-.552 0-1 .44-1 .983 0 .543.448.983 1 .983zm2 2.95c.552 0 1-.44 1-.983a.992.992 0 0 0-1-.984c-.552 0-1 .44-1 .984 0 .543.448.983 1 .983zm-6-2.95c.552 0 1-.44 1-.983a.992.992 0 0 0-1-.983c-.552 0-1 .44-1 .983 0 .543.448.983 1 .983zm2 2.95c.552 0 1-.44 1-.983a.992.992 0 0 0-1-.984c-.552 0-1 .44-1 .984 0 .543.448.983 1 .983zm-6-2.95c.552 0 1-.44 1-.983a.992.992 0 0 0-1-.983c-.552 0-1 .44-1 .983 0 .543.448.983 1 .983zm2 2.95c.552 0 1-.44 1-.983a.992.992 0 0 0-1-.984c-.552 0-1 .44-1 .984 0 .543.448.983 1 .983z" fill="#8697CB"/><path d="M151.856 2h-4v3h-9V2h-19v56h47V2h-15z" fill="#545E73"/><path d="M147.856 0h-9v5h9V0z" fill="#404656"/><path d="M154.856 5v3h-23V5h-9v50h41V5h-9z" fill="#ECF0F1"/><path d="M147.856 2v3h-9V2h-7v6h23V2h-7z" fill="#8697CB"/><path d="M141.856 16h-13a1 1 0 1 1 0-2h13a1 1 0 1 1 0 2zm16 6h-29a1 1 0 1 1 0-2h29a1 1 0 1 1 0 2z" fill="#BFC9D6"/><path d="M135.01 35v-7.139h1.513V35h-1.513zm7.524-1.982c0 .644-.233 1.152-.698 1.523-.462.371-1.107.557-1.934.557-.761 0-1.435-.144-2.021-.43v-1.406a8.39 8.39 0 0 0 1.221.454c.335.088.641.132.918.132.332 0 .585-.064.761-.19.179-.128.269-.316.269-.567a.615.615 0 0 0-.117-.371 1.294 1.294 0 0 0-.347-.318c-.15-.1-.457-.262-.923-.483-.436-.205-.763-.402-.981-.59a2.217 2.217 0 0 1-.523-.66 1.883 1.883 0 0 1-.195-.879c0-.631.213-1.128.64-1.49.429-.36 1.022-.541 1.777-.541.371 0 .724.044 1.059.132.339.088.692.211 1.06.37l-.488 1.178a7.075 7.075 0 0 0-.948-.328 3.008 3.008 0 0 0-.732-.092c-.286 0-.506.066-.659.2a.66.66 0 0 0-.23.522c0 .134.031.25.093.352.062.097.16.194.293.288.137.091.457.257.962.498.667.319 1.125.64 1.372.962.247.319.371.711.371 1.177zm7.774-1.597c0 1.181-.293 2.09-.879 2.724-.586.635-1.426.953-2.52.953s-1.933-.318-2.519-.953c-.586-.634-.879-1.546-.879-2.734s.293-2.095.879-2.72c.589-.628 1.432-.942 2.529-.942s1.935.316 2.515.947c.582.632.874 1.54.874 2.725zm-5.21 0c0 .797.151 1.398.454 1.802.302.403.755.605 1.357.605 1.208 0 1.812-.802 1.812-2.407 0-1.608-.601-2.412-1.802-2.412-.602 0-1.056.203-1.362.61-.306.404-.459 1.004-.459 1.802zm-14.131 9.44h2.221c1.013 0 1.747.145 2.203.435.459.286.688.744.688 1.372 0 .426-.101.776-.303 1.05a1.19 1.19 0 0 1-.796.493v.049c.453.1.778.29.977.566.202.277.303.645.303 1.104 0 .65-.236 1.159-.708 1.523-.469.365-1.107.547-1.914.547h-2.671v-7.139zm1.513 2.828h.879c.411 0 .707-.064.889-.191.186-.127.278-.337.278-.63 0-.273-.101-.469-.302-.586-.199-.12-.515-.18-.948-.18h-.796v1.587zm0 1.2v1.861h.987c.416 0 .724-.08.923-.24.198-.159.298-.403.298-.732 0-.592-.424-.888-1.27-.888h-.938zm7.305-1.45c.69 0 1.239.194 1.646.581.41.388.615.918.615 1.592 0 .798-.246 1.411-.737 1.841-.492.43-1.195.645-2.11.645-.794 0-1.435-.129-1.924-.386v-1.304c.258.137.557.25.899.337.342.085.666.127.972.127.921 0 1.381-.377 1.381-1.133 0-.72-.477-1.079-1.43-1.079-.173 0-.363.018-.572.054a3.916 3.916 0 0 0-.507.107l-.601-.322.269-3.638h3.872v1.28h-2.549l-.132 1.401.171-.034c.198-.046.444-.069.737-.069zm3.613-2.578h2.222c1.012 0 1.747.145 2.202.435.459.286.689.744.689 1.372 0 .426-.101.776-.303 1.05a1.192 1.192 0 0 1-.796.493v.049c.453.1.778.29.977.566.201.277.302.645.302 1.104 0 .65-.236 1.159-.708 1.523-.468.365-1.106.547-1.914.547h-2.671v-7.139zm1.514 2.828h.879c.41 0 .706-.064.889-.191.185-.127.278-.337.278-.63 0-.273-.101-.469-.303-.586-.198-.12-.514-.18-.947-.18h-.796v1.587zm0 1.2v1.861h.986c.417 0 .725-.08.923-.24.199-.159.298-.403.298-.732 0-.592-.423-.888-1.269-.888h-.938zm9.419-2.431c0 .446-.135.825-.405 1.138-.27.312-.65.527-1.138.644v.03c.576.071 1.012.247 1.309.527.296.277.444.65.444 1.123 0 .687-.249 1.222-.747 1.606-.498.381-1.209.572-2.134.572-.775 0-1.461-.129-2.06-.386v-1.284c.276.14.581.254.913.342.332.087.661.131.986.131.498 0 .866-.084 1.104-.254.237-.169.356-.44.356-.815 0-.335-.137-.573-.41-.713-.274-.14-.71-.21-1.309-.21h-.542v-1.157h.552c.553 0 .957-.072 1.211-.215.257-.146.386-.395.386-.747 0-.54-.339-.81-1.016-.81-.234 0-.474.039-.718.117a3.502 3.502 0 0 0-.805.405l-.699-1.04c.651-.469 1.428-.703 2.329-.703.739 0 1.322.15 1.749.449.429.3.644.716.644 1.25zm-48.977 4.896a.5.5 0 0 0 0-.708l-3.182-3.181a.501.501 0 0 0-.708.707L104.293 47l-2.829 2.828a.5.5 0 0 0 .708.707l3.182-3.181zM73 47.5h32v-1H73v1zm-.354 40.854a.5.5 0 0 1 0-.708l3.182-3.181a.5.5 0 1 1 .707.707L73.707 88l2.829 2.828a.5.5 0 1 1-.708.707l-3.182-3.181zM105 88.5H73v-1h32v1zm112.354-41.146a.5.5 0 0 0 0-.708l-3.182-3.181a.501.501 0 0 0-.708.707L216.293 47l-2.829 2.828a.5.5 0 0 0 .708.707l3.182-3.181zM185 47.5h32v-1h-32v1zm-.354 40.854a.5.5 0 0 1 0-.708l3.182-3.181a.501.501 0 0 1 .708.707L185.707 88l2.829 2.828a.5.5 0 0 1-.708.707l-3.182-3.181zM217 88.5h-32v-1h32v1z" fill="#38454F"/><g clip-path="url(#clip0)"><path d="M289.69 70.57V54.982c0-.581-.471-1.052-1.052-1.052h-19.983V96h16.828" fill="#38454F"/><path d="M279.172 53.931h-11.569v42.07h11.569V53.93z" fill="#38454F"/><path d="M236.052 35h31.551c.581 0 1.052.47 1.052 1.052V96h-32.603c-.581 0-1.052-.47-1.052-1.052V36.052c0-.581.471-1.052 1.052-1.052z" fill="#38454F"/><path d="M251.828 35v61h-15.776c-.581 0-1.052-.47-1.052-1.052V36.052c0-.581.471-1.052 1.052-1.052h15.776z" fill="#556080"/><path d="M249.724 81.276h4.207a4.207 4.207 0 0 1 4.207 4.207V96h-12.621V85.483a4.207 4.207 0 0 1 4.207-4.207zm-7.362-10.518h-2.103c-.581 0-1.052.471-1.052 1.052v4.207c0 .581.471 1.052 1.052 1.052h2.103c.581 0 1.052-.471 1.052-1.052V71.81c0-.58-.471-1.052-1.052-1.052zm10.517 0h-2.103c-.581 0-1.052.471-1.052 1.052v4.207c0 .581.471 1.052 1.052 1.052h2.103c.581 0 1.052-.471 1.052-1.052V71.81c0-.58-.471-1.052-1.052-1.052zm10.518 0h-2.104c-.581 0-1.052.471-1.052 1.052v4.207c0 .581.471 1.052 1.052 1.052h2.104c.58 0 1.051-.471 1.051-1.052V71.81c0-.58-.471-1.052-1.051-1.052zm-21.035-10.516h-2.103c-.581 0-1.052.47-1.052 1.051V65.5c0 .58.471 1.052 1.052 1.052h2.103c.581 0 1.052-.471 1.052-1.052v-4.207c0-.58-.471-1.051-1.052-1.051zm10.517 0h-2.103c-.581 0-1.052.47-1.052 1.051V65.5c0 .58.471 1.052 1.052 1.052h2.103c.581 0 1.052-.471 1.052-1.052v-4.207c0-.58-.471-1.051-1.052-1.051zm10.518 0h-2.104c-.581 0-1.052.47-1.052 1.051V65.5c0 .58.471 1.052 1.052 1.052h2.104c.58 0 1.051-.471 1.051-1.052v-4.207c0-.58-.471-1.051-1.051-1.051zm-21.035-10.518h-2.103c-.581 0-1.052.471-1.052 1.052v4.207c0 .58.471 1.052 1.052 1.052h2.103c.581 0 1.052-.471 1.052-1.052v-4.207c0-.581-.471-1.052-1.052-1.052zm10.517 0h-2.103c-.581 0-1.052.471-1.052 1.052v4.207c0 .58.471 1.052 1.052 1.052h2.103c.581 0 1.052-.471 1.052-1.052v-4.207c0-.581-.471-1.052-1.052-1.052zm10.518 0h-2.104c-.581 0-1.052.471-1.052 1.052v4.207c0 .58.471 1.052 1.052 1.052h2.104c.58 0 1.051-.471 1.051-1.052v-4.207c0-.581-.471-1.052-1.051-1.052zm-21.035-10.517h-2.103c-.581 0-1.052.47-1.052 1.051v4.207c0 .581.471 1.052 1.052 1.052h2.103c.581 0 1.052-.47 1.052-1.052v-4.207c0-.58-.471-1.051-1.052-1.051zm10.517 0h-2.103c-.581 0-1.052.47-1.052 1.051v4.207c0 .581.471 1.052 1.052 1.052h2.103c.581 0 1.052-.47 1.052-1.052v-4.207c0-.58-.471-1.051-1.052-1.051zm10.518 0h-2.104c-.581 0-1.052.47-1.052 1.051v4.207c0 .581.471 1.052 1.052 1.052h2.104c.58 0 1.051-.47 1.051-1.052v-4.207c0-.58-.471-1.051-1.051-1.051z" fill="#8697CB"/><path d="M283.379 94.507V96h-8.413V85.483" fill="#6F81B6"/><path d="M279.172 71.81a1.05 1.05 0 0 1-1.051-1.051v-4.207a1.052 1.052 0 1 1 2.103 0v4.207c0 .58-.471 1.051-1.052 1.051zm-5.258 0c-.581 0-1.052-.47-1.052-1.051v-4.207a1.052 1.052 0 0 1 2.103 0v4.207c0 .58-.47 1.051-1.051 1.051zm10.517-1.556a1.052 1.052 0 0 1-1.052-1.052v-2.65a1.052 1.052 0 0 1 2.104 0v2.65c0 .58-.471 1.052-1.052 1.052zm-5.259-6.857c-.58 0-1.051-.471-1.051-1.052v-4.207a1.052 1.052 0 1 1 2.103 0v4.207c0 .58-.471 1.052-1.052 1.052zm-5.258 0a1.052 1.052 0 0 1-1.052-1.052v-4.207a1.052 1.052 0 0 1 2.103 0v4.207c0 .58-.47 1.052-1.051 1.052zm10.517 0a1.052 1.052 0 0 1-1.052-1.052v-4.207a1.052 1.052 0 0 1 2.104 0v4.207c0 .58-.471 1.052-1.052 1.052z" fill="#8697CB"/><path d="M258.138 85.483V96h-6.31V81.276h2.103a4.207 4.207 0 0 1 4.207 4.207z" fill="#6F81B6"/><path d="M277.267 90.151a5.442 5.442 0 0 1-2.301-4.416V73.291l10.517-4.543L296 73.29v12.444a5.444 5.444 0 0 1-2.301 4.418L285.483 96l-8.216-5.849z" fill="#FFCF56"/><path d="M283.379 88.354c-.227 0-.449-.074-.631-.21l-4.207-3.156a1.053 1.053 0 0 1 1.262-1.682l3.392 2.543 7.777-9.721a1.052 1.052 0 0 1 1.642 1.313l-8.413 10.517c-.2.25-.502.396-.822.396z" fill="#fff"/></g><defs><clipPath id="clip0"><path fill="#fff" transform="translate(235 35)" d="M0 0h61v61H0z"/></clipPath></defs></svg>