<svg width="310" height="310" fill="none" xmlns="http://www.w3.org/2000/svg"><g opacity=".2" clip-path="url(#clip0)" fill="#fff"><path d="M309.138 160.168L273.76 64.54a13.775 13.775 0 0 0-7.213-7.788 13.777 13.777 0 0 0-10.607-.407l-172.509 63.82a13.784 13.784 0 0 0-7.789 7.213 13.78 13.78 0 0 0-.406 10.607l35.378 95.628a13.771 13.771 0 0 0 7.213 7.788 13.81 13.81 0 0 0 5.787 1.276c1.624 0 3.252-.288 4.82-.869l172.509-63.82h.001c7.171-2.654 10.847-10.648 8.194-17.82zm-62.681-85.527l-53.509 76.498-90.413-23.253 143.922-53.245zM121.12 222.044l-30.687-82.949 71.072 18.28-40.385 64.669zm15.028 2.123l39.447-63.169 18.553 4.772a7.05 7.05 0 0 0 1.727.223 6.946 6.946 0 0 0 5.686-2.962l10.979-15.708 71.063 22.292-147.455 54.552zm84.735-88.761l42.058-60.138 30.699 82.961-72.757-22.823zM80.794 235.513a6.936 6.936 0 0 0-8.91-4.098l-26.133 9.668a6.936 6.936 0 0 0 4.812 13.008l26.132-9.669a6.932 6.932 0 0 0 4.099-8.909zm-35.37-64.38a6.936 6.936 0 0 0-8.91-4.097l-16.132 5.968a6.935 6.935 0 1 0 4.813 13.007l16.131-5.968a6.934 6.934 0 0 0 4.098-8.91zm-19.997 52.532a6.936 6.936 0 0 0-8.91-4.098L4.53 224.002a6.935 6.935 0 0 0 4.812 13.007l11.987-4.434a6.934 6.934 0 0 0 4.098-8.91z"/></g><defs><clipPath id="clip0"><path fill="#fff" d="M0 0h310v310H0z"/></clipPath></defs></svg>