<svg width="605" height="516" fill="none" xmlns="http://www.w3.org/2000/svg"><path d="M66.99 353.246l-1.652 14.025-9.889 25.646 9.044 2.78 6.956-26.75.909-15.082-5.367-.619z" fill="#F4F4F4"/><path d="M45.856 421.062l4.418 44.632-1.471 39.237h15.221l.819-2.922-10.435-1.39 5.564-34.741 5.02-43.205-19.136-1.611z" fill="url(#paint0_linear)"/><path d="M40.828 420.563l-3.462 38.019-23.304 30.92 2.783 14.591h6.956l-4.173-3.126-.696-9.38 22.26-25.014 20.172-44.816-20.536-1.194z" fill="#3878FF"/><path d="M72.358 353.865l-.27-14.14-2.845-.354-2.252 13.875 5.367.619zm-27.672 19.589c-1.05 5.142-1.107 13.003 6.62 14.241 7.665 1.23 12.286-3.624 13.408-8.751 1.122-5.127-.776-11.722-8.705-12.744-5.209-.671-10.484 3.142-11.323 7.254z" fill="#AFC6F5"/><path d="M50.241 387.341c-5.514-1.481-7.608-6.794-6.812-12.155.973-6.56 7.45-10.106 12.581-8.986.31.068.588.194.884.289.103.795.058 1.617-.168 2.268-.881 2.533-3.138 4.649-5.707 5.425-.002 0-1.612 11.497-.778 13.159z" fill="#1F1F89"/><path d="M49.598 375.057c-.78-.115-1.587.081-2.28.458-2.23 1.216-1.447 4.559.524 5.617.636.342 1.355.507 2.075.577.623.059 1.288.041 1.822-.286.515-.317.84-.889.956-1.481.117-.594.047-1.21-.083-1.8-.299-1.348-1.6-2.879-3.014-3.085z" fill="#AFC6F5"/><path d="M59.373 367.582c-1.42.529-2.002 2.481-1.3 4.359.702 1.879 2.422 2.973 3.841 2.444 1.42-.529 2.002-2.481 1.3-4.36-.702-1.878-2.422-2.972-3.841-2.443z" fill="#F7F5EF"/><path d="M70.842 340.97a3.2 3.2 0 0 0 3.202-3.198 3.2 3.2 0 0 0-3.202-3.198 3.2 3.2 0 0 0-3.201 3.198 3.2 3.2 0 0 0 3.201 3.198z" fill="#8E574A"/><path d="M82.682 359.226l-4.86 1.607a38.678 38.678 0 0 1-9.614 15.109l-9.096 8.827-11.2 7.555-8.318 30.823L65.62 425.6l.86-33.964 9.661-12.064a38.658 38.658 0 0 0 7.828-17.065l-1.286-3.281z" fill="#F7F5EF"/><path d="M95.02 282.394H58.75c-6.197 0-11.22 5.017-11.22 11.207v36.23c0 6.189 5.023 11.207 11.22 11.207h36.27c6.197 0 11.221-5.018 11.221-11.207v-36.23c-.002-6.19-5.025-11.207-11.22-11.207z" fill="#30CAFC"/><path d="M86.837 343.111a3.2 3.2 0 0 0 3.201-3.198 3.2 3.2 0 0 0-3.201-3.198 3.2 3.2 0 0 0-3.201 3.198 3.2 3.2 0 0 0 3.201 3.198z" fill="#AFC6F5"/><path d="M77.315 362.527l6.401 2.268 5.145-23.419-3.672-.835-7.874 21.986z" fill="#AFC6F5"/><path opacity=".5" d="M1.516 504.637h115.199" stroke="#0A5DE2" stroke-width="2" stroke-miterlimit="10" stroke-linecap="round"/><path d="M434.425 407.949l-20.132-120.961-1.495.249 20.132 120.961 1.495-.249zm-36.963-.005L377.33 286.983l-1.496.248 20.133 120.961 1.495-.248z" fill="#1F1F89"/><path d="M418.161 312.036h-37.285v1.514h37.285v-1.514zm2.641 16.151h-37.287v1.514h37.287v-1.514zm2.64 16.149h-37.285v1.514h37.285v-1.514zm2.638 16.149h-37.284v1.514h37.284v-1.514zm2.64 16.15h-37.285v1.514h37.285v-1.514zm2.641 16.149h-37.287v1.514h37.287v-1.514z" fill="#1F1F89"/><path d="M376.228 287.202l-1.495-.248-20.145 120.949 1.495.248 20.145-120.949zm36.975-.017l-1.495-.249-20.145 120.949 1.495.248 20.145-120.948z" fill="#3878FF"/><path d="M408.159 312.036h-37.286v1.514h37.286v-1.514zm-2.641 16.151h-37.285v1.514h37.285v-1.514zm-2.639 16.149h-37.285v1.514h37.285v-1.514zm-2.64 16.149h-37.286v1.514h37.286v-1.514zm-2.639 16.15h-37.286v1.514H397.6v-1.514zm-2.641 16.149h-37.285v1.514h37.285v-1.514z" fill="#3878FF"/><path d="M417.951 285.205h-45.474v4.543h45.474v-4.543z" fill="#0A5DE2"/><path d="M457.648 264.802l-4.452-45.735-5.724-48.912 4.452-.636L462.1 215.89l15.897 1.27 16.535-47.005 4.452.634-12.083 50.182.635 42.559-29.888 1.272z" fill="#F7F5EF"/><path d="M463.305 202.317c-1.202 4.383.694 11.416 5.082 12.616 4.389 1.201 9.607-3.886 10.81-8.27 1.202-4.383-1.381-8.91-5.771-10.109-4.387-1.201-8.919 1.379-10.121 5.763z" fill="#AFC6F5"/><path d="M469.172 199.787c-.897-.246-2.154-.86-2.633-1.705-.045-.08-.065-.155-.092-.232 1.951-1.406 4.478-1.98 6.979-1.297 4.388 1.2 6.971 5.726 5.77 10.109-.858 3.129-3.765 6.606-6.956 7.908.058-.883.273-1.758.499-2.618.91-3.466 1.922-6.904 3.035-10.309a44.148 44.148 0 0 1-6.602-1.856z" fill="#2B159B"/><path d="M474.299 206.488c.596-.435 1.408-.63 2.086-.341.157.067.304.159.424.28.327.327.423.827.384 1.287-.111 1.272-1.159 2.339-2.379 2.716-.347.108-.714.167-1.073.112-.359-.054-.708-.233-.917-.529-.765-1.092.62-2.901 1.475-3.525z" fill="#AFC6F5"/><path d="M487.536 263.53l-4.411 70.151h-4.859l-4.126-69.58-4.339.183-2.654 71.113-3.747-.087-5.752-70.508-.846-8.686 30.63.398.104 7.016z" fill="#3878FF"/><path d="M483.125 333.681l10.682 1.175-.386 1.653h-15.645l.49-2.828h4.859zm-15.978 1.716v1.992l-14.673.554v-1.833l10.926-.8 3.747.087z" fill="#3878FF"/><path d="M471.179 208.262c-2.672.291-4.797-2.401-7.463-2.739-.167-.021-.345-.031-.496.04-.197.092-.311.3-.411.493l-1.014 1.975c-.346.672-.694 1.355-.846 2.094-.182.885-.068 1.804.081 2.696.118.707.263 1.419.582 2.062.567 1.149 1.656 1.988 2.86 2.429 1.203.439 2.518.507 3.794.394.872-.078 1.749-.243 2.53-.635 1.729-.87 2.783-2.917 2.486-4.83-.073-.472-.222-.943-.17-1.418.05-.465.285-.886.515-1.293.261-.462 2.025-2.773.645-2.785-.419-.004-1.027.713-1.395.925-.524.303-1.091.527-1.698.592z" fill="#2B159B"/><path opacity=".4" d="M488.832 186.358h6.403l3.749-15.569-4.452-.634-5.7 16.203zm-36.908-16.839l-4.452.636 1.897 16.203h6.249l-3.694-16.839z" fill="#AFC6F5"/><path d="M556.296 120.065H408.037c-7.274 0-13.17 5.89-13.17 13.156v22.051c0 7.266 5.896 13.155 13.17 13.155h148.259c7.274 0 13.171-5.889 13.171-13.155v-22.051c0-7.266-5.897-13.156-13.171-13.156z" fill="#FFCF55"/><path opacity=".5" d="M409.259 338.09h157.644" stroke="#0A5DE2" stroke-width="2" stroke-miterlimit="10" stroke-linecap="round"/><path d="M449.137 171.425a3.813 3.813 0 0 0 3.815-3.811 3.813 3.813 0 0 0-3.815-3.811 3.814 3.814 0 0 0-3.816 3.811 3.814 3.814 0 0 0 3.816 3.811zm46.071 1.077a3.813 3.813 0 0 0 3.815-3.811 3.813 3.813 0 0 0-3.815-3.811 3.813 3.813 0 0 0-3.815 3.811 3.813 3.813 0 0 0 3.815 3.811zm-186.129 13.055a4.175 4.175 0 0 0 4.177-4.172 4.175 4.175 0 0 0-4.177-4.173 4.175 4.175 0 0 0-4.178 4.173 4.175 4.175 0 0 0 4.178 4.172z" fill="#AFC6F5"/><path d="M300.357 161.722l-35.725-6.266c-6.102-1.07-11.918 3.004-12.99 9.1l-6.272 35.683c-1.072 6.096 3.007 11.905 9.11 12.976l35.724 6.265c6.102 1.07 11.919-3.004 12.99-9.099l6.273-35.684c1.071-6.097-3.008-11.907-9.11-12.975z" fill="#FFCF55"/><path d="M127.457 364.073h26.274a1.514 1.514 0 0 0 1.111-2.544l-25.263-27.251-2.225 2.056 22.907 24.709h-22.804v3.03z" fill="#01ADFF"/><path d="M312.024 180.343l11.276 4.404 32.796 3.098-10.948 7.716-23.041-5.526-11.778-5.391 1.695-4.301z" fill="#EDB53A"/><path d="M343.057 187.845c5.079 0 9.198-4.113 9.198-9.187 0-5.074-4.119-9.187-9.198-9.187-5.08 0-9.198 4.113-9.198 9.187 0 5.074 4.118 9.187 9.198 9.187z" fill="#AFC6F5"/><path d="M386.076 213.363l-3.784 38.224 1.261 33.602h-13.036l-.7-2.503 8.935-1.19-4.766-29.753-4.3-36.999 16.39-1.381z" fill="url(#paint1_linear)"/><path d="M306.779 184.311c4.805 1.953 20.933 6.238 26.102 5.82l10.826-.873 11.191-2.947 24.577 12.034-13.098 18.133-22.394-18.607-13.233-.587c-5.44-.241-20.879-6.126-25.564-8.897l1.593-4.076z" fill="#FFCF55"/><path d="M353.064 173.03c-1.915-4.327-9.609-5.382-13.892-3.367-.258.121-.479.287-.719.431.07.72.274 1.433.605 1.96 1.284 2.05 3.694 3.453 6.109 3.621 0 0 .18.477.451 1.213.287-.315.604-.586.972-.73.662-.257 1.411-.248 2.096-.056 2.206.619 2.191 3.716.672 5.042-.491.428-1.089.718-1.707.924-.074.024-.155.031-.23.053-.2 2.975-.019 3.321.63 4.251 3.5-2.568 7.537-7.638 5.013-13.342z" fill="#1F1F89"/><path d="M426.203 208.288l-21.993 9.569-25.33-19.444-12.994 17.801 38.306 11.746 22.675-15.189 4.818 5.377 1.628-1.578-7.11-8.282z" fill="#01ADFF"/><path d="M304.228 189.833a4.176 4.176 0 0 0 4.178-4.173 4.175 4.175 0 0 0-4.178-4.172 4.175 4.175 0 0 0-4.177 4.172 4.175 4.175 0 0 0 4.177 4.173z" fill="#AFC6F5"/><path d="M126.104 78.56h29.658v297.768h-29.658V78.56zm26.626 3.028h-23.595V373.3h23.595V81.588z" fill="#01ADFF"/><path d="M159.821 360.391h-37.778v27.039h37.778v-27.039z" fill="#F7F5EF"/><path d="M127.457 252.167h26.274a1.515 1.515 0 0 0 1.111-2.544l-25.263-27.251-2.225 2.056 22.907 24.709h-22.804v3.03z" fill="#01ADFF"/><path d="M127.457 280.144h26.274a1.514 1.514 0 0 0 1.111-2.544l-25.263-27.25-2.225 2.056 22.907 24.71h-22.804v3.028z" fill="#01ADFF"/><path d="M127.457 308.121h26.274a1.514 1.514 0 0 0 1.111-2.544l-25.263-27.251-2.225 2.056 22.907 24.709h-22.804v3.03z" fill="#01ADFF"/><path d="M127.457 336.098h26.274a1.514 1.514 0 0 0 1.111-2.544l-25.263-27.252-2.225 2.056 22.907 24.71h-22.804v3.03zm0-111.234h26.274a1.515 1.515 0 0 0 1.111-2.544l-25.263-27.253-2.225 2.056 22.907 24.711h-22.804v3.03z" fill="#01ADFF"/><path d="M127.457 197.509h26.274a1.513 1.513 0 0 0 1.111-2.543l-25.263-27.253-2.225 2.056 22.907 24.712h-22.804v3.028z" fill="#01ADFF"/><path d="M127.457 170.205h26.274a1.514 1.514 0 0 0 1.111-2.544l-25.263-27.253-2.225 2.056 22.907 24.711h-22.804v3.03z" fill="#01ADFF"/><path d="M127.457 142.9h26.274a1.515 1.515 0 0 0 1.111-2.543l-25.263-27.254-2.225 2.057 22.907 24.712h-22.804v3.028z" fill="#01ADFF"/><path d="M127.457 115.594h26.274a1.515 1.515 0 0 0 1.111-2.544l-25.263-27.253-2.225 2.056 22.907 24.713h-22.804v3.028z" fill="#01ADFF"/><path d="M127.457 88.291h26.274a1.514 1.514 0 0 0 1.111-2.544l-25.263-27.253-2.225 2.056 22.907 24.713h-22.804v3.028z" fill="#01ADFF"/><path d="M174.233 48.347h-48.079v40.486h48.079V48.347zm-72.252 0h-48.08v23.255h48.08V48.347z" fill="#1F1F89"/><path d="M54.699 51.304h237.474c.837 0 1.516-.678 1.516-1.514s-.679-1.514-1.516-1.514H54.699c-.837 0-1.516.678-1.516 1.514s.68 1.514 1.516 1.514zm226.442 5.552h-1.516v98.414h1.516V56.856zM172.707 382.598h-63.548v11.898h63.548v-11.898z" fill="#01ADFF"/><path d="M150.017 50.907a.764.764 0 0 0 .537-.22l12.662-12.648h116.089l11.905 11.89a.76.76 0 0 0 1.072 0 .756.756 0 0 0 0-1.07l-12.348-12.334H162.59l-13.105 13.09a.756.756 0 0 0 .532 1.292zm-96.33 0a.758.758 0 0 0 .671-.405l12.672-24.18h30.731l11.916 23.415a.758.758 0 1 0 1.351-.686L98.691 24.808H66.112L53.017 49.799a.756.756 0 0 0 .67 1.108z" fill="#01ADFF"/><path d="M280.384 62.408a5.556 5.556 0 0 0 5.559-5.552 5.556 5.556 0 0 0-5.559-5.552 5.555 5.555 0 0 0-5.558 5.552 5.555 5.555 0 0 0 5.558 5.552z" fill="#1F1F89"/><path d="M247.522 38.027a.756.756 0 0 0 .221-1.48L135.524 2.367a.753.753 0 0 0-.515.027L81.821 24.817a.756.756 0 1 0 .59 1.394l52.933-22.315 111.957 34.098a.75.75 0 0 0 .221.033z" fill="#01ADFF"/><path d="M152.959 51.009a1.513 1.513 0 0 0 1.416-2.053l-17.67-46.443a1.51 1.51 0 0 0-1.541-.97 1.514 1.514 0 0 0-1.362 1.21l-9.134 45.296a1.516 1.516 0 0 0 1.187 1.783 1.523 1.523 0 0 0 1.786-1.185l8.097-40.153 15.805 41.54c.228.602.805.975 1.416.975z" fill="#01ADFF"/><path d="M135.288 6.102a3.052 3.052 0 0 0 3.054-3.051A3.052 3.052 0 0 0 135.288 0a3.052 3.052 0 0 0-3.054 3.05 3.052 3.052 0 0 0 3.054 3.052z" fill="#BCCCFD"/><path d="M263.5 51.051a.756.756 0 0 0 .476-.168l14.884-12.017v11.236a.757.757 0 0 0 1.515 0V37.28a.756.756 0 0 0-.432-.683.753.753 0 0 0-.803.095l-16.119 13.014a.755.755 0 0 0 .479 1.344z" fill="#01ADFF"/><path d="M249.108 51.051a.758.758 0 0 0 .476-.168l14.885-12.017v11.236a.757.757 0 0 0 1.515 0V37.28a.757.757 0 0 0-1.233-.588l-16.119 13.014a.756.756 0 0 0 .476 1.344z" fill="#01ADFF"/><path d="M234.714 51.051a.758.758 0 0 0 .476-.168l14.885-12.017v11.236a.757.757 0 0 0 1.515 0V37.28a.756.756 0 0 0-1.235-.588l-16.119 13.014a.755.755 0 0 0 .478 1.344z" fill="#01ADFF"/><path d="M220.321 51.051a.756.756 0 0 0 .476-.168l14.884-12.017v11.236a.757.757 0 0 0 1.515 0V37.28a.756.756 0 0 0-1.235-.588l-16.119 13.014a.755.755 0 0 0 .479 1.344z" fill="#01ADFF"/><path d="M205.927 51.051a.756.756 0 0 0 .476-.168l14.885-12.017v11.236a.758.758 0 0 0 1.516 0V37.28a.756.756 0 0 0-1.235-.588L205.45 49.707a.756.756 0 0 0 .477 1.344z" fill="#01ADFF"/><path d="M191.535 51.051a.758.758 0 0 0 .476-.168l14.885-12.017v11.236a.757.757 0 0 0 1.515 0V37.28a.756.756 0 0 0-1.235-.588l-16.119 13.014a.755.755 0 0 0 .478 1.344z" fill="#01ADFF"/><path d="M177.142 51.051a.756.756 0 0 0 .476-.168l14.885-12.017v11.236a.758.758 0 0 0 1.516 0V37.28a.756.756 0 0 0-1.235-.588l-16.119 13.014a.756.756 0 0 0 .477 1.344z" fill="#01ADFF"/><path d="M162.748 51.051a.756.756 0 0 0 .476-.168l14.885-12.017v11.236a.758.758 0 0 0 1.516 0V37.28a.756.756 0 0 0-.432-.683.753.753 0 0 0-.803.095l-16.119 13.014a.756.756 0 0 0 .477 1.344zm-85.089 0c.215 0 .429-.09.579-.268L97.57 27.995v22.107a.758.758 0 0 0 1.516 0v-24.17a.756.756 0 0 0-.497-.71.754.754 0 0 0-.84.22L77.081 49.805a.755.755 0 0 0 .578 1.246z" fill="#01ADFF"/><path d="M62.792 51.051a.76.76 0 0 0 .632-.339l14.729-22.263v21.653a.758.758 0 0 0 1.516 0v-24.17a.758.758 0 0 0-1.39-.418l-16.12 24.364a.758.758 0 0 0 .633 1.173z" fill="#01ADFF"/><path d="M280.383 162.055a4.77 4.77 0 0 0 4.772-4.767 4.77 4.77 0 0 0-4.772-4.766 4.77 4.77 0 0 0-4.772 4.766 4.77 4.77 0 0 0 4.772 4.767z" fill="#1F1F89"/><path opacity=".5" d="M81.853 395.624h115.199" stroke="#0A5DE2" stroke-width="2" stroke-miterlimit="10" stroke-linecap="round"/><path d="M561.389 444.58l-1.719-23.737 2.657-17.473 9.028-51.488-4.361-.623-9.964 45.416-15.572 1.245-16.193-46.038-4.361.622 11.835 49.148 4.152 18.788-.488 22.896 24.986 1.244z" fill="#FFCF55"/><path d="M539.933 381.12l-1.536 13.575 9.251.736 5.656-14.311h-13.371z" fill="#1F1F89"/><path d="M547.648 395.432c5.161 0 9.344-4.178 9.344-9.332 0-5.155-4.183-9.333-9.344-9.333-5.16 0-9.343 4.178-9.343 9.333 0 5.154 4.183 9.332 9.343 9.332z" fill="#F7F5EF"/><path d="M564.918 294.506h-36.272c-6.196 0-11.22 5.018-11.22 11.207v36.23c0 6.19 5.024 11.207 11.22 11.207h36.272c6.196 0 11.22-5.017 11.22-11.207v-36.23c-.002-6.189-5.024-11.207-11.22-11.207z" fill="#FFCF55"/><path d="M551.077 385.479c.183.088.394.171.582.098.19-.072.288-.275.411-.436.485-.631 1.546-.63 2.111-.07.566.561.622 1.518.231 2.211-.393.693-1.157 1.125-1.945 1.242a17.685 17.685 0 0 0-.631 5.694l3.851.283c.25.018.524.03.723-.123.184-.143.25-.39.3-.619.479-2.198.72-4.448.715-6.698-.004-2.191-.267-4.464-1.399-6.341-1.357-2.248-6.918-5.947-9.633-3.873-2.992 2.283 2.615 7.639 4.684 8.632z" fill="#1F1F89"/><path d="M543.337 382.267c-1.581 1.546-3.631 2.726-5.841 2.821-.102-2.466.983-4.954 2.858-6.56 1.055-.903 4.598-2.903 6.048-1.943 1.504.993-1.994 4.636-3.065 5.682z" fill="#1F1F89"/><path d="M560.479 427.742l-23.82-1.111-18.326 81.983-8.502-5.17L520.182 516l24.4-67.577-.37 30.649 16.545 21.896 1.055 7.902.439 3.362 2.949-.35.536-12.046-12.807-20.799 9.037-34.434-1.487-16.861z" fill="#0A5DE2"/><path d="M561.985 374.095l5.158 1.806 4.212-24.019-4.361-.623-5.009 22.836zm-30.034-3.204l-6.045 2.383-5.002-20.77 4.361-.622 6.686 19.009zm20.207 26.173l-4.472 7.93-2.251-7.392 6.723-.538z" fill="#F7F5EF"/><path d="M522.691 353.125a3.734 3.734 0 0 0 3.736-3.732 3.735 3.735 0 0 0-3.736-3.733 3.735 3.735 0 0 0-3.737 3.733 3.735 3.735 0 0 0 3.737 3.732zm46.914.698a3.734 3.734 0 0 0 3.736-3.732 3.735 3.735 0 0 0-3.736-3.733 3.735 3.735 0 0 0-3.737 3.733 3.735 3.735 0 0 0 3.737 3.732z" fill="#F7F5EF"/><path d="M537.873 467.005l5.754-15.936.536-5.061-7.504-19.379-7.96 35.611c3.406 1.82 6.73 3.528 9.174 4.765z" fill="url(#paint2_linear)"/><path d="M546.649 321.51c4.245 0 7.685-3.437 7.685-7.677 0-4.239-3.44-7.676-7.685-7.676-4.244 0-7.685 3.437-7.685 7.676 0 4.24 3.441 7.677 7.685 7.677zm15.101 15.608c-.138-8.006-6.668-14.456-14.717-14.456s-14.579 6.45-14.717 14.456h29.434z" fill="#F7F5EF"/><path opacity=".5" d="M488.285 514.486h115.199M333.672 407.745h115.199" stroke="#0A5DE2" stroke-width="2" stroke-miterlimit="10" stroke-linecap="round"/><path d="M214.769 220.317h-36.272c-6.196 0-11.22 5.018-11.22 11.207v36.23c0 6.19 5.024 11.207 11.22 11.207h36.272c6.196 0 11.22-5.017 11.22-11.207v-36.23c-.002-6.189-5.025-11.207-11.22-11.207z" fill="#02AEFF"/><path d="M181.336 374.126l-4.42-45.419-5.684-48.572 4.42-.632 10.106 46.051 15.788 1.261 16.42-46.68 4.421.631-11.999 49.834.631 42.265-29.683 1.261z" fill="#F7F5EF"/><path d="M174.389 281.396a3.788 3.788 0 0 0 3.79-3.785 3.787 3.787 0 0 0-3.79-3.785 3.787 3.787 0 0 0-3.789 3.785 3.788 3.788 0 0 0 3.789 3.785zm44.209 1.263a3.788 3.788 0 0 0 3.789-3.785 3.788 3.788 0 0 0-3.789-3.786 3.788 3.788 0 0 0-3.79 3.786 3.788 3.788 0 0 0 3.79 3.785zm-24.587 38.72c5.323 0 9.638-4.309 9.638-9.626 0-5.317-4.315-9.626-9.638-9.626-5.322 0-9.637 4.309-9.637 9.626 0 5.317 4.315 9.626 9.637 9.626z" fill="#AFC6F5"/><path d="M194.011 322.893c5.323 0 9.638-4.309 9.638-9.626 0-5.316-4.315-9.626-9.638-9.626-5.322 0-9.637 4.31-9.637 9.626 0 5.317 4.315 9.626 9.637 9.626z" fill="#1F1F89"/><path d="M211.019 372.865l-4.381 69.665h-4.826l-4.097-69.1-4.308.183-2.636 70.62-3.722-.086-5.713-70.021-.839-8.625 30.417.395.105 6.969z" fill="#3878FF"/><path d="M206.638 442.53l10.607 1.167-.383 1.642h-15.537l.487-2.809h4.826zm-15.867 1.703v1.979l-14.572.55v-1.82l10.85-.795 3.722.086z" fill="#3878FF"/><path opacity=".5" d="M159.357 446.353h84.882" stroke="#0A5DE2" stroke-width="2" stroke-miterlimit="10" stroke-linecap="round"/><path d="M325.031 463.067a1.363 1.363 0 0 1-.071.427 1.51 1.51 0 0 1-.117.278c-.011.02-.02.041-.03.063a2.46 2.46 0 0 1-.228.32c-.02.025-.042.047-.063.072a3.698 3.698 0 0 1-.295.29c-.013.012-.025.026-.04.038a4.93 4.93 0 0 1-.413.308l-.129.083a6.976 6.976 0 0 1-.391.228c-.054.029-.106.06-.162.088a8.908 8.908 0 0 1-.468.221l-.185.085c-.237.1-.488.195-.757.289l-25.844 8.933c-.242.084-.521.146-.779.221-.38.111-.758.223-1.166.314-.492.109-1.005.201-1.529.283-.32.048-.649.085-.976.124-.407.047-.811.098-1.227.13-.083.006-.168.014-.253.018a32.59 32.59 0 0 1-2.008.075h-.046a31.192 31.192 0 0 1-2.102-.061l-.024-.002a28.622 28.622 0 0 1-2.039-.199l-.049-.008c-.648-.089-1.274-.2-1.872-.331l-.059-.013a16.808 16.808 0 0 1-1.729-.481l-25.452-8.707c-.142-.049-.268-.102-.402-.152-.118-.045-.245-.089-.357-.136-.12-.05-.223-.105-.335-.156-.106-.05-.22-.099-.319-.148-.095-.05-.175-.103-.265-.155-.097-.056-.202-.11-.288-.168-.079-.051-.141-.104-.212-.157-.08-.059-.168-.119-.24-.178-.069-.059-.122-.119-.183-.18-.056-.056-.121-.11-.17-.166-.062-.073-.107-.147-.156-.22-.03-.045-.07-.089-.095-.135-.034-.059-.05-.119-.076-.178a1.436 1.436 0 0 1-.131-.547l.091 11.372c.002.184.053.365.131.547.026.059.042.12.076.179.025.045.065.089.095.134.05.074.094.147.156.22.043.05.1.097.147.145.067.068.128.136.206.202.05.04.112.081.166.122.092.071.181.143.288.212.065.043.145.083.215.126.11.065.215.133.338.197.07.036.153.071.227.106.138.066.273.134.426.198.093.039.2.074.297.114.149.057.29.116.45.171.003.001.008.001.011.003l25.452 8.707a16.541 16.541 0 0 0 1.675.469l.056.013.054.012c.202.044.404.087.611.127a24.222 24.222 0 0 0 1.264.204l.049.008a22.308 22.308 0 0 0 2.037.198l.024.002.028.001a32.332 32.332 0 0 0 1.422.055c.218.003.438.004.656.003h.088a33.991 33.991 0 0 0 1.638-.052c.108-.006.214-.016.322-.024l.256-.018c.158-.012.317-.021.473-.035.256-.023.499-.065.75-.095.331-.038.658-.075.979-.125.093-.013.193-.021.284-.036.376-.062.743-.132 1.102-.207.05-.011.092-.028.142-.038.413-.091.79-.205 1.173-.315.199-.058.42-.1.61-.164l.164-.054 25.844-8.933c.256-.089.499-.18.724-.274l.031-.014c.068-.029.127-.059.192-.088.131-.057.266-.115.385-.175l.078-.041c.057-.029.109-.059.165-.089.076-.041.156-.082.227-.123.058-.035.108-.07.162-.105l.131-.083c.027-.018.059-.036.085-.054.11-.078.213-.156.309-.237l.017-.015c.015-.012.027-.025.042-.039.068-.059.135-.118.195-.179.037-.036.066-.074.099-.11l.062-.071c.015-.019.033-.035.047-.053.062-.079.118-.159.165-.24.006-.009.009-.019.016-.028.012-.022.019-.041.03-.062.027-.052.057-.103.077-.156.017-.041.026-.082.038-.125l.026-.081c.004-.017.012-.034.015-.052.02-.091.029-.181.03-.272v-.023l-.089-11.372z" fill="#EDB53A"/><path d="M321.813 460.396c4.346 1.487 4.282 3.932-.132 5.457l-25.844 8.933c-4.413 1.526-11.513 1.556-15.859.069l-25.451-8.707c-4.346-1.487-4.302-3.932.112-5.457l25.844-8.933c4.413-1.526 11.531-1.556 15.878-.069l25.452 8.707z" fill="#FFCF55"/><path d="M425.228 453.319c.002.115-.017.23-.045.346l-.026.081a1.518 1.518 0 0 1-.117.279l-.03.062c-.062.107-.14.215-.228.321-.019.024-.042.047-.063.071a3.861 3.861 0 0 1-.294.291c-.014.012-.026.026-.041.038a4.926 4.926 0 0 1-.541.39 7.353 7.353 0 0 1-.391.229c-.055.029-.107.059-.163.088a9.94 9.94 0 0 1-.47.221c-.062.027-.119.057-.184.085-.237.1-.489.195-.757.289l-25.844 8.933c-.243.083-.522.145-.779.221-.381.11-.758.222-1.166.313-.493.109-1.005.202-1.529.283-.32.049-.649.085-.977.124-.406.047-.809.099-1.226.131-.085.006-.168.013-.253.018-.664.044-1.335.071-2.008.074h-.046a31.173 31.173 0 0 1-2.102-.061l-.025-.001a29.182 29.182 0 0 1-2.038-.2l-.049-.007c-.647-.09-1.275-.2-1.872-.332l-.059-.012a16.805 16.805 0 0 1-1.729-.482l-25.452-8.707c-.143-.048-.269-.101-.402-.151-.118-.046-.245-.09-.358-.137-.119-.05-.222-.104-.335-.156-.106-.05-.219-.098-.318-.148-.095-.05-.176-.103-.265-.154-.097-.056-.202-.111-.288-.169-.079-.051-.141-.104-.212-.157-.081-.059-.169-.118-.24-.177-.07-.059-.123-.12-.183-.18-.056-.056-.122-.111-.17-.167-.062-.072-.108-.147-.156-.219-.031-.046-.07-.09-.096-.135-.033-.059-.05-.12-.076-.179a1.443 1.443 0 0 1-.13-.546l.091 11.372c.002.183.053.365.13.546.026.061.043.12.076.179.026.045.065.089.096.135.05.074.094.147.156.219.042.05.1.097.148.146.067.068.128.136.207.201.048.041.112.082.165.123.092.071.182.142.288.212.065.042.145.083.215.125.111.065.215.132.338.197.07.036.153.071.227.106.138.067.273.135.426.198.093.04.2.075.297.114.147.058.29.115.449.171a.023.023 0 0 0 .011.003l25.451 8.708c.287.098.584.189.893.274.253.069.516.134.782.195l.057.012.054.012c.202.044.403.088.611.127a20.687 20.687 0 0 0 1.264.205l.049.007.056.008a27.393 27.393 0 0 0 1.346.145c.21.018.423.033.635.046l.024.001.027.002a40.72 40.72 0 0 0 1.422.054c.218.003.438.005.657.003h.087c.261-.001.522-.006.783-.013.286-.01.573-.022.856-.038.108-.006.214-.017.321-.025l.255-.018c.158-.012.317-.021.473-.035.256-.022.499-.065.75-.095.331-.039.658-.074.979-.124.093-.014.191-.021.284-.036.376-.062.743-.132 1.102-.208.05-.01.092-.027.142-.038.413-.091.792-.204 1.174-.315.198-.057.42-.1.609-.163l.164-.055 25.844-8.933c.256-.089.497-.18.725-.274l.03-.013c.068-.029.127-.059.192-.088.131-.058.266-.115.385-.176.028-.013.05-.027.078-.041.057-.028.109-.059.165-.089.076-.041.156-.082.227-.123.058-.034.108-.069.163-.104l.13-.083c.027-.019.059-.037.085-.055.11-.077.213-.156.309-.236l.017-.015c.015-.012.027-.026.042-.04.068-.059.137-.118.196-.178.036-.037.065-.074.098-.111.021-.024.043-.047.062-.071.015-.018.034-.035.047-.053.062-.079.119-.159.166-.239.006-.009.009-.02.015-.029.012-.021.019-.041.032-.062.027-.051.057-.103.077-.156.016-.041.026-.082.038-.124a1.28 1.28 0 0 0 .025-.082c.005-.016.013-.033.016-.051.019-.091.028-.182.03-.273v-.023l-.088-11.372z" fill="#01ADFF"/><path d="M422.008 450.649c4.346 1.486 4.283 3.932-.13 5.456l-25.844 8.933c-4.413 1.525-11.513 1.557-15.859.07l-25.451-8.708c-4.346-1.486-4.302-3.932.112-5.456l25.844-8.933c4.413-1.526 11.531-1.557 15.877-.07l25.451 8.708z" fill="#34DBFF"/><defs><linearGradient id="paint0_linear" x1="55.227" y1="434.718" x2="57.554" y2="475.32" gradientUnits="userSpaceOnUse"><stop offset=".003" stop-color="#241084"/><stop offset=".99" stop-color="#0A5DE2"/></linearGradient><linearGradient id="paint1_linear" x1="379.188" y1="234.181" x2="372.578" y2="274.902" gradientUnits="userSpaceOnUse"><stop offset=".003" stop-color="#241084"/><stop offset=".99" stop-color="#0A5DE2"/></linearGradient><linearGradient id="paint2_linear" x1="539.732" y1="440.66" x2="526.751" y2="473.148" gradientUnits="userSpaceOnUse"><stop stop-color="#241084" stop-opacity=".8"/><stop offset=".99" stop-color="#0A5DE2" stop-opacity="0"/></linearGradient></defs></svg>