<svg width="214" height="122" fill="none" xmlns="http://www.w3.org/2000/svg"><path d="M37.949 77.996v5.354c0 2.357-1.897 4.284-4.217 4.284H4.217C1.897 87.634 0 85.707 0 83.35v-5.354c0 2.356 1.897 4.284 4.217 4.284h29.515c2.32 0 4.217-1.928 4.217-4.284z" fill="#38454F"/><path fill="#556080" d="M4.217 31.012h30.118v47.587H4.217z"/><path d="M5.421 36.421a3 3 0 0 1 3-3h21.107a3 3 0 0 1 3 3v2.433a3 3 0 0 1-3 3H8.42a3 3 0 0 1-3-3v-2.433z" fill="#8697CB"/><path d="M37.949 64.895v13.703a4.229 4.229 0 0 1-4.217 4.217H4.217A4.229 4.229 0 0 1 0 78.598V32.217A4.229 4.229 0 0 1 4.217 28h29.515a4.229 4.229 0 0 1 4.217 4.217v32.678zm-5.27 11.595v-4.216h-6.326v4.216h6.325zm0-8.433v-4.216h-6.326v4.216h6.325zm0-8.433v-4.217h-6.326v4.217h6.325zm0-8.433v-4.217h-6.326v4.217h6.325zm-3-9.487a3 3 0 0 0 3-3V36.27a3 3 0 0 0-3-3H8.27a3 3 0 0 0-3 3v2.433a3 3 0 0 0 3 3h21.407zM22.136 76.49v-4.216h-6.325v4.216h6.325zm0-8.433v-4.216h-6.325v4.216h6.325zm0-8.433v-4.217h-6.325v4.217h6.325zm-3.163-8.433a3.162 3.162 0 0 0 3.163-3.163v-1.054H17.92a2.108 2.108 0 1 0 0 4.217h1.054zm-7.379 25.3v-4.217H5.271v4.216h6.324zm0-8.434v-4.216H5.271v4.216h6.324zm0-8.433v-4.217H5.271v4.217h6.324zm-2.108-8.433a2.108 2.108 0 1 0 0-4.217H7.38a2.108 2.108 0 0 0 0 4.217h2.108z" fill="#556080"/><path d="M5.421 74.683c0-1.164.944-2.108 2.109-2.108h1.807a2.108 2.108 0 1 1 0 4.216H7.53a2.108 2.108 0 0 1-2.109-2.108z" fill="#E86869"/><path d="M5.421 66.25c0-1.164.944-2.108 2.109-2.108h1.807a2.108 2.108 0 1 1 0 4.216H7.53a2.108 2.108 0 0 1-2.11-2.108zm10.24 0c0-1.164.944-2.108 2.109-2.108h2.41a2.108 2.108 0 1 1 0 4.216h-2.41a2.108 2.108 0 0 1-2.109-2.108z" fill="#E6E9ED"/><path d="M15.661 74.683c0-1.164.944-2.108 2.109-2.108h2.41a2.108 2.108 0 1 1 0 4.216h-2.41a2.108 2.108 0 0 1-2.109-2.108z" fill="#FFCF56"/><path d="M26.504 74.683c0-1.164.944-2.108 2.108-2.108h1.807a2.108 2.108 0 0 1 0 4.216h-1.807a2.108 2.108 0 0 1-2.108-2.108z" fill="#26B999"/><path d="M26.504 66.25c0-1.164.944-2.108 2.108-2.108h1.807a2.108 2.108 0 0 1 0 4.216h-1.807a2.108 2.108 0 0 1-2.108-2.108zm0-8.433c0-1.164.944-2.108 2.108-2.108h1.807a2.108 2.108 0 0 1 0 4.216h-1.807a2.108 2.108 0 0 1-2.108-2.108zm0-8.433c0-1.165.944-2.108 2.108-2.108h1.807a2.108 2.108 0 0 1 0 4.216h-1.807a2.108 2.108 0 0 1-2.108-2.108zm-10.843 8.433c0-1.164.944-2.108 2.109-2.108h2.41a2.108 2.108 0 1 1 0 4.216h-2.41a2.108 2.108 0 0 1-2.109-2.108zm0-8.433c0-1.165.944-2.108 2.109-2.108h2.41a2.108 2.108 0 1 1 0 4.216h-2.41a2.108 2.108 0 0 1-2.109-2.108zm-10.24 8.433c0-1.164.944-2.108 2.109-2.108h1.807a2.108 2.108 0 1 1 0 4.216H7.53a2.108 2.108 0 0 1-2.109-2.108zm0-8.433c0-1.165.944-2.108 2.109-2.108h1.807a2.108 2.108 0 1 1 0 4.216H7.53a2.108 2.108 0 0 1-2.109-2.108z" fill="#E6E9ED"/><path d="M77.354 37.354a.5.5 0 0 0 0-.708l-3.182-3.181a.5.5 0 1 0-.707.707L76.293 37l-2.829 2.828a.5.5 0 1 0 .708.707l3.182-3.181zM45 37.5h32v-1H45v1zm121.354-.146a.5.5 0 0 0 0-.708l-3.182-3.181a.501.501 0 0 0-.708.707L165.293 37l-2.829 2.828a.5.5 0 0 0 .708.707l3.182-3.181zM134 37.5h32v-1h-32v1zm-.354 40.854a.5.5 0 0 1 0-.708l3.182-3.181a.501.501 0 0 1 .708.707L134.707 78l2.829 2.828a.5.5 0 0 1-.708.707l-3.182-3.181zM166 78.5h-32v-1h32v1zm-121.354-.146a.5.5 0 0 1 0-.708l3.182-3.181a.5.5 0 1 1 .707.707L45.707 78l2.828 2.828a.5.5 0 1 1-.707.707l-3.182-3.181zM77 78.5H45v-1h32v1zm136.949-.504v5.354c0 2.357-1.897 4.284-4.217 4.284h-29.515c-2.32 0-4.217-1.927-4.217-4.284v-5.354c0 2.356 1.897 4.284 4.217 4.284h29.515c2.32 0 4.217-1.928 4.217-4.284z" fill="#38454F"/><path fill="#556080" d="M180.217 31.012h30.118v47.587h-30.118z"/><path d="M181.421 36.421a3 3 0 0 1 3-3h21.107a3 3 0 0 1 3 3v2.433a3 3 0 0 1-3 3h-21.107a3 3 0 0 1-3-3v-2.433z" fill="#8697CB"/><path d="M213.949 64.895v13.703a4.229 4.229 0 0 1-4.217 4.217h-29.515A4.229 4.229 0 0 1 176 78.598V32.217A4.229 4.229 0 0 1 180.217 28h29.515a4.229 4.229 0 0 1 4.217 4.217v32.678zm-5.271 11.595v-4.216h-6.325v4.216h6.325zm0-8.433v-4.216h-6.325v4.216h6.325zm0-8.433v-4.217h-6.325v4.217h6.325zm0-8.433v-4.217h-6.325v4.217h6.325zm-3-9.487a3 3 0 0 0 3-3V36.27a3 3 0 0 0-3-3h-21.407a3 3 0 0 0-3 3v2.433a3 3 0 0 0 3 3h21.407zm-7.541 34.786v-4.216h-6.325v4.216h6.325zm0-8.433v-4.216h-6.325v4.216h6.325zm0-8.433v-4.217h-6.325v4.217h6.325zm-3.163-8.433a3.163 3.163 0 0 0 3.163-3.163v-1.054h-4.217a2.108 2.108 0 0 0 0 4.217h1.054zm-7.379 25.3v-4.217h-6.324v4.216h6.324zm0-8.434v-4.216h-6.324v4.216h6.324zm0-8.433v-4.217h-6.324v4.217h6.324zm-2.108-8.433a2.108 2.108 0 1 0 0-4.217h-2.108a2.108 2.108 0 0 0 0 4.217h2.108z" fill="#556080"/><path d="M181.421 74.683c0-1.164.944-2.108 2.109-2.108h1.807a2.108 2.108 0 0 1 0 4.216h-1.807a2.108 2.108 0 0 1-2.109-2.108z" fill="#E86869"/><path d="M181.421 66.25c0-1.164.944-2.108 2.109-2.108h1.807a2.108 2.108 0 0 1 0 4.216h-1.807a2.108 2.108 0 0 1-2.109-2.108zm10.24 0c0-1.164.944-2.108 2.109-2.108h2.409a2.108 2.108 0 0 1 0 4.216h-2.409a2.108 2.108 0 0 1-2.109-2.108z" fill="#E6E9ED"/><path d="M191.661 74.683c0-1.164.944-2.108 2.109-2.108h2.409a2.108 2.108 0 0 1 0 4.216h-2.409a2.108 2.108 0 0 1-2.109-2.108z" fill="#FFCF56"/><path d="M202.504 74.683c0-1.164.944-2.108 2.108-2.108h1.807a2.108 2.108 0 1 1 0 4.216h-1.807a2.108 2.108 0 0 1-2.108-2.108z" fill="#26B999"/><path d="M202.504 66.25c0-1.164.944-2.108 2.108-2.108h1.807a2.108 2.108 0 1 1 0 4.216h-1.807a2.108 2.108 0 0 1-2.108-2.108zm0-8.433c0-1.164.944-2.108 2.108-2.108h1.807a2.108 2.108 0 1 1 0 4.216h-1.807a2.108 2.108 0 0 1-2.108-2.108zm0-8.433c0-1.165.944-2.108 2.108-2.108h1.807a2.108 2.108 0 1 1 0 4.216h-1.807a2.108 2.108 0 0 1-2.108-2.108zm-10.843 8.433c0-1.164.944-2.108 2.109-2.108h2.409a2.108 2.108 0 0 1 0 4.216h-2.409a2.108 2.108 0 0 1-2.109-2.108zm0-8.433c0-1.165.944-2.108 2.109-2.108h2.409a2.108 2.108 0 0 1 0 4.216h-2.409a2.108 2.108 0 0 1-2.109-2.108zm-10.24 8.433c0-1.164.944-2.108 2.109-2.108h1.807a2.108 2.108 0 0 1 0 4.216h-1.807a2.108 2.108 0 0 1-2.109-2.108zm0-8.433c0-1.165.944-2.108 2.109-2.108h1.807a2.108 2.108 0 0 1 0 4.216h-1.807a2.108 2.108 0 0 1-2.109-2.108z" fill="#E6E9ED"/><path d="M117.392 104.865h-23.65a5.608 5.608 0 0 1-5.607-5.608v-23.65A5.608 5.608 0 0 1 93.743 70h23.649A5.608 5.608 0 0 1 123 75.608v23.65a5.608 5.608 0 0 1-5.608 5.607z" fill="#BFC9D6"/><path d="M118.84 111.135H92.295A6.295 6.295 0 0 1 86 104.84V78.295A6.295 6.295 0 0 1 92.295 72h26.545a6.295 6.295 0 0 1 6.295 6.295v26.545a6.296 6.296 0 0 1-6.295 6.295z" fill="#D7DCE2"/><path d="M119.82 115.965H91.355a6.75 6.75 0 0 1-6.75-6.75V80.75a6.75 6.75 0 0 1 6.75-6.75h28.465a6.75 6.75 0 0 1 6.75 6.75v28.465a6.75 6.75 0 0 1-6.75 6.75z" fill="#E6E9ED"/><rect x="89" y="82" width="20" height="2" rx="1" fill="#D7DCE2"/><rect x="89" y="88" width="14" height="2" rx="1" fill="#D7DCE2"/><rect x="89" y="94" width="14" height="2" rx="1" fill="#D7DCE2"/><rect x="89" y="100" width="14" height="2" rx="1" fill="#D7DCE2"/><path d="M115 109.259a9.055 9.055 0 0 1-6-2.259v15l6-5.88 6 5.88v-15a9.055 9.055 0 0 1-6 2.259z" fill="#556080"/><path d="M124 101a9 9 0 0 1-9 9 9 9 0 0 1-9-9 9 9 0 0 1 9-9 9 9 0 0 1 9 9z" fill="#FFCF56"/><path d="M120 101a5 5 0 1 1-10.001-.001A5 5 0 0 1 120 101z" fill="#EDB53A"/><path d="M120.215 41.965H91.75a6.75 6.75 0 0 1-6.75-6.75V6.75A6.75 6.75 0 0 1 91.75 0h28.465a6.75 6.75 0 0 1 6.75 6.75v28.465a6.75 6.75 0 0 1-6.75 6.75z" fill="#E6E9ED"/><rect x="90" y="14" width="31" height="2" rx="1" fill="#D7DCE2"/><rect x="90" y="20" width="20" height="2" rx="1" fill="#D7DCE2"/><rect x="90" y="26" width="20" height="2" rx="1" fill="#D7DCE2"/><rect x="112" y="26" width="9" height="2" rx="1" fill="#D7DCE2"/><rect x="90" y="32" width="31" height="2" rx="1" fill="#D7DCE2"/><rect x="90" y="8" width="31" height="2" rx="1" fill="#D7DCE2"/><g clip-path="url(#clip0)"><path d="M21.263 33.554a5.109 5.109 0 0 1-1.177-2.86 10.028 10.028 0 0 1-2.535 3.211l-7.443 6.206a2.086 2.086 0 0 0-.27 2.968 2.086 2.086 0 0 0 2.968.269l7.476-6.233a10.03 10.03 0 0 1 3.614-1.916c-.992-.27-1.931-.804-2.633-1.645z" fill="#C3C7CB"/><path d="M30.261 29.344l-3.01 2.51c-.129.107-.372.145-.512.043a8.048 8.048 0 0 1-2.86-3.431c-.043-.184.005-.389.135-.497l3.01-2.509c-1.652-.598-3.658-.242-5.115.972-2.136 1.781-2.427 4.986-.646 7.122 1.781 2.136 4.986 2.427 7.122.646 1.456-1.214 2.168-3.124 1.876-4.856zm-17.1 10.416l-1.08-1.294-.646.54 1.079 1.294c.162.194.4.216.593.054.195-.162.216-.4.054-.594zm-1.348 1.673c.194-.162.216-.4.054-.594l-1.08-1.294-.647.54 1.08 1.294c.161.194.399.216.593.054z" fill="#E0E0E0"/></g><defs><clipPath id="clip0"><path fill="#fff" transform="rotate(50.182 -8.819 31.215)" d="M0 0h24.482v24.482H0z"/></clipPath></defs></svg>