<svg width="183" height="184" fill="none" xmlns="http://www.w3.org/2000/svg"><path d="M68.79 65.542h45.121c2.07 0 3.749 1.7 3.749 3.797v45.708c0 2.097-1.679 3.798-3.749 3.798H68.789c-2.07 0-3.748-1.7-3.748-3.798V69.339c0-2.097 1.678-3.797 3.748-3.797z" fill="#556080"/><path d="M113.101 65.542h-6.157l-31.188 53.303h37.345c2.518 0 4.559-2.068 4.559-4.618V70.16c0-2.55-2.041-4.618-4.559-4.618z" fill="#38454F"/><path d="M101.185 82.23h-19.67v19.927h19.67V82.23z" fill="#E6E9ED"/><path d="M101.185 102.156V82.23H97.18l-11.66 19.926h15.665z" fill="#BFC9D6"/><path d="M74.423 69.826a1.135 1.135 0 0 1-1.128-1.142V54.143c0-.631.505-1.143 1.128-1.143.623 0 1.128.512 1.128 1.143v14.54c0 .632-.505 1.143-1.128 1.143zm8.538 0a1.135 1.135 0 0 1-1.127-1.142V54.143c0-.631.504-1.143 1.127-1.143s1.128.512 1.128 1.143v14.54c0 .632-.505 1.143-1.128 1.143zm8.539 0a1.135 1.135 0 0 1-1.128-1.142V54.143c0-.631.505-1.143 1.128-1.143.623 0 1.128.512 1.128 1.143v14.54c0 .632-.505 1.143-1.128 1.143zm8.539 0a1.135 1.135 0 0 1-1.128-1.142V54.143c0-.631.505-1.143 1.128-1.143.623 0 1.128.512 1.128 1.143v14.54c0 .632-.505 1.143-1.128 1.143zm8.538 0a1.135 1.135 0 0 1-1.128-1.142V54.143c0-.631.505-1.143 1.128-1.143.623 0 1.128.512 1.128 1.143v14.54c0 .632-.505 1.143-1.128 1.143zM74.423 131a1.136 1.136 0 0 1-1.128-1.143v-14.541c0-.631.505-1.142 1.128-1.142.623 0 1.128.511 1.128 1.142v14.541c0 .631-.505 1.143-1.128 1.143zm8.538 0a1.136 1.136 0 0 1-1.127-1.143v-14.541c0-.631.504-1.142 1.127-1.142s1.128.511 1.128 1.142v14.541c0 .631-.505 1.143-1.128 1.143zm8.539 0a1.136 1.136 0 0 1-1.128-1.143v-14.541c0-.631.505-1.142 1.128-1.142.623 0 1.128.511 1.128 1.142v14.541c0 .631-.505 1.143-1.128 1.143zm8.539 0a1.136 1.136 0 0 1-1.128-1.143v-14.541c0-.631.505-1.142 1.128-1.142.623 0 1.128.511 1.128 1.142v14.541c0 .631-.505 1.143-1.128 1.143zm8.538 0a1.136 1.136 0 0 1-1.128-1.143v-14.541c0-.631.505-1.142 1.128-1.142.623 0 1.128.511 1.128 1.142v14.541c0 .631-.505 1.143-1.128 1.143zm20.295-55.156h-14.355a1.135 1.135 0 0 1-1.128-1.143c0-.631.505-1.143 1.128-1.143h14.355c.623 0 1.128.512 1.128 1.143 0 .63-.505 1.143-1.128 1.143zm0 8.649h-14.355a1.135 1.135 0 0 1-1.128-1.142c0-.631.505-1.143 1.128-1.143h14.355c.623 0 1.128.512 1.128 1.143 0 .63-.505 1.142-1.128 1.142zm0 8.65h-14.355A1.135 1.135 0 0 1 113.389 92c0-.631.505-1.143 1.128-1.143h14.355c.623 0 1.128.512 1.128 1.143s-.505 1.143-1.128 1.143zm0 8.649h-14.355a1.135 1.135 0 0 1-1.128-1.142c0-.631.505-1.143 1.128-1.143h14.355c.623 0 1.128.512 1.128 1.143s-.505 1.142-1.128 1.142zm0 8.65h-14.355a1.136 1.136 0 0 1-1.128-1.143c0-.631.505-1.143 1.128-1.143h14.355c.623 0 1.128.512 1.128 1.143s-.505 1.143-1.128 1.143zM68.483 75.844H54.128A1.135 1.135 0 0 1 53 74.7c0-.631.505-1.143 1.128-1.143h14.355c.623 0 1.128.512 1.128 1.143 0 .63-.505 1.143-1.128 1.143zm0 8.649H54.128A1.135 1.135 0 0 1 53 83.351c0-.631.505-1.143 1.128-1.143h14.355c.623 0 1.128.512 1.128 1.143 0 .63-.505 1.142-1.128 1.142zm0 8.65H54.128A1.135 1.135 0 0 1 53 92c0-.631.505-1.143 1.128-1.143h14.355c.623 0 1.128.512 1.128 1.143s-.505 1.143-1.128 1.143zm0 8.649H54.128A1.135 1.135 0 0 1 53 100.65c0-.631.505-1.143 1.128-1.143h14.355c.623 0 1.128.512 1.128 1.143s-.505 1.142-1.128 1.142zm0 8.65H54.128A1.136 1.136 0 0 1 53 109.299c0-.631.505-1.143 1.128-1.143h14.355c.623 0 1.128.512 1.128 1.143s-.505 1.143-1.128 1.143z" fill="#E6E9ED"/><path d="M67.776 0h45.448C115.31 0 117 1.722 117 3.847v46.306c0 2.125-1.69 3.847-3.776 3.847H67.776C65.69 54 64 52.278 64 50.153V3.847C64 1.722 65.69 0 67.776 0zm65.071 66h46.306c2.125 0 3.847 1.69 3.847 3.776v45.448c0 2.085-1.722 3.776-3.847 3.776h-46.306c-2.125 0-3.847-1.69-3.847-3.776V69.776c0-2.085 1.722-3.776 3.847-3.776zm-129 0h46.306C52.278 66 54 67.69 54 69.776v45.448c0 2.085-1.722 3.776-3.847 3.776H3.847C1.722 119 0 117.31 0 115.224V69.776C0 67.69 1.722 66 3.847 66zm63.929 64h45.448c2.086 0 3.776 1.722 3.776 3.847v46.306c0 2.125-1.69 3.847-3.776 3.847H67.776C65.69 184 64 182.278 64 180.153v-46.306c0-2.125 1.69-3.847 3.776-3.847z" fill="#DCE1E6"/><path d="M148.412 93.22h.498c.466 0 .814-.09 1.045-.273.231-.185.347-.454.347-.805 0-.355-.098-.617-.293-.786-.192-.17-.495-.254-.908-.254h-.689v2.119zm3.418-1.132c0 .768-.241 1.356-.723 1.763-.478.406-1.16.61-2.045.61h-.65V97h-1.514v-7.139h2.281c.866 0 1.523.188 1.972.562.453.37.679.926.679 1.665zM157.548 97l-.518-1.7h-2.602l-.518 1.7h-1.631l2.52-7.168h1.85l2.53 7.168h-1.631zm-.879-2.969l-.811-2.612a8.692 8.692 0 0 1-.127-.479c-.107.417-.415 1.447-.922 3.091h1.86zM165.854 97h-1.729l-1.66-2.7-1.66 2.7h-1.621l2.368-3.682-2.217-3.457h1.67l1.538 2.569 1.509-2.569h1.631l-2.242 3.54L165.854 97zM87.67 31h-1.73l-1.66-2.7-1.66 2.7H81l2.368-3.682-2.217-3.457h1.67l1.538 2.569 1.51-2.569h1.63l-2.241 3.54L87.67 31zm3.608-4.009h2.832v3.701a7.79 7.79 0 0 1-1.299.313 8.183 8.183 0 0 1-1.24.093c-1.077 0-1.9-.316-2.47-.948-.567-.634-.85-1.544-.85-2.73 0-1.151.329-2.05.986-2.694.661-.645 1.576-.967 2.744-.967.733 0 1.44.146 2.12.44l-.503 1.21a3.593 3.593 0 0 0-1.626-.39c-.655 0-1.179.22-1.573.659-.394.44-.59 1.03-.59 1.772 0 .775.157 1.367.473 1.777.32.407.782.61 1.387.61.316 0 .636-.032.962-.097v-1.489h-1.353v-1.26zm10.459.371c0 1.175-.335 2.076-1.006 2.7-.667.625-1.632.938-2.895.938h-2.022v-7.139h2.242c1.165 0 2.07.308 2.715.923.644.615.966 1.475.966 2.578zm-1.572.04c0-1.534-.677-2.3-2.031-2.3h-.806v4.648h.65c1.458 0 2.187-.783 2.187-2.349zM82.185 152l-.311-1.02h-1.561l-.311 1.02h-.979l1.512-4.301h1.11L83.163 152h-.978zm-.528-1.781l-.486-1.568a4.798 4.798 0 0 1-.076-.287 58.4 58.4 0 0 1-.554 1.855h1.116zM86.658 152h-.893v-1.913c0-.236-.042-.413-.126-.53-.084-.119-.218-.179-.402-.179-.25 0-.43.084-.542.252-.111.166-.167.442-.167.829V152h-.893v-3.275h.682l.12.419h.05a.932.932 0 0 1 .41-.358c.176-.082.375-.123.598-.123.381 0 .67.104.867.311.198.205.296.502.296.89V152zm1.957.059c-.384 0-.687-.15-.908-.449-.219-.298-.328-.713-.328-1.242 0-.537.111-.955.334-1.254.225-.301.533-.451.926-.451.412 0 .726.16.943.481h.03a3.665 3.665 0 0 1-.068-.654v-1.049h.896V152h-.685l-.173-.425h-.038c-.203.322-.513.484-.929.484zm.314-.712c.228 0 .395-.067.5-.2.108-.132.167-.358.177-.676v-.097c0-.352-.055-.603-.165-.756-.107-.152-.283-.228-.527-.228-.2 0-.354.085-.466.255-.11.167-.164.413-.164.735s.056.564.167.726c.112.161.27.241.478.241zm4.274-2.684c.121 0 .222.009.302.026l-.067.838a1.05 1.05 0 0 0-.264-.029c-.285 0-.508.073-.668.22-.158.146-.237.351-.237.615V152h-.894v-3.275h.677l.132.55h.044c.101-.183.238-.331.41-.442.173-.113.362-.17.565-.17zm1.608 1.693c0 .325.053.57.159.736.107.166.281.249.521.249.239 0 .41-.082.513-.246.105-.166.158-.412.158-.739 0-.324-.053-.567-.158-.729-.106-.162-.278-.243-.519-.243-.238 0-.41.081-.515.243-.106.16-.159.403-.159.729zm2.265 0c0 .534-.14.951-.422 1.251-.281.301-.673.452-1.174.452a1.66 1.66 0 0 1-.833-.205 1.384 1.384 0 0 1-.553-.595 1.995 1.995 0 0 1-.194-.903c0-.535.14-.951.42-1.248.279-.296.671-.445 1.177-.445.314 0 .592.068.832.205.24.137.425.333.554.589.129.256.193.556.193.899zm.7-2.478c0-.291.163-.437.487-.437.324 0 .486.146.486.437a.427.427 0 0 1-.123.325c-.08.076-.201.114-.363.114-.325 0-.487-.146-.487-.439zm.932 4.122h-.894v-3.275h.894V152zm1.978.059a1.07 1.07 0 0 1-.909-.449c-.218-.298-.328-.713-.328-1.242 0-.537.112-.955.334-1.254.225-.301.533-.451.926-.451.412 0 .727.16.943.481h.03a3.66 3.66 0 0 1-.068-.654v-1.049h.897V152h-.686l-.173-.425h-.038c-.203.322-.512.484-.928.484zm.313-.712c.229 0 .396-.067.501-.2.107-.132.166-.358.176-.676v-.097c0-.352-.055-.603-.164-.756-.108-.152-.283-.228-.528-.228a.526.526 0 0 0-.465.255c-.11.167-.165.413-.165.735s.056.564.167.726a.547.547 0 0 0 .478.241zm-17.46 9.874h.498c.466 0 .814-.091 1.045-.274.231-.185.347-.454.347-.805 0-.355-.098-.617-.293-.787-.192-.169-.495-.253-.908-.253h-.689v2.119zm3.418-1.133c0 .768-.24 1.356-.723 1.763-.478.406-1.16.61-2.045.61h-.65V165h-1.514v-7.139h2.28c.866 0 1.524.188 1.973.562.453.371.679.926.679 1.665zm7.827 1.333c0 1.182-.293 2.09-.879 2.725-.586.634-1.425.952-2.52.952-1.093 0-1.933-.318-2.519-.952-.586-.635-.879-1.547-.879-2.735s.293-2.095.88-2.72c.588-.628 1.431-.942 2.528-.942 1.098 0 1.936.316 2.515.947.583.632.874 1.54.874 2.725zm-5.21 0c0 .797.152 1.398.454 1.802.303.403.755.605 1.358.605 1.207 0 1.811-.802 1.811-2.407 0-1.608-.6-2.412-1.802-2.412-.602 0-1.056.203-1.362.61-.306.404-.459 1.004-.459 1.802zm10.904 1.597c0 .644-.233 1.152-.699 1.523-.462.371-1.106.557-1.933.557-.762 0-1.436-.144-2.022-.43v-1.406a8.38 8.38 0 0 0 1.22.454c.336.088.642.132.919.132.332 0 .586-.064.762-.191.179-.127.268-.316.268-.566a.614.614 0 0 0-.117-.371 1.275 1.275 0 0 0-.347-.318c-.15-.101-.457-.262-.923-.483-.436-.205-.763-.402-.981-.591a2.215 2.215 0 0 1-.522-.659 1.883 1.883 0 0 1-.196-.879c0-.631.213-1.128.64-1.489.43-.362 1.022-.542 1.777-.542.371 0 .725.044 1.06.132.338.088.692.211 1.059.371l-.488 1.176a7.133 7.133 0 0 0-.947-.327 3.003 3.003 0 0 0-.733-.092c-.286 0-.506.066-.659.2a.659.659 0 0 0-.23.522c0 .134.032.251.094.352.061.097.159.193.292.288.137.091.458.257.962.498.668.319 1.125.64 1.372.962.248.319.372.711.372 1.177z" fill="#38454F"/><circle cx="8" cy="111" r="2" fill="#556080"/><circle cx="15" cy="111" r="2" fill="#556080"/><circle cx="22" cy="111" r="2" fill="#556080"/></svg>