<svg width="244" height="110" fill="none" xmlns="http://www.w3.org/2000/svg"><g clip-path="url(#clip0)"><g clip-path="url(#clip1)"><path d="M238.611 47.898H179.22c-2.33 0-4.22-1.862-4.22-4.158V30.158c0-2.296 1.89-4.158 4.22-4.158h59.39c2.331 0 4.221 1.863 4.221 4.158v13.58c0 2.298-1.89 4.16-4.22 4.16z" fill="#556080"/><path d="M238.611 69.797H179.22c-2.33 0-4.22-1.863-4.22-4.159V52.057c0-2.296 1.89-4.159 4.22-4.159h59.39c2.331 0 4.221 1.863 4.221 4.159v13.58c0 2.297-1.89 4.16-4.22 4.16z" fill="#38454F"/><path d="M238.611 91.695H179.22c-2.33 0-4.22-1.863-4.22-4.158V73.955c0-2.296 1.89-4.158 4.22-4.158h59.39c2.331 0 4.221 1.862 4.221 4.158v13.58c0 2.297-1.89 4.16-4.22 4.16z" fill="#556080"/><path d="M186.11 40.983c2.261 0 4.093-1.806 4.093-4.034 0-2.228-1.832-4.034-4.093-4.034-2.26 0-4.093 1.806-4.093 4.034 0 2.228 1.833 4.034 4.093 4.034zm46.195-4.61c.646 0 1.17-.516 1.17-1.153 0-.636-.524-1.152-1.17-1.152a1.16 1.16 0 0 0-1.169 1.152 1.16 1.16 0 0 0 1.169 1.153zm-4.678 0c.646 0 1.17-.516 1.17-1.153 0-.636-.524-1.152-1.17-1.152a1.16 1.16 0 0 0-1.169 1.152 1.16 1.16 0 0 0 1.169 1.153zm7.017 3.457a1.16 1.16 0 0 0 1.17-1.152c0-.636-.524-1.152-1.17-1.152a1.16 1.16 0 0 0-1.169 1.152 1.16 1.16 0 0 0 1.169 1.153zm-4.678 0a1.16 1.16 0 0 0 1.17-1.152c0-.636-.524-1.152-1.17-1.152a1.16 1.16 0 0 0-1.169 1.152 1.16 1.16 0 0 0 1.169 1.153zm-7.017-3.457c.646 0 1.17-.516 1.17-1.153 0-.636-.524-1.152-1.17-1.152a1.16 1.16 0 0 0-1.169 1.152 1.16 1.16 0 0 0 1.169 1.153zm2.339 3.457a1.16 1.16 0 0 0 1.17-1.152c0-.636-.524-1.152-1.17-1.152a1.16 1.16 0 0 0-1.169 1.152 1.16 1.16 0 0 0 1.169 1.153zm-7.017-3.457c.646 0 1.17-.516 1.17-1.153 0-.636-.524-1.152-1.17-1.152a1.16 1.16 0 0 0-1.169 1.152 1.16 1.16 0 0 0 1.169 1.153zm2.339 3.457a1.16 1.16 0 0 0 1.17-1.152c0-.636-.524-1.152-1.17-1.152a1.16 1.16 0 0 0-1.169 1.152 1.16 1.16 0 0 0 1.169 1.153zm-7.017-3.457c.646 0 1.17-.516 1.17-1.153 0-.636-.524-1.152-1.17-1.152a1.16 1.16 0 0 0-1.169 1.152 1.16 1.16 0 0 0 1.169 1.153zm2.339 3.457a1.16 1.16 0 0 0 1.17-1.152c0-.636-.524-1.152-1.17-1.152a1.16 1.16 0 0 0-1.169 1.152 1.16 1.16 0 0 0 1.169 1.153zM186.11 62.881c2.261 0 4.093-1.806 4.093-4.034 0-2.227-1.832-4.033-4.093-4.033-2.26 0-4.093 1.806-4.093 4.033 0 2.228 1.833 4.034 4.093 4.034zm46.195-4.61c.646 0 1.17-.516 1.17-1.152 0-.637-.524-1.153-1.17-1.153a1.16 1.16 0 0 0-1.169 1.153 1.16 1.16 0 0 0 1.169 1.152zm-4.678 0c.646 0 1.17-.516 1.17-1.152 0-.637-.524-1.153-1.17-1.153a1.16 1.16 0 0 0-1.169 1.153 1.16 1.16 0 0 0 1.169 1.152zm7.017 3.458c.646 0 1.17-.516 1.17-1.153 0-.636-.524-1.152-1.17-1.152a1.16 1.16 0 0 0-1.169 1.152 1.16 1.16 0 0 0 1.169 1.153zm-4.678 0c.646 0 1.17-.516 1.17-1.153 0-.636-.524-1.152-1.17-1.152a1.16 1.16 0 0 0-1.169 1.152 1.16 1.16 0 0 0 1.169 1.153zm-7.017-3.458c.646 0 1.17-.516 1.17-1.152 0-.637-.524-1.153-1.17-1.153a1.16 1.16 0 0 0-1.169 1.153 1.16 1.16 0 0 0 1.169 1.152zm2.339 3.458c.646 0 1.17-.516 1.17-1.153 0-.636-.524-1.152-1.17-1.152a1.16 1.16 0 0 0-1.169 1.152 1.16 1.16 0 0 0 1.169 1.153zm-7.017-3.458c.646 0 1.17-.516 1.17-1.152 0-.637-.524-1.153-1.17-1.153a1.16 1.16 0 0 0-1.169 1.153 1.16 1.16 0 0 0 1.169 1.152zm2.339 3.458c.646 0 1.17-.516 1.17-1.153 0-.636-.524-1.152-1.17-1.152a1.16 1.16 0 0 0-1.169 1.152 1.16 1.16 0 0 0 1.169 1.153zm-7.017-3.458c.646 0 1.17-.516 1.17-1.152 0-.637-.524-1.153-1.17-1.153a1.16 1.16 0 0 0-1.169 1.153 1.16 1.16 0 0 0 1.169 1.152zm2.339 3.458c.646 0 1.17-.516 1.17-1.153 0-.636-.524-1.152-1.17-1.152a1.16 1.16 0 0 0-1.169 1.152 1.16 1.16 0 0 0 1.169 1.153zM186.11 84.78c2.261 0 4.093-1.806 4.093-4.034 0-2.228-1.832-4.034-4.093-4.034-2.26 0-4.093 1.806-4.093 4.034 0 2.228 1.833 4.034 4.093 4.034zm46.195-4.61c.646 0 1.17-.517 1.17-1.153s-.524-1.153-1.17-1.153a1.16 1.16 0 0 0-1.169 1.153 1.16 1.16 0 0 0 1.169 1.153zm-4.678 0c.646 0 1.17-.517 1.17-1.153s-.524-1.153-1.17-1.153a1.16 1.16 0 0 0-1.169 1.153 1.16 1.16 0 0 0 1.169 1.153zm7.017 3.457c.646 0 1.17-.516 1.17-1.152 0-.637-.524-1.153-1.17-1.153a1.16 1.16 0 0 0-1.169 1.153 1.16 1.16 0 0 0 1.169 1.152zm-4.678 0c.646 0 1.17-.516 1.17-1.152 0-.637-.524-1.153-1.17-1.153a1.16 1.16 0 0 0-1.169 1.153 1.16 1.16 0 0 0 1.169 1.152zm-7.017-3.457c.646 0 1.17-.517 1.17-1.153s-.524-1.153-1.17-1.153a1.16 1.16 0 0 0-1.169 1.153 1.16 1.16 0 0 0 1.169 1.153zm2.339 3.457c.646 0 1.17-.516 1.17-1.152 0-.637-.524-1.153-1.17-1.153a1.16 1.16 0 0 0-1.169 1.153 1.16 1.16 0 0 0 1.169 1.152zm-7.017-3.457c.646 0 1.17-.517 1.17-1.153s-.524-1.153-1.17-1.153a1.16 1.16 0 0 0-1.169 1.153 1.16 1.16 0 0 0 1.169 1.153zm2.339 3.457c.646 0 1.17-.516 1.17-1.152 0-.637-.524-1.153-1.17-1.153a1.16 1.16 0 0 0-1.169 1.153 1.16 1.16 0 0 0 1.169 1.152zm-7.017-3.457c.646 0 1.17-.517 1.17-1.153s-.524-1.153-1.17-1.153a1.16 1.16 0 0 0-1.169 1.153 1.16 1.16 0 0 0 1.169 1.153zm2.339 3.457c.646 0 1.17-.516 1.17-1.152 0-.637-.524-1.153-1.17-1.153a1.16 1.16 0 0 0-1.169 1.153 1.16 1.16 0 0 0 1.169 1.152z" fill="#8697CB"/><path d="M229.966 94C237.717 94 244 87.808 244 80.17c0-7.639-6.283-13.831-14.034-13.831s-14.034 6.192-14.034 13.83c0 7.639 6.283 13.831 14.034 13.831z" fill="#26B999"/><path d="M237.651 73.46a1.179 1.179 0 0 0-1.628.289l-6.545 9.266-4.618-3.736a1.18 1.18 0 0 0-1.645.16 1.139 1.139 0 0 0 .162 1.621l5.597 4.529a1.186 1.186 0 0 0 .902.251c.323-.045.613-.219.8-.483l7.267-10.291a1.144 1.144 0 0 0-.292-1.605z" fill="#fff"/></g><path d="M37.949 79.996v5.354c0 2.357-1.897 4.284-4.217 4.284H4.217C1.897 89.634 0 87.707 0 85.35v-5.354c0 2.356 1.897 4.284 4.217 4.284h29.515c2.32 0 4.217-1.928 4.217-4.284z" fill="#38454F"/><path fill="#556080" d="M4.217 33.012h30.118v47.587H4.217z"/><path d="M5.421 38.421a3 3 0 0 1 3-3h21.107a3 3 0 0 1 3 3v2.433a3 3 0 0 1-3 3H8.42a3 3 0 0 1-3-3v-2.433z" fill="#8697CB"/><path d="M37.949 66.895v13.703a4.229 4.229 0 0 1-4.217 4.217H4.217A4.229 4.229 0 0 1 0 80.598V34.217A4.229 4.229 0 0 1 4.217 30h29.515a4.229 4.229 0 0 1 4.217 4.217v32.678zm-5.27 11.595v-4.216h-6.326v4.216h6.325zm0-8.433v-4.216h-6.326v4.216h6.325zm0-8.433v-4.217h-6.326v4.217h6.325zm0-8.433v-4.217h-6.326v4.217h6.325zm-3-9.487a3 3 0 0 0 3-3V38.27a3 3 0 0 0-3-3H8.27a3 3 0 0 0-3 3v2.433a3 3 0 0 0 3 3h21.407zM22.136 78.49v-4.216h-6.325v4.216h6.325zm0-8.433v-4.216h-6.325v4.216h6.325zm0-8.433v-4.217h-6.325v4.217h6.325zm-3.163-8.433a3.162 3.162 0 0 0 3.163-3.163v-1.054H17.92a2.108 2.108 0 1 0 0 4.217h1.054zm-7.379 25.3v-4.217H5.271v4.216h6.324zm0-8.434v-4.216H5.271v4.216h6.324zm0-8.433v-4.217H5.271v4.217h6.324zm-2.108-8.433a2.108 2.108 0 1 0 0-4.217H7.38a2.108 2.108 0 0 0 0 4.217h2.108z" fill="#556080"/><path d="M5.421 76.683c0-1.164.944-2.108 2.109-2.108h1.807a2.108 2.108 0 1 1 0 4.216H7.53a2.108 2.108 0 0 1-2.109-2.108z" fill="#E86869"/><path d="M5.421 68.25c0-1.164.944-2.108 2.109-2.108h1.807a2.108 2.108 0 1 1 0 4.216H7.53a2.108 2.108 0 0 1-2.11-2.108zm10.24 0c0-1.164.944-2.108 2.109-2.108h2.41a2.108 2.108 0 1 1 0 4.216h-2.41a2.108 2.108 0 0 1-2.109-2.108z" fill="#E6E9ED"/><path d="M15.661 76.683c0-1.164.944-2.108 2.109-2.108h2.41a2.108 2.108 0 1 1 0 4.216h-2.41a2.108 2.108 0 0 1-2.109-2.108z" fill="#FFCF56"/><path d="M26.504 76.683c0-1.164.944-2.108 2.108-2.108h1.807a2.108 2.108 0 0 1 0 4.216h-1.807a2.108 2.108 0 0 1-2.108-2.108z" fill="#26B999"/><path d="M26.504 68.25c0-1.164.944-2.108 2.108-2.108h1.807a2.108 2.108 0 0 1 0 4.216h-1.807a2.108 2.108 0 0 1-2.108-2.108zm0-8.433c0-1.164.944-2.108 2.108-2.108h1.807a2.108 2.108 0 0 1 0 4.216h-1.807a2.108 2.108 0 0 1-2.108-2.108zm0-8.433c0-1.165.944-2.108 2.108-2.108h1.807a2.108 2.108 0 0 1 0 4.216h-1.807a2.108 2.108 0 0 1-2.108-2.108zm-10.843 8.433c0-1.164.944-2.108 2.109-2.108h2.41a2.108 2.108 0 1 1 0 4.216h-2.41a2.108 2.108 0 0 1-2.109-2.108zm0-8.433c0-1.165.944-2.108 2.109-2.108h2.41a2.108 2.108 0 1 1 0 4.216h-2.41a2.108 2.108 0 0 1-2.109-2.108zm-10.24 8.433c0-1.164.944-2.108 2.109-2.108h1.807a2.108 2.108 0 1 1 0 4.216H7.53a2.108 2.108 0 0 1-2.109-2.108zm0-8.433c0-1.165.944-2.108 2.109-2.108h1.807a2.108 2.108 0 1 1 0 4.216H7.53a2.108 2.108 0 0 1-2.109-2.108z" fill="#E6E9ED"/><path d="M77.354 39.354a.5.5 0 0 0 0-.708l-3.182-3.181a.5.5 0 1 0-.707.707L76.293 39l-2.829 2.828a.5.5 0 1 0 .708.707l3.182-3.181zM45 39.5h32v-1H45v1zm121.354-.146a.5.5 0 0 0 0-.708l-3.182-3.181a.501.501 0 0 0-.708.707L165.293 39l-2.829 2.828a.5.5 0 0 0 .708.707l3.182-3.181zM134 39.5h32v-1h-32v1zm-.354 40.854a.5.5 0 0 1 0-.708l3.182-3.181a.501.501 0 0 1 .708.707L134.707 80l2.829 2.828a.5.5 0 0 1-.708.707l-3.182-3.181zM166 80.5h-32v-1h32v1zm-121.354-.146a.5.5 0 0 1 0-.708l3.182-3.181a.5.5 0 1 1 .707.707L45.707 80l2.828 2.828a.5.5 0 1 1-.707.707l-3.182-3.181zM77 80.5H45v-1h32v1z" fill="#38454F"/><path d="M117.392 34.865h-23.65a5.608 5.608 0 0 1-5.607-5.608V5.607A5.608 5.608 0 0 1 93.743 0h23.649A5.608 5.608 0 0 1 123 5.608v23.65a5.608 5.608 0 0 1-5.608 5.607z" fill="#BFC9D6"/><path d="M118.84 41.135H92.295A6.295 6.295 0 0 1 86 34.84V8.295A6.295 6.295 0 0 1 92.295 2h26.545a6.295 6.295 0 0 1 6.295 6.295V34.84a6.295 6.295 0 0 1-6.295 6.295z" fill="#D7DCE2"/><path d="M119.82 45.965H91.355a6.75 6.75 0 0 1-6.75-6.75V10.75A6.75 6.75 0 0 1 91.355 4h28.465a6.75 6.75 0 0 1 6.75 6.75v28.465a6.75 6.75 0 0 1-6.75 6.75z" fill="#E6E9ED"/><path d="M9.447 39.618h.293c.287 0 .5-.048.636-.143.137-.096.205-.247.205-.452 0-.203-.07-.347-.21-.433-.14-.086-.355-.13-.648-.13h-.276v1.158zm0 .738V42H8.54v-4.283h1.248c.582 0 1.013.106 1.292.32.28.21.419.531.419.963 0 .252-.07.477-.208.674a1.38 1.38 0 0 1-.589.46A172.38 172.38 0 0 0 11.961 42h-1.008l-1.022-1.644h-.484zM15.945 42h-1.03l-1.123-1.805-.384.276V42H12.5v-4.283h.908v1.96l.358-.504 1.16-1.456h1.008l-1.494 1.895L15.945 42zm.54 0v-4.283h.908v3.533h1.737V42h-2.646z" fill="#fff"/><g clip-path="url(#clip2)"><path d="M102.003 79.174c-.502-5.384 1.563-10.333 6.79-12.61 6.855-2.987 14.891.466 17.344 7.7 2.131 6.287-1.033 13.316-7.135 15.93-4.641 1.989-9.535.905-13.143-2.17l-2.966 1.328-3.764-1.48-1.177 2.995-2.994-1.177-1.178 2.994-3.743-1.471-1.471 3.743-2.246-.883-.817 2.079c-.238.604-.337.771-.871 1.003a1.85 1.85 0 0 1-1.281.073l-5.99-2.354 2.65-6.738 21.992-8.962zm12.669-1.132a4.02 4.02 0 0 0 5.293 2.081 4.02 4.02 0 0 0 2.081-5.294 4.02 4.02 0 1 0-7.374 3.213z" fill="#FFCF56"/><path d="M102.686 83.22l2.917 4.918-2.711 1.213-3.763-1.48-1.178 2.996-2.994-1.178-1.177 2.995-3.744-1.471-1.471 3.743-2.246-.883-.817 2.078c-.237.604-.337.772-.87 1.004-.405.176-.86.202-1.282.073l-5.99-2.355.295-.748 25.031-10.905zm17.704-12.057a5.63 5.63 0 1 1-4.12 10.482 5.63 5.63 0 0 1 4.12-10.482zm-3.531 8.984a4.023 4.023 0 1 0 2.942-7.488 4.023 4.023 0 0 0-2.942 7.488z" fill="#EDB53A"/></g><rect x="89" y="12" width="20" height="2" rx="1" fill="#D7DCE2"/><rect x="89" y="18" width="14" height="2" rx="1" fill="#D7DCE2"/><rect x="89" y="24" width="14" height="2" rx="1" fill="#D7DCE2"/><rect x="89" y="30" width="14" height="2" rx="1" fill="#D7DCE2"/><path d="M115 39.26a9.057 9.057 0 0 1-6-2.26v15l6-5.88 6 5.88V37a9.057 9.057 0 0 1-6 2.26z" fill="#556080"/><path d="M124 31a9 9 0 0 1-9 9 9 9 0 0 1-9-9 9 9 0 0 1 9-9 9 9 0 0 1 9 9z" fill="#FFCF56"/><path d="M120 31a5 5 0 1 1-10.001-.001A5 5 0 0 1 120 31z" fill="#EDB53A"/></g><defs><clipPath id="clip0"><path fill="#fff" d="M0 0h244v109.956H0z"/></clipPath><clipPath id="clip1"><path fill="#fff" transform="translate(175 26)" d="M0 0h69v68H0z"/></clipPath><clipPath id="clip2"><path fill="#fff" transform="scale(-1 1) rotate(-21.459 122.464 381.168)" d="M0 0h41.616v41.616H0z"/></clipPath></defs></svg>