<svg width="297" height="138" fill="none" xmlns="http://www.w3.org/2000/svg"><g clip-path="url(#clip0)"><path d="M291.611 55.898H232.22c-2.33 0-4.22-1.862-4.22-4.158V38.158c0-2.296 1.89-4.158 4.22-4.158h59.39c2.331 0 4.221 1.862 4.221 4.158v13.58c0 2.298-1.89 4.16-4.22 4.16z" fill="#556080"/><path d="M291.611 77.797H232.22c-2.33 0-4.22-1.863-4.22-4.159V60.057c0-2.296 1.89-4.159 4.22-4.159h59.39c2.331 0 4.221 1.863 4.221 4.159v13.58c0 2.297-1.89 4.16-4.22 4.16z" fill="#38454F"/><path d="M291.611 99.695H232.22c-2.33 0-4.22-1.863-4.22-4.158V81.955c0-2.296 1.89-4.158 4.22-4.158h59.39c2.331 0 4.221 1.862 4.221 4.158v13.58c0 2.297-1.89 4.16-4.22 4.16z" fill="#556080"/><path d="M239.11 48.983c2.261 0 4.093-1.806 4.093-4.034 0-2.228-1.832-4.034-4.093-4.034-2.26 0-4.093 1.806-4.093 4.034 0 2.228 1.833 4.034 4.093 4.034zm46.195-4.61c.646 0 1.17-.516 1.17-1.153 0-.636-.524-1.152-1.17-1.152a1.16 1.16 0 0 0-1.169 1.152 1.16 1.16 0 0 0 1.169 1.153zm-4.678 0c.646 0 1.17-.516 1.17-1.153 0-.636-.524-1.152-1.17-1.152a1.16 1.16 0 0 0-1.169 1.152 1.16 1.16 0 0 0 1.169 1.153zm7.017 3.457a1.16 1.16 0 0 0 1.17-1.152c0-.636-.524-1.152-1.17-1.152a1.16 1.16 0 0 0-1.169 1.152 1.16 1.16 0 0 0 1.169 1.153zm-4.678 0a1.16 1.16 0 0 0 1.17-1.152c0-.636-.524-1.152-1.17-1.152a1.16 1.16 0 0 0-1.169 1.152 1.16 1.16 0 0 0 1.169 1.153zm-7.017-3.457c.646 0 1.17-.516 1.17-1.153 0-.636-.524-1.152-1.17-1.152a1.16 1.16 0 0 0-1.169 1.152 1.16 1.16 0 0 0 1.169 1.153zm2.339 3.457a1.16 1.16 0 0 0 1.17-1.152c0-.636-.524-1.152-1.17-1.152a1.16 1.16 0 0 0-1.169 1.152 1.16 1.16 0 0 0 1.169 1.153zm-7.017-3.457c.646 0 1.17-.516 1.17-1.153 0-.636-.524-1.152-1.17-1.152a1.16 1.16 0 0 0-1.169 1.152 1.16 1.16 0 0 0 1.169 1.153zm2.339 3.457a1.16 1.16 0 0 0 1.17-1.152c0-.636-.524-1.152-1.17-1.152a1.16 1.16 0 0 0-1.169 1.152 1.16 1.16 0 0 0 1.169 1.153zm-7.017-3.457c.646 0 1.17-.516 1.17-1.153 0-.636-.524-1.152-1.17-1.152a1.16 1.16 0 0 0-1.169 1.152 1.16 1.16 0 0 0 1.169 1.153zm2.339 3.457a1.16 1.16 0 0 0 1.17-1.152c0-.636-.524-1.152-1.17-1.152a1.16 1.16 0 0 0-1.169 1.152 1.16 1.16 0 0 0 1.169 1.153zM239.11 70.881c2.261 0 4.093-1.806 4.093-4.034 0-2.227-1.832-4.033-4.093-4.033-2.26 0-4.093 1.806-4.093 4.033 0 2.228 1.833 4.034 4.093 4.034zm46.195-4.61c.646 0 1.17-.516 1.17-1.152 0-.637-.524-1.153-1.17-1.153a1.16 1.16 0 0 0-1.169 1.153 1.16 1.16 0 0 0 1.169 1.152zm-4.678 0c.646 0 1.17-.516 1.17-1.152 0-.637-.524-1.153-1.17-1.153a1.16 1.16 0 0 0-1.169 1.153 1.16 1.16 0 0 0 1.169 1.152zm7.017 3.458c.646 0 1.17-.516 1.17-1.153 0-.636-.524-1.152-1.17-1.152a1.16 1.16 0 0 0-1.169 1.152 1.16 1.16 0 0 0 1.169 1.153zm-4.678 0c.646 0 1.17-.516 1.17-1.153 0-.636-.524-1.152-1.17-1.152a1.16 1.16 0 0 0-1.169 1.152 1.16 1.16 0 0 0 1.169 1.153zm-7.017-3.458c.646 0 1.17-.516 1.17-1.152 0-.637-.524-1.153-1.17-1.153a1.16 1.16 0 0 0-1.169 1.153 1.16 1.16 0 0 0 1.169 1.152zm2.339 3.458c.646 0 1.17-.516 1.17-1.153 0-.636-.524-1.152-1.17-1.152a1.16 1.16 0 0 0-1.169 1.152 1.16 1.16 0 0 0 1.169 1.153zm-7.017-3.458c.646 0 1.17-.516 1.17-1.152 0-.637-.524-1.153-1.17-1.153a1.16 1.16 0 0 0-1.169 1.153 1.16 1.16 0 0 0 1.169 1.152zm2.339 3.458c.646 0 1.17-.516 1.17-1.153 0-.636-.524-1.152-1.17-1.152a1.16 1.16 0 0 0-1.169 1.152 1.16 1.16 0 0 0 1.169 1.153zm-7.017-3.458c.646 0 1.17-.516 1.17-1.152 0-.637-.524-1.153-1.17-1.153a1.16 1.16 0 0 0-1.169 1.153 1.16 1.16 0 0 0 1.169 1.152zm2.339 3.458c.646 0 1.17-.516 1.17-1.153 0-.636-.524-1.152-1.17-1.152a1.16 1.16 0 0 0-1.169 1.152 1.16 1.16 0 0 0 1.169 1.153zM239.11 92.78c2.261 0 4.093-1.806 4.093-4.034 0-2.228-1.832-4.034-4.093-4.034-2.26 0-4.093 1.806-4.093 4.034 0 2.228 1.833 4.034 4.093 4.034zm46.195-4.61c.646 0 1.17-.517 1.17-1.153s-.524-1.153-1.17-1.153a1.16 1.16 0 0 0-1.169 1.153 1.16 1.16 0 0 0 1.169 1.153zm-4.678 0c.646 0 1.17-.517 1.17-1.153s-.524-1.153-1.17-1.153a1.16 1.16 0 0 0-1.169 1.153 1.16 1.16 0 0 0 1.169 1.153zm7.017 3.457c.646 0 1.17-.516 1.17-1.152 0-.637-.524-1.153-1.17-1.153a1.16 1.16 0 0 0-1.169 1.153 1.16 1.16 0 0 0 1.169 1.152zm-4.678 0c.646 0 1.17-.516 1.17-1.152 0-.637-.524-1.153-1.17-1.153a1.16 1.16 0 0 0-1.169 1.153 1.16 1.16 0 0 0 1.169 1.152zm-7.017-3.457c.646 0 1.17-.517 1.17-1.153s-.524-1.153-1.17-1.153a1.16 1.16 0 0 0-1.169 1.153 1.16 1.16 0 0 0 1.169 1.153zm2.339 3.457c.646 0 1.17-.516 1.17-1.152 0-.637-.524-1.153-1.17-1.153a1.16 1.16 0 0 0-1.169 1.153 1.16 1.16 0 0 0 1.169 1.152zm-7.017-3.457c.646 0 1.17-.517 1.17-1.153s-.524-1.153-1.17-1.153a1.16 1.16 0 0 0-1.169 1.153 1.16 1.16 0 0 0 1.169 1.153zm2.339 3.457c.646 0 1.17-.516 1.17-1.152 0-.637-.524-1.153-1.17-1.153a1.16 1.16 0 0 0-1.169 1.153 1.16 1.16 0 0 0 1.169 1.152zm-7.017-3.457c.646 0 1.17-.517 1.17-1.153s-.524-1.153-1.17-1.153a1.16 1.16 0 0 0-1.169 1.153 1.16 1.16 0 0 0 1.169 1.153zm2.339 3.457c.646 0 1.17-.516 1.17-1.152 0-.637-.524-1.153-1.17-1.153a1.16 1.16 0 0 0-1.169 1.153 1.16 1.16 0 0 0 1.169 1.152z" fill="#8697CB"/><path d="M282.966 102C290.717 102 297 95.808 297 88.17c0-7.639-6.283-13.831-14.034-13.831s-14.034 6.192-14.034 13.83c0 7.639 6.283 13.831 14.034 13.831z" fill="#26B999"/><path d="M290.651 81.46a1.179 1.179 0 0 0-1.628.289l-6.545 9.266-4.618-3.736a1.18 1.18 0 0 0-1.645.16 1.139 1.139 0 0 0 .162 1.621l5.597 4.529a1.186 1.186 0 0 0 .902.251c.323-.045.613-.219.8-.483l7.267-10.291a1.143 1.143 0 0 0-.292-1.605z" fill="#fff"/></g><path d="M191.82 48.965h-28.465a6.75 6.75 0 0 1-6.75-6.75V13.75a6.75 6.75 0 0 1 6.75-6.75h28.465a6.75 6.75 0 0 1 6.75 6.75v28.465a6.75 6.75 0 0 1-6.75 6.75z" fill="#FFCF56"/><path d="M192.114 29.596h-14.526a.806.806 0 1 1 0-1.613h14.526a.806.806 0 1 1 0 1.613zm0 11.299h-14.526a.806.806 0 1 1 0-1.614h14.526a.806.806 0 1 1 0 1.614zm-25.768-8.877a.798.798 0 0 1-.483-.162l-3.689-2.767a.805.805 0 1 1 .967-1.29l3.085 2.312 5.042-5.881a.805.805 0 0 1 1.137-.087c.339.29.379.799.087 1.137l-5.533 6.456a.802.802 0 0 1-.613.282zm0 12.104a.798.798 0 0 1-.483-.161l-3.689-2.768a.805.805 0 1 1 .967-1.29l3.085 2.313 5.042-5.88a.805.805 0 0 1 1.137-.088c.339.29.379.799.087 1.137l-5.533 6.455a.802.802 0 0 1-.613.282zm-4.416-27.298h.39c.383 0 .666-.064.848-.191.182-.128.273-.328.273-.602 0-.27-.093-.463-.281-.578-.185-.114-.472-.172-.863-.172h-.367v1.543zm0 .985V20h-1.211v-5.71h1.664c.776 0 1.35.141 1.722.425.373.281.559.71.559 1.285 0 .336-.092.635-.277.898-.185.26-.447.465-.785.614A234.851 234.851 0 0 0 165.281 20h-1.343l-1.364-2.191h-.644zM169.289 20H166v-5.71h3.289v.991h-2.078v1.254h1.934v.992h-1.934V19h2.078v1zm6.379-2.863c0 .672-.12 1.235-.359 1.691a2.172 2.172 0 0 1-1.047.996l1.375 1.535h-1.551l-1.047-1.28h-.09c-.875 0-1.547-.255-2.015-.763-.469-.507-.704-1.237-.704-2.187 0-.95.235-1.676.704-2.176.471-.502 1.145-.754 2.023-.754.878 0 1.548.253 2.012.758.466.505.699 1.232.699 2.18zm-4.168 0c0 .638.121 1.118.363 1.441.242.323.604.485 1.086.485.966 0 1.449-.642 1.449-1.926 0-1.287-.48-1.93-1.441-1.93-.482 0-.845.163-1.09.488-.245.323-.367.804-.367 1.442zm10-2.848v3.695c0 .422-.095.792-.285 1.11-.188.317-.46.56-.817.73-.356.17-.778.254-1.265.254-.735 0-1.305-.187-1.711-.562-.406-.378-.61-.894-.61-1.547v-3.68h1.208v3.496c0 .44.088.763.265.969.177.206.47.308.879.308.396 0 .682-.102.859-.308.18-.208.27-.534.27-.977V14.29h1.207zM186.188 20h-3.29v-5.71h3.29v.991h-2.079v1.254h1.934v.992h-1.934V19h2.079v1zm4.566-1.586c0 .516-.186.922-.559 1.219-.369.297-.885.445-1.547.445-.609 0-1.148-.114-1.617-.344V18.61c.386.172.711.293.977.364.268.07.513.105.734.105.266 0 .469-.05.61-.152.143-.102.214-.253.214-.453a.494.494 0 0 0-.093-.297 1.023 1.023 0 0 0-.278-.254 6.904 6.904 0 0 0-.738-.387c-.349-.164-.611-.322-.785-.473a1.763 1.763 0 0 1-.418-.527 1.507 1.507 0 0 1-.156-.703c0-.505.17-.902.511-1.191.344-.29.818-.434 1.422-.434.297 0 .58.035.848.105.271.07.553.17.848.297l-.391.942a5.645 5.645 0 0 0-.758-.262 2.408 2.408 0 0 0-.586-.074c-.229 0-.405.053-.527.16a.527.527 0 0 0-.184.418c0 .107.025.2.074.281a.86.86 0 0 0 .235.23c.109.074.366.206.769.4.534.254.9.51 1.098.769.198.255.297.569.297.941zM193.992 20h-1.211v-4.703h-1.551v-1.008h4.313v1.008h-1.551V20z" fill="#fff"/><path d="M37.949 106.996v5.354c0 2.357-1.897 4.284-4.217 4.284H4.217c-2.32 0-4.217-1.927-4.217-4.284v-5.354c0 2.356 1.897 4.284 4.217 4.284h29.515c2.32 0 4.217-1.928 4.217-4.284z" fill="#38454F"/><path fill="#556080" d="M4.217 60.012h30.118v47.587H4.217z"/><path d="M5.421 65.421a3 3 0 0 1 3-3h21.107a3 3 0 0 1 3 3v2.433a3 3 0 0 1-3 3H8.42a3 3 0 0 1-3-3v-2.433z" fill="#8697CB"/><path d="M37.949 93.895v13.703a4.229 4.229 0 0 1-4.217 4.217H4.217A4.229 4.229 0 0 1 0 107.598V61.217A4.229 4.229 0 0 1 4.217 57h29.515a4.229 4.229 0 0 1 4.217 4.217v32.678zm-5.27 11.595v-4.216h-6.326v4.216h6.325zm0-8.433v-4.216h-6.326v4.216h6.325zm0-8.433v-4.216h-6.326v4.216h6.325zm0-8.433v-4.217h-6.326v4.217h6.325zm-3-9.487a3 3 0 0 0 3-3V65.27a3 3 0 0 0-3-3H8.27a3 3 0 0 0-3 3v2.433a3 3 0 0 0 3 3h21.407zm-7.542 34.786v-4.216h-6.325v4.216h6.325zm0-8.433v-4.216h-6.325v4.216h6.325zm0-8.433v-4.216h-6.325v4.216h6.325zm-3.163-8.433a3.162 3.162 0 0 0 3.163-3.163v-1.054H17.92a2.108 2.108 0 1 0 0 4.217h1.054zm-7.379 25.299v-4.216H5.271v4.216h6.324zm0-8.433v-4.216H5.271v4.216h6.324zm0-8.433v-4.216H5.271v4.216h6.324zm-2.108-8.433a2.108 2.108 0 1 0 0-4.217H7.38a2.108 2.108 0 0 0 0 4.217h2.108z" fill="#556080"/><path d="M11.136 64.537a1.053 1.053 0 0 0-1.49 0l-.31.31-.308-.31a1.053 1.053 0 1 0-1.49 1.491l.308.309-.309.309a1.053 1.053 0 1 0 1.49 1.49l.31-.309.308.31a1.052 1.052 0 0 0 1.49 0 1.053 1.053 0 0 0 0-1.491l-.308-.31.309-.308a1.053 1.053 0 0 0 0-1.49zm5.421 0a1.053 1.053 0 0 0-1.49 0l-.31.31-.308-.31a1.053 1.053 0 1 0-1.49 1.49l.309.31-.31.309a1.053 1.053 0 1 0 1.491 1.49l.309-.309.309.31a1.052 1.052 0 0 0 1.49 0 1.053 1.053 0 0 0 0-1.491l-.309-.31.309-.308a1.053 1.053 0 0 0 0-1.49zm5.421 0a1.053 1.053 0 0 0-1.49 0l-.309.31-.309-.31a1.053 1.053 0 1 0-1.49 1.491l.309.309-.309.309a1.053 1.053 0 1 0 1.49 1.49l.31-.309.308.31a1.052 1.052 0 0 0 1.49 0 1.053 1.053 0 0 0 0-1.491l-.309-.31.31-.308a1.053 1.053 0 0 0 0-1.49zm5.377 0a1.328 1.328 0 0 0-1.703 0l-.353.31-.353-.31a1.328 1.328 0 0 0-1.703 0c-.471.413-.471 1.079 0 1.491l.353.309-.353.309c-.471.412-.471 1.078 0 1.49.235.205.544.309.852.309.308 0 .617-.104.851-.309l.353-.309.353.31c.235.204.543.308.852.308.308 0 .617-.104.851-.309.471-.412.471-1.078 0-1.49l-.352-.31.352-.308c.471-.412.471-1.078 0-1.49z" fill="#556080"/><path d="M5.421 103.683c0-1.164.944-2.108 2.109-2.108h1.807a2.108 2.108 0 1 1 0 4.216H7.53a2.108 2.108 0 0 1-2.109-2.108z" fill="#E86869"/><path d="M5.421 95.25c0-1.164.944-2.108 2.109-2.108h1.807a2.108 2.108 0 1 1 0 4.216H7.53a2.108 2.108 0 0 1-2.11-2.108zm10.24 0c0-1.164.944-2.108 2.109-2.108h2.41a2.108 2.108 0 0 1 0 4.216h-2.41a2.108 2.108 0 0 1-2.109-2.108z" fill="#E6E9ED"/><path d="M15.661 103.683c0-1.164.944-2.108 2.109-2.108h2.41a2.108 2.108 0 0 1 0 4.216h-2.41a2.108 2.108 0 0 1-2.109-2.108z" fill="#FFCF56"/><path d="M26.504 103.683c0-1.164.944-2.108 2.108-2.108h1.807a2.108 2.108 0 0 1 0 4.216h-1.807a2.108 2.108 0 0 1-2.108-2.108z" fill="#26B999"/><path d="M26.504 95.25c0-1.164.944-2.108 2.108-2.108h1.807a2.108 2.108 0 0 1 0 4.216h-1.807a2.108 2.108 0 0 1-2.108-2.108zm0-8.433c0-1.164.944-2.108 2.108-2.108h1.807a2.108 2.108 0 0 1 0 4.216h-1.807a2.108 2.108 0 0 1-2.108-2.108zm0-8.433c0-1.165.944-2.108 2.108-2.108h1.807a2.108 2.108 0 0 1 0 4.216h-1.807a2.108 2.108 0 0 1-2.108-2.108zm-10.843 8.433c0-1.164.944-2.108 2.109-2.108h2.41a2.108 2.108 0 0 1 0 4.216h-2.41a2.108 2.108 0 0 1-2.109-2.108zm0-8.433c0-1.165.944-2.108 2.109-2.108h2.41a2.108 2.108 0 0 1 0 4.216h-2.41a2.108 2.108 0 0 1-2.109-2.108zm-10.24 8.433c0-1.164.944-2.108 2.109-2.108h1.807a2.108 2.108 0 1 1 0 4.216H7.53a2.108 2.108 0 0 1-2.109-2.108zm0-8.433c0-1.165.944-2.108 2.109-2.108h1.807a2.108 2.108 0 1 1 0 4.216H7.53a2.108 2.108 0 0 1-2.109-2.108z" fill="#E6E9ED"/><path d="M129.949 106.996v5.354c0 2.357-1.897 4.284-4.217 4.284H96.216c-2.319 0-4.216-1.927-4.216-4.284v-5.354c0 2.356 1.897 4.284 4.216 4.284h29.516c2.32 0 4.217-1.928 4.217-4.284z" fill="#38454F"/><path fill="#556080" d="M96.217 60.012h30.118v47.587H96.217z"/><path d="M97.421 65.421a3 3 0 0 1 3-3h21.107a3 3 0 0 1 3 3v2.433a3 3 0 0 1-3 3h-21.107a3 3 0 0 1-3-3v-2.433z" fill="#8697CB"/><path d="M129.949 93.895v13.703a4.229 4.229 0 0 1-4.217 4.217H96.216A4.229 4.229 0 0 1 92 107.598V61.217A4.229 4.229 0 0 1 96.216 57h29.516a4.229 4.229 0 0 1 4.217 4.217v32.678zm-5.271 11.595v-4.216h-6.325v4.216h6.325zm0-8.433v-4.216h-6.325v4.216h6.325zm0-8.433v-4.216h-6.325v4.216h6.325zm0-8.433v-4.217h-6.325v4.217h6.325zm-3-9.487a3 3 0 0 0 3-3V65.27a3 3 0 0 0-3-3h-21.407a3 3 0 0 0-3 3v2.433a3 3 0 0 0 3 3h21.407zm-7.541 34.786v-4.216h-6.325v4.216h6.325zm0-8.433v-4.216h-6.325v4.216h6.325zm0-8.433v-4.216h-6.325v4.216h6.325zm-3.163-8.433a3.163 3.163 0 0 0 3.163-3.163v-1.054h-4.217a2.108 2.108 0 0 0 0 4.217h1.054zm-7.379 25.299v-4.216h-6.324v4.216h6.324zm0-8.433v-4.216h-6.324v4.216h6.324zm0-8.433v-4.216h-6.324v4.216h6.324zm-2.108-8.433a2.108 2.108 0 1 0 0-4.217h-2.108a2.108 2.108 0 0 0 0 4.217h2.108z" fill="#556080"/><path d="M103.136 64.537a1.053 1.053 0 0 0-1.491 0l-.308.31-.309-.31a1.053 1.053 0 1 0-1.49 1.491l.308.309-.309.309a1.053 1.053 0 1 0 1.491 1.49l.309-.309.308.31a1.054 1.054 0 0 0 1.491-1.491l-.309-.31.309-.308a1.053 1.053 0 0 0 0-1.49zm5.421 0a1.052 1.052 0 0 0-1.49 0l-.309.31-.309-.31a1.053 1.053 0 1 0-1.49 1.49l.309.31-.309.309a1.053 1.053 0 1 0 1.49 1.49l.309-.309.309.31a1.05 1.05 0 0 0 1.49 0 1.053 1.053 0 0 0 0-1.491l-.309-.31.309-.308a1.053 1.053 0 0 0 0-1.49zm5.421 0a1.052 1.052 0 0 0-1.49 0l-.309.31-.309-.31a1.053 1.053 0 1 0-1.49 1.49l.309.31-.309.309a1.053 1.053 0 1 0 1.49 1.49l.309-.309.309.31a1.05 1.05 0 0 0 1.49 0 1.053 1.053 0 0 0 0-1.491l-.309-.31.309-.308a1.053 1.053 0 0 0 0-1.49zm5.377 0a1.327 1.327 0 0 0-1.703 0l-.353.31-.353-.31a1.327 1.327 0 0 0-1.703 0c-.471.413-.471 1.079 0 1.491l.353.309-.353.309c-.471.412-.471 1.078 0 1.49.235.205.544.309.852.309.308 0 .617-.104.851-.309l.353-.309.353.31c.235.204.544.308.852.308.308 0 .617-.104.851-.309.471-.412.471-1.078 0-1.49l-.353-.31.353-.308c.471-.412.471-1.078 0-1.49z" fill="#556080"/><path d="M97.421 103.683c0-1.164.944-2.108 2.108-2.108h1.808a2.108 2.108 0 0 1 0 4.216h-1.808a2.108 2.108 0 0 1-2.108-2.108z" fill="#E86869"/><path d="M97.421 95.25c0-1.164.944-2.108 2.108-2.108h1.808a2.108 2.108 0 0 1 0 4.216h-1.808a2.108 2.108 0 0 1-2.108-2.108zm10.24 0c0-1.164.944-2.108 2.109-2.108h2.409a2.108 2.108 0 1 1 0 4.216h-2.409a2.108 2.108 0 0 1-2.109-2.108z" fill="#E6E9ED"/><path d="M107.661 103.683c0-1.164.944-2.108 2.109-2.108h2.409a2.108 2.108 0 1 1 0 4.216h-2.409a2.108 2.108 0 0 1-2.109-2.108z" fill="#FFCF56"/><path d="M118.504 103.683c0-1.164.944-2.108 2.108-2.108h1.807a2.108 2.108 0 1 1 0 4.216h-1.807a2.108 2.108 0 0 1-2.108-2.108z" fill="#26B999"/><path d="M118.504 95.25c0-1.164.944-2.108 2.108-2.108h1.807a2.108 2.108 0 1 1 0 4.216h-1.807a2.108 2.108 0 0 1-2.108-2.108zm0-8.433c0-1.164.944-2.108 2.108-2.108h1.807a2.108 2.108 0 1 1 0 4.216h-1.807a2.108 2.108 0 0 1-2.108-2.108zm0-8.433c0-1.165.944-2.108 2.108-2.108h1.807a2.108 2.108 0 1 1 0 4.216h-1.807a2.108 2.108 0 0 1-2.108-2.108zm-10.843 8.433c0-1.164.944-2.108 2.109-2.108h2.409a2.108 2.108 0 1 1 0 4.216h-2.409a2.108 2.108 0 0 1-2.109-2.108zm0-8.433c0-1.165.944-2.108 2.109-2.108h2.409a2.108 2.108 0 1 1 0 4.216h-2.409a2.108 2.108 0 0 1-2.109-2.108zm-10.24 8.433c0-1.164.944-2.108 2.108-2.108h1.808a2.108 2.108 0 0 1 0 4.216h-1.808a2.108 2.108 0 0 1-2.108-2.108zm0-8.433c0-1.165.944-2.108 2.108-2.108h1.808a2.108 2.108 0 0 1 0 4.216h-1.808a2.108 2.108 0 0 1-2.108-2.108z" fill="#E6E9ED"/><path d="M83.949 49.996v5.354c0 2.356-1.897 4.284-4.217 4.284H50.217c-2.32 0-4.217-1.928-4.217-4.284v-5.354c0 2.356 1.897 4.284 4.217 4.284h29.515c2.32 0 4.217-1.928 4.217-4.284z" fill="#38454F"/><path fill="#556080" d="M50.217 3.012h30.118v47.587H50.217z"/><path d="M83.949 36.895v13.703a4.229 4.229 0 0 1-4.217 4.217H50.217A4.229 4.229 0 0 1 46 50.598V4.217A4.229 4.229 0 0 1 50.217 0h29.515a4.229 4.229 0 0 1 4.217 4.217v32.678zm-5.27 11.595v-4.216h-6.326v4.216h6.325zm0-8.433v-4.216h-6.326v4.216h6.325zm0-8.433v-4.216h-6.326v4.216h6.325zm0-8.433v-4.217h-6.326v4.217h6.325zm-3-9.487a3 3 0 0 0 3-3V8.27a3 3 0 0 0-3-3H54.27a3 3 0 0 0-3 3v2.433a3 3 0 0 0 3 3h21.407zM68.136 48.49v-4.216h-6.325v4.216h6.325zm0-8.433v-4.216h-6.325v4.216h6.325zm0-8.433v-4.216h-6.325v4.216h6.325zm-3.163-8.433a3.162 3.162 0 0 0 3.163-3.162v-1.055H63.92a2.108 2.108 0 1 0 0 4.217h1.054zm-7.379 25.3v-4.217H51.27v4.216h6.325zm0-8.434v-4.216H51.27v4.216h6.325zm0-8.433v-4.216H51.27v4.216h6.325zm-2.108-8.433a2.108 2.108 0 1 0 0-4.217H53.38a2.108 2.108 0 0 0 0 4.217h2.108z" fill="#556080"/><path d="M51.421 8.421a3 3 0 0 1 3-3h21.107a3 3 0 0 1 3 3v29.54a3 3 0 0 1-3 3H54.42a3 3 0 0 1-3-3V8.42z" fill="#8697CB"/><path d="M51.421 46.683c0-1.164.944-2.108 2.108-2.108h1.808a2.108 2.108 0 1 1 0 4.216h-1.808a2.108 2.108 0 0 1-2.108-2.108zm10.24 0c0-1.164.944-2.108 2.109-2.108h2.41a2.108 2.108 0 0 1 0 4.216h-2.41a2.108 2.108 0 0 1-2.109-2.108zm10.843 0c0-1.164.944-2.108 2.108-2.108h1.807a2.108 2.108 0 1 1 0 4.216h-1.807a2.108 2.108 0 0 1-2.108-2.108z" fill="#E6E9ED"/><path stroke="#38454F" stroke-linecap="round" d="M16.5 50.5v-9m95 89v-9m-20-81h13m-87 90.005H111"/><path d="M40.354 41.354a.5.5 0 0 0 0-.708l-3.182-3.181a.5.5 0 1 0-.707.707L39.293 41l-2.828 2.828a.5.5 0 1 0 .707.707l3.182-3.181zM16 41.5h24v-1H16v1zm88.646 9.854a.501.501 0 0 0 .708 0l3.182-3.182a.5.5 0 0 0-.708-.707L105 50.293l-2.828-2.828a.501.501 0 0 0-.708.707l3.182 3.182zM104.5 40v11h1V40h-1zm-87.854 79.646a.5.5 0 0 1 .708 0l3.181 3.182a.501.501 0 0 1-.707.708L17 120.707l-2.828 2.829a.5.5 0 0 1-.708-.708l3.182-3.182zM16.5 131v-11h1v11h-1zm132.854-89.646a.5.5 0 0 0 0-.708l-3.182-3.181a.501.501 0 0 0-.708.707L148.293 41l-2.829 2.828a.5.5 0 0 0 .708.707l3.182-3.181zM117 41.5h32v-1h-32v1zm104.354-.146a.5.5 0 0 0 0-.708l-3.182-3.181a.501.501 0 0 0-.708.707L220.293 41l-2.829 2.828a.5.5 0 0 0 .708.707l3.182-3.181zM204 41.5h17v-1h-17v1zm-.354 53.854a.5.5 0 0 1 0-.708l3.182-3.181a.501.501 0 0 1 .708.707L204.707 95l2.829 2.828a.5.5 0 0 1-.708.707l-3.182-3.181zM221 95.5h-17v-1h17v1zm-86.354-.854a.5.5 0 0 0 0 .708l3.182 3.181a.501.501 0 0 0 .708-.707L135.707 95l2.829-2.828a.5.5 0 0 0-.708-.707l-3.182 3.181zM152 94.5h-17v1h17v-1z" fill="#38454F"/><g clip-path="url(#clip1)"><path d="M199.103 101.793H156v30.173h43.103v-30.173z" fill="#ECF0F1"/><path d="M199.103 89.724H156v12.069h43.103V89.724z" fill="#546A79"/><path d="M160.5 97a1.5 1.5 0 1 0 0-3 1.5 1.5 0 0 0 0 3z" fill="#E86869"/><path d="M164.5 97a1.5 1.5 0 1 0 0-3 1.5 1.5 0 0 0 0 3z" fill="#FFCF56"/><path d="M168.5 97a1.5 1.5 0 1 0 0-3 1.5 1.5 0 0 0 0 3z" fill="#4FBA6E"/><path d="M206 124.936l-1.245-.239c-1.847-.356-2.694-2.514-1.582-4.031l.782-1.065-1.688-1.688-1.049.711c-1.557 1.055-3.683.128-3.969-1.731l-.202-1.307h-2.387l-.309 1.608c-.348 1.807-2.429 2.669-3.953 1.637l-1.355-.918-1.688 1.688.782 1.065c1.112 1.518.266 3.675-1.582 4.031l-1.245.239v2.387l1.306.201c1.86.286 2.787 2.411 1.731 3.969l-.711 1.049 1.688 1.688 1.066-.782c1.517-1.112 3.675-.265 4.03 1.582l.24 1.246h2.387l.142-.919c.292-1.9 2.496-2.813 4.046-1.676l.75.55 1.687-1.688-.711-1.049c-1.055-1.557-.127-3.683 1.731-3.969l1.308-.202v-2.387z" fill="#556080"/><path d="M195.655 129.379a3.448 3.448 0 1 0 0-6.895 3.448 3.448 0 0 0 0 6.895z" fill="#fff"/><path d="M195.655 130.241a4.314 4.314 0 0 1-4.31-4.31 4.314 4.314 0 0 1 4.31-4.31 4.315 4.315 0 0 1 4.311 4.31 4.315 4.315 0 0 1-4.311 4.31zm0-6.896a2.589 2.589 0 0 0-2.586 2.586 2.589 2.589 0 0 0 2.586 2.586 2.589 2.589 0 0 0 2.586-2.586 2.589 2.589 0 0 0-2.586-2.586z" fill="#ECF0F1"/><path d="M167.91 116h-1.191v-5.711h3.273v.992h-2.082v1.473h1.938v.988h-1.938V116zm8.383-2.863c0 .945-.234 1.672-.703 2.179-.469.508-1.141.762-2.016.762s-1.547-.254-2.015-.762c-.469-.507-.704-1.237-.704-2.187 0-.951.235-1.676.704-2.176.471-.502 1.145-.754 2.023-.754.878 0 1.548.253 2.012.758.466.505.699 1.232.699 2.18zm-4.168 0c0 .638.121 1.118.363 1.441.242.323.604.484 1.086.484.966 0 1.449-.641 1.449-1.925 0-1.287-.48-1.93-1.441-1.93-.482 0-.845.163-1.09.488-.245.323-.367.804-.367 1.442zm6.563-.313h.39c.383 0 .665-.064.848-.191.182-.128.273-.328.273-.602 0-.271-.094-.463-.281-.578-.185-.114-.473-.172-.863-.172h-.367v1.543zm0 .985V116h-1.211v-5.711h1.664c.776 0 1.35.142 1.722.426.373.281.559.709.559 1.285 0 .336-.093.635-.277.898a1.843 1.843 0 0 1-.786.614c.86 1.284 1.42 2.113 1.68 2.488h-1.344l-1.363-2.191h-.644zm6.488 2.191l-1.375-4.48h-.035c.049.911.074 1.519.074 1.824V116h-1.082v-5.711h1.648l1.352 4.367h.023l1.434-4.367h1.648V116h-1.129v-2.703c0-.128.002-.275.004-.442.005-.166.024-.609.055-1.328h-.035L186.285 116h-1.109z" fill="#38454F"/></g><defs><clipPath id="clip0"><path fill="#fff" transform="translate(228 34)" d="M0 0h69v68H0z"/></clipPath><clipPath id="clip1"><path fill="#fff" transform="translate(156 88)" d="M0 0h50v50H0z"/></clipPath></defs></svg>