<svg width="241" height="97" fill="none" xmlns="http://www.w3.org/2000/svg"><g clip-path="url(#clip0)"><path d="M98 82.558v7.627c0 3.356-2.702 6.1-6.006 6.1h-42.04c-3.303 0-6.005-2.744-6.005-6.1v-7.627c0 3.356 2.702 6.101 6.006 6.101h42.04c3.303 0 6.005-2.745 6.005-6.1z" fill="#38454F"/><path fill="#556080" d="M49.955 15.638h42.898v67.778H49.955z"/><path d="M98 63.898v19.518c0 3.304-2.702 6.006-6.006 6.006h-42.04c-3.303 0-6.005-2.702-6.005-6.006V17.354c0-3.304 2.702-6.006 6.006-6.006h42.04c3.303 0 6.005 2.702 6.005 6.006v46.544zm-7.507 16.515v-6.005h-9.009v6.005h9.009zm0-12.01v-6.007h-9.009v6.006h9.009zm0-12.012v-6.006h-9.009v6.006h9.009zm0-12.012v-6.005h-9.009v6.005h9.009zm-3-13.512a3 3 0 0 0 3-3v-6.012a3 3 0 0 0-3-3H54.456a3 3 0 0 0-3 3v6.012a3 3 0 0 0 3 3h33.037zM75.479 80.413v-6.005H66.47v6.005h9.009zm0-12.01v-6.007H66.47v6.006h9.009zm0-12.012v-6.006H66.47v6.006h9.009zm-4.505-12.012a4.504 4.504 0 0 0 4.505-4.504v-1.501h-6.006a3.003 3.003 0 0 0 0 6.005h1.501zm-10.51 36.035v-6.006h-9.008v6.005h9.008zm0-12.012v-6.005h-9.008v6.005h9.008zm0-12.011v-6.006h-9.008v6.006h9.008zm-3.002-12.012a3.003 3.003 0 0 0 0-6.005h-3.003a3.003 3.003 0 0 0 0 6.005h3.003z" fill="#556080"/><path d="M51.67 22.07a3 3 0 0 1 3-3h32.608a3 3 0 0 1 3 3v44.62a3 3 0 0 1-3 3H54.67a3 3 0 0 1-3-3V22.07z" fill="#8697CB"/><path d="M51.67 77.84a3.003 3.003 0 0 1 3.003-3.003h2.574a3.003 3.003 0 0 1 0 6.006h-2.574a3.003 3.003 0 0 1-3.003-3.003zm14.586 0a3.003 3.003 0 0 1 3.002-3.003h3.432a3.003 3.003 0 1 1 0 6.006h-3.43a3.003 3.003 0 0 1-3.003-3.003zm15.443 0a3.003 3.003 0 0 1 3.003-3.003h2.574a3.003 3.003 0 0 1 0 6.006h-2.574a3.003 3.003 0 0 1-3.003-3.003z" fill="#E6E9ED"/><g clip-path="url(#clip1)"><circle cx="49" cy="27" r="24" fill="#fff" fill-opacity=".5"/><path fill-rule="evenodd" clip-rule="evenodd" d="M42.005.813C29.845 3.85 21.313 14.778 21.318 27.311A27.125 27.125 0 0 0 26 42.581a27.515 27.515 0 0 0 7.361 7.36c10.394 7.006 24.223 6.033 33.534-2.357 9.312-8.39 11.714-22.044 5.826-33.109C66.832 3.41 54.166-2.223 42.005.813zm6.625 4.389a22.096 22.096 0 0 1 15.625 37.735c-8.63 8.63-22.62 8.63-31.25 0-8.63-8.63-8.63-22.621 0-31.25l31.25 31.25-31.25-31.25A22.049 22.049 0 0 1 48.63 5.201z" fill="#FFCF56"/><path d="M33.361 49.941l-4.46 4.462-7.362-7.362L26 42.581a27.515 27.515 0 0 0 7.361 7.36z" fill="#E6E9ED"/><path d="M25.22 50.722l5.518 5.518-3.68 3.679-11.035-11.036 3.678-3.679 1.838 1.837 3.68 3.68z" fill="#BFC9D6"/><path d="M21.539 47.041l3.68 3.681-3.68-3.68z" fill="#9BC9FF"/><path d="M16.942 49.802L26.14 59 11.044 74.095a6.504 6.504 0 1 1-9.199-9.198l15.097-15.095z" fill="#26B999"/></g><path d="M144.354 75.646a.5.5 0 0 1 0 .708l-3.182 3.181a.501.501 0 0 1-.708-.707L143.293 76l-2.829-2.828a.5.5 0 0 1 .708-.707l3.182 3.181zM112 75.5h32v1h-32v-1zm-.354-40.854a.5.5 0 0 0 0 .708l3.182 3.181a.501.501 0 0 0 .708-.707L112.707 35l2.829-2.828a.5.5 0 0 0-.708-.707l-3.182 3.181zM144 34.5h-32v1h32v-1z" fill="#38454F"/><path d="M199.776 39.45h40.829a8.44 8.44 0 0 0-8.36-9.608 8.414 8.414 0 0 0-3.628.818 8.443 8.443 0 1 0-16.595 2.548 8.416 8.416 0 0 0-3.898-.955c-4.238 0-7.745 3.126-8.348 7.197z" fill="#E6E9ED"/><path d="M215.686 55.36l-22.263 12.144L196.367 94h44.321V55.36l-25.002 13.638V55.361zm9.092 20.457h6.819v6.819h-6.819v-6.82zm-18.183 6.819h-6.819v-6.82h6.819v6.82z" fill="#38454F"/><path d="M174.774 82.635v-6.818h3.523V39.45h-12.236L160 94h18.297V82.635h-3.523z" fill="#8697CB"/><path d="M190.306 39.45h-12.009v36.367h3.296v6.819h-3.296V94h18.069l-2.943-26.496-3.117-28.053z" fill="#556080"/><path d="M204.4 24.58a8.928 8.928 0 0 0-12.764-8.063 8.928 8.928 0 1 0-17.548 2.695 8.888 8.888 0 0 0-4.123-1.01c-4.482 0-8.191 3.305-8.829 7.61h43.176a8.95 8.95 0 0 0 .088-1.232z" fill="#BFC9D6"/><path d="M206.595 75.817h-6.819v6.819h6.819v-6.82zm25.002 0h-6.819v6.819h6.819v-6.82zm-56.823 6.818h6.819v-6.818h-6.819v6.819z" fill="#fff"/><path d="M190.306 39.45h2.651v-6.818h-29.548v6.819h26.897z" fill="#38454F"/></g><defs><clipPath id="clip0"><path fill="#fff" d="M0 0h240.688v96.286H0z"/></clipPath><clipPath id="clip1"><path fill="#fff" transform="matrix(-1 0 0 1 76 0)" d="M0 0h76v76H0z"/></clipPath></defs></svg>