<svg width="199" height="143" fill="none" xmlns="http://www.w3.org/2000/svg"><path d="M198.883 34.1v3.652c0 1.607-1.294 2.922-2.876 2.922h-20.131c-1.582 0-2.876-1.315-2.876-2.922V34.1c0 1.607 1.294 2.922 2.876 2.922h20.131c1.582 0 2.876-1.315 2.876-2.922z" fill="#38454F"/><path fill="#556080" d="M175.876 2.054h20.542v32.457h-20.542z"/><path d="M176.698 6.574a2.876 2.876 0 0 1 2.876-2.876h12.736a2.876 2.876 0 0 1 0 5.751h-12.736a2.876 2.876 0 0 1-2.876-2.875z" fill="#8697CB"/><path d="M198.883 25.164v9.347a2.884 2.884 0 0 1-2.876 2.876h-20.131A2.884 2.884 0 0 1 173 34.511V2.876A2.884 2.884 0 0 1 175.876 0h20.131a2.884 2.884 0 0 1 2.876 2.876v22.288zm-3.595 7.91v-2.877h-4.313v2.876h4.313zm0-5.753v-2.876h-4.313v2.876h4.313zm0-5.752v-2.875h-4.313v2.876h4.313zm0-5.751v-2.876h-4.313v2.876h4.313zm-2.875-6.471a2.875 2.875 0 0 0 0-5.752h-12.942a2.876 2.876 0 0 0 0 5.752h12.942zm-4.314 23.726v-2.876h-4.314v2.876h4.314zm0-5.752v-2.876h-4.314v2.876h4.314zm0-5.752v-2.875h-4.314v2.876h4.314zm-2.157-5.751a2.157 2.157 0 0 0 2.157-2.157v-.72h-2.876a1.438 1.438 0 0 0 0 2.877h.719zm-5.033 17.255v-2.876h-4.314v2.876h4.314zm0-5.752v-2.876h-4.314v2.876h4.314zm0-5.752v-2.875h-4.314v2.876h4.314zm-1.438-5.751a1.438 1.438 0 0 0 0-2.876h-1.438a1.438 1.438 0 0 0 0 2.876h1.438z" fill="#556080"/><path d="M180.595 5.141a.717.717 0 0 0-1.016 0l-.211.21-.211-.21a.718.718 0 1 0-1.016 1.017l.211.21-.211.21a.718.718 0 1 0 1.016 1.017l.211-.21.211.21a.717.717 0 0 0 1.016 0 .718.718 0 0 0 0-1.016l-.21-.21.21-.211a.718.718 0 0 0 0-1.017zm3.698 0a.719.719 0 0 0-1.017 0l-.21.21-.211-.21a.717.717 0 0 0-1.016 0 .717.717 0 0 0 0 1.017l.21.21-.21.21a.717.717 0 0 0 .508 1.228c.184 0 .368-.07.508-.21l.211-.211.21.21a.719.719 0 0 0 1.017-1.016l-.211-.21.211-.211a.718.718 0 0 0 0-1.017zm3.697 0a.717.717 0 0 0-1.016 0l-.211.21-.21-.21a.719.719 0 1 0-1.017 1.017l.211.21-.211.21a.718.718 0 1 0 1.017 1.017l.21-.21.211.21a.717.717 0 0 0 1.016 0 .717.717 0 0 0 0-1.016l-.21-.21.21-.211a.717.717 0 0 0 0-1.017zm3.668 0a.906.906 0 0 0-1.162 0l-.24.21-.241-.21a.906.906 0 0 0-1.162 0 .657.657 0 0 0 0 1.017l.241.21-.241.21a.657.657 0 0 0 0 1.017c.16.14.371.211.581.211.21 0 .421-.07.581-.21l.241-.211.24.21c.16.14.371.211.581.211.21 0 .421-.07.581-.21a.657.657 0 0 0 0-1.017l-.241-.21.241-.211a.657.657 0 0 0 0-1.017z" fill="#556080"/><path d="M176.698 31.84c0-.793.643-1.437 1.438-1.437h1.232a1.438 1.438 0 0 1 0 2.876h-1.232a1.437 1.437 0 0 1-1.438-1.438z" fill="#E86869"/><path d="M176.698 26.089c0-.794.643-1.438 1.438-1.438h1.232a1.438 1.438 0 0 1 0 2.876h-1.232a1.437 1.437 0 0 1-1.438-1.438zm6.984 0c0-.794.644-1.438 1.438-1.438h1.643a1.437 1.437 0 1 1 0 2.876h-1.643a1.438 1.438 0 0 1-1.438-1.438z" fill="#E6E9ED"/><path d="M183.682 31.84c0-.793.644-1.437 1.438-1.437h1.643a1.437 1.437 0 1 1 0 2.876h-1.643a1.438 1.438 0 0 1-1.438-1.438z" fill="#FFCF56"/><path d="M191.077 31.84c0-.793.644-1.437 1.438-1.437h1.233a1.438 1.438 0 0 1 0 2.876h-1.233a1.438 1.438 0 0 1-1.438-1.438z" fill="#26B999"/><path d="M191.077 26.089c0-.794.644-1.438 1.438-1.438h1.233a1.438 1.438 0 0 1 0 2.876h-1.233a1.438 1.438 0 0 1-1.438-1.438zm0-5.752c0-.794.644-1.438 1.438-1.438h1.233a1.438 1.438 0 0 1 0 2.876h-1.233a1.438 1.438 0 0 1-1.438-1.438zm0-5.752c0-.794.644-1.438 1.438-1.438h1.233a1.438 1.438 0 0 1 0 2.876h-1.233a1.438 1.438 0 0 1-1.438-1.438zm-7.395 5.752c0-.794.644-1.438 1.438-1.438h1.643a1.437 1.437 0 1 1 0 2.876h-1.643a1.438 1.438 0 0 1-1.438-1.438zm0-5.752c0-.794.644-1.438 1.438-1.438h1.643a1.437 1.437 0 1 1 0 2.876h-1.643a1.438 1.438 0 0 1-1.438-1.438zm-6.984 5.752c0-.794.643-1.438 1.438-1.438h1.232a1.438 1.438 0 0 1 0 2.876h-1.232a1.437 1.437 0 0 1-1.438-1.438zm0-5.752c0-.794.643-1.438 1.438-1.438h1.232a1.438 1.438 0 0 1 0 2.876h-1.232a1.437 1.437 0 0 1-1.438-1.438z" fill="#E6E9ED"/><path d="M198.883 84.594v3.652c0 1.607-1.294 2.922-2.876 2.922h-20.131c-1.582 0-2.876-1.315-2.876-2.922v-3.652c0 1.607 1.294 2.922 2.876 2.922h20.131c1.582 0 2.876-1.315 2.876-2.922z" fill="#38454F"/><path fill="#556080" d="M175.876 52.548h20.542v32.457h-20.542z"/><path d="M176.698 57.067a2.876 2.876 0 0 1 2.876-2.876h12.736a2.876 2.876 0 0 1 0 5.752h-12.736a2.876 2.876 0 0 1-2.876-2.876z" fill="#8697CB"/><path d="M198.883 75.658v9.347a2.884 2.884 0 0 1-2.876 2.876h-20.131A2.884 2.884 0 0 1 173 85.005V53.37a2.884 2.884 0 0 1 2.876-2.876h20.131a2.884 2.884 0 0 1 2.876 2.876v22.288zm-3.595 7.909v-2.876h-4.313v2.876h4.313zm0-5.752V74.94h-4.313v2.876h4.313zm0-5.752v-2.876h-4.313v2.876h4.313zm0-5.752v-2.876h-4.313v2.876h4.313zm-2.875-6.47a2.875 2.875 0 0 0 0-5.752h-12.942a2.876 2.876 0 0 0 0 5.752h12.942zm-4.314 23.726v-2.876h-4.314v2.876h4.314zm0-5.752V74.94h-4.314v2.876h4.314zm0-5.752v-2.876h-4.314v2.876h4.314zm-2.157-5.752a2.157 2.157 0 0 0 2.157-2.157v-.718h-2.876a1.438 1.438 0 0 0 0 2.875h.719zm-5.033 17.256v-2.876h-4.314v2.876h4.314zm0-5.752V74.94h-4.314v2.876h4.314zm0-5.752v-2.876h-4.314v2.876h4.314zm-1.438-5.752a1.438 1.438 0 0 0 0-2.876h-1.438a1.438 1.438 0 0 0 0 2.876h1.438z" fill="#556080"/><path d="M180.595 55.635a.717.717 0 0 0-1.016 0l-.211.21-.211-.21a.718.718 0 1 0-1.016 1.017l.211.21-.211.21a.718.718 0 1 0 1.016 1.017l.211-.21.211.21a.717.717 0 0 0 1.016 0 .718.718 0 0 0 0-1.016l-.21-.21.21-.212a.718.718 0 0 0 0-1.016zm3.698 0a.718.718 0 0 0-1.017 0l-.21.21-.211-.21a.717.717 0 0 0-1.016 0 .716.716 0 0 0 0 1.017l.21.21-.21.21a.717.717 0 0 0 .508 1.228c.184 0 .368-.07.508-.21l.211-.211.21.21a.72.72 0 0 0 1.017-1.016l-.211-.21.211-.212a.718.718 0 0 0 0-1.016zm3.697 0a.717.717 0 0 0-1.016 0l-.211.21-.21-.21a.718.718 0 1 0-1.017 1.017l.211.21-.211.21a.718.718 0 1 0 1.017 1.017l.21-.21.211.21a.717.717 0 0 0 1.016 0 .717.717 0 0 0 0-1.016l-.21-.21.21-.212a.716.716 0 0 0 0-1.016zm3.668 0a.906.906 0 0 0-1.162 0l-.24.21-.241-.21a.906.906 0 0 0-1.162 0 .657.657 0 0 0 0 1.017l.241.21-.241.21a.657.657 0 0 0 0 1.017c.16.14.371.211.581.211.21 0 .421-.07.581-.21l.241-.211.24.21c.16.14.371.211.581.211.21 0 .421-.07.581-.21a.657.657 0 0 0 0-1.017l-.241-.21.241-.212a.657.657 0 0 0 0-1.016z" fill="#556080"/><path d="M176.698 82.334c0-.794.643-1.438 1.438-1.438h1.232a1.438 1.438 0 0 1 0 2.876h-1.232a1.437 1.437 0 0 1-1.438-1.438z" fill="#E86869"/><path d="M176.698 76.583c0-.794.643-1.438 1.438-1.438h1.232a1.438 1.438 0 0 1 0 2.876h-1.232a1.437 1.437 0 0 1-1.438-1.438zm6.984 0c0-.794.644-1.438 1.438-1.438h1.643a1.437 1.437 0 1 1 0 2.876h-1.643a1.438 1.438 0 0 1-1.438-1.438z" fill="#E6E9ED"/><path d="M183.682 82.334c0-.794.644-1.438 1.438-1.438h1.643a1.437 1.437 0 1 1 0 2.876h-1.643a1.438 1.438 0 0 1-1.438-1.438z" fill="#FFCF56"/><path d="M191.077 82.334c0-.794.644-1.438 1.438-1.438h1.233a1.438 1.438 0 0 1 0 2.876h-1.233a1.438 1.438 0 0 1-1.438-1.438z" fill="#26B999"/><path d="M191.077 76.583c0-.794.644-1.438 1.438-1.438h1.233a1.438 1.438 0 0 1 0 2.876h-1.233a1.438 1.438 0 0 1-1.438-1.438zm0-5.753c0-.793.644-1.437 1.438-1.437h1.233a1.438 1.438 0 0 1 0 2.876h-1.233a1.438 1.438 0 0 1-1.438-1.438zm0-5.751c0-.794.644-1.438 1.438-1.438h1.233a1.438 1.438 0 0 1 0 2.876h-1.233a1.438 1.438 0 0 1-1.438-1.438zm-7.395 5.751c0-.793.644-1.437 1.438-1.437h1.643a1.437 1.437 0 1 1 0 2.876h-1.643a1.438 1.438 0 0 1-1.438-1.438zm0-5.751c0-.794.644-1.438 1.438-1.438h1.643a1.437 1.437 0 1 1 0 2.876h-1.643a1.438 1.438 0 0 1-1.438-1.438zm-6.984 5.751c0-.793.643-1.437 1.438-1.437h1.232a1.438 1.438 0 0 1 0 2.876h-1.232a1.437 1.437 0 0 1-1.438-1.438zm0-5.751c0-.794.643-1.438 1.438-1.438h1.232a1.438 1.438 0 0 1 0 2.876h-1.232a1.437 1.437 0 0 1-1.438-1.438z" fill="#E6E9ED"/><path d="M198.883 136.236v3.652c0 1.607-1.294 2.921-2.876 2.921h-20.131c-1.582 0-2.876-1.314-2.876-2.921v-3.652c0 1.607 1.294 2.921 2.876 2.921h20.131c1.582 0 2.876-1.314 2.876-2.921z" fill="#38454F"/><path fill="#556080" d="M175.876 104.189h20.542v32.457h-20.542z"/><path d="M176.698 108.709a2.875 2.875 0 0 1 2.876-2.876h12.736a2.876 2.876 0 1 1 0 5.752h-12.736a2.876 2.876 0 0 1-2.876-2.876z" fill="#8697CB"/><path d="M198.883 127.3v9.346a2.884 2.884 0 0 1-2.876 2.876h-20.131a2.884 2.884 0 0 1-2.876-2.876v-31.635a2.884 2.884 0 0 1 2.876-2.876h20.131a2.884 2.884 0 0 1 2.876 2.876V127.3zm-3.595 7.908v-2.875h-4.313v2.875h4.313zm0-5.751v-2.876h-4.313v2.876h4.313zm0-5.752v-2.876h-4.313v2.876h4.313zm0-5.752v-2.876h-4.313v2.876h4.313zm-2.875-6.471a2.876 2.876 0 0 0 0-5.752h-12.942a2.876 2.876 0 0 0 0 5.752h12.942zm-4.314 23.726v-2.875h-4.314v2.875h4.314zm0-5.751v-2.876h-4.314v2.876h4.314zm0-5.752v-2.876h-4.314v2.876h4.314zm-2.157-5.752a2.157 2.157 0 0 0 2.157-2.157v-.719h-2.876a1.438 1.438 0 0 0 0 2.876h.719zm-5.033 17.255v-2.875h-4.314v2.875h4.314zm0-5.751v-2.876h-4.314v2.876h4.314zm0-5.752v-2.876h-4.314v2.876h4.314zm-1.438-5.752a1.438 1.438 0 0 0 0-2.876h-1.438a1.438 1.438 0 0 0 0 2.876h1.438z" fill="#556080"/><path d="M180.595 107.276a.718.718 0 0 0-1.016 0l-.211.211-.211-.211a.718.718 0 1 0-1.016 1.017l.211.211-.211.21a.719.719 0 0 0 1.016 1.017l.211-.211.211.211a.716.716 0 0 0 1.016 0 .719.719 0 0 0 0-1.017l-.21-.21.21-.211a.719.719 0 0 0 0-1.017zm3.698 0a.719.719 0 0 0-1.017 0l-.21.211-.211-.211a.718.718 0 1 0-1.016 1.017l.21.211-.21.21a.717.717 0 0 0 .508 1.227c.184 0 .368-.07.508-.21l.211-.211.21.211a.718.718 0 0 0 1.017-1.017l-.211-.21.211-.211a.719.719 0 0 0 0-1.017zm3.697 0a.718.718 0 0 0-1.016 0l-.211.211-.21-.211a.719.719 0 1 0-1.017 1.017l.211.211-.211.21a.719.719 0 1 0 1.017 1.017l.21-.211.211.211a.716.716 0 0 0 1.016 0 .717.717 0 0 0 0-1.017l-.21-.21.21-.211a.717.717 0 0 0 0-1.017zm3.668 0a.906.906 0 0 0-1.162 0l-.24.211-.241-.211a.906.906 0 0 0-1.162 0 .657.657 0 0 0 0 1.017l.241.211-.241.21a.657.657 0 0 0 0 1.017c.16.14.371.21.581.21.21 0 .421-.07.581-.21l.241-.211.24.211c.16.14.371.21.581.21.21 0 .421-.07.581-.21a.657.657 0 0 0 0-1.017l-.241-.21.241-.211a.657.657 0 0 0 0-1.017z" fill="#556080"/><path d="M176.698 133.976c0-.794.643-1.438 1.438-1.438h1.232a1.438 1.438 0 0 1 0 2.876h-1.232a1.438 1.438 0 0 1-1.438-1.438z" fill="#E86869"/><path d="M176.698 128.224c0-.794.643-1.438 1.438-1.438h1.232a1.438 1.438 0 0 1 0 2.876h-1.232a1.438 1.438 0 0 1-1.438-1.438zm6.984 0c0-.794.644-1.438 1.438-1.438h1.643a1.438 1.438 0 0 1 0 2.876h-1.643a1.438 1.438 0 0 1-1.438-1.438z" fill="#E6E9ED"/><path d="M183.682 133.976c0-.794.644-1.438 1.438-1.438h1.643a1.438 1.438 0 0 1 0 2.876h-1.643a1.438 1.438 0 0 1-1.438-1.438z" fill="#FFCF56"/><path d="M191.077 133.976c0-.794.644-1.438 1.438-1.438h1.233a1.438 1.438 0 0 1 0 2.876h-1.233a1.438 1.438 0 0 1-1.438-1.438z" fill="#26B999"/><path d="M191.077 128.224c0-.794.644-1.438 1.438-1.438h1.233a1.438 1.438 0 0 1 0 2.876h-1.233a1.438 1.438 0 0 1-1.438-1.438zm0-5.752c0-.794.644-1.438 1.438-1.438h1.233a1.438 1.438 0 0 1 0 2.876h-1.233a1.438 1.438 0 0 1-1.438-1.438zm0-5.752c0-.794.644-1.438 1.438-1.438h1.233a1.438 1.438 0 0 1 0 2.876h-1.233a1.438 1.438 0 0 1-1.438-1.438zm-7.395 5.752c0-.794.644-1.438 1.438-1.438h1.643a1.438 1.438 0 0 1 0 2.876h-1.643a1.438 1.438 0 0 1-1.438-1.438zm0-5.752c0-.794.644-1.438 1.438-1.438h1.643a1.438 1.438 0 0 1 0 2.876h-1.643a1.438 1.438 0 0 1-1.438-1.438zm-6.984 5.752c0-.794.643-1.438 1.438-1.438h1.232a1.438 1.438 0 0 1 0 2.876h-1.232a1.438 1.438 0 0 1-1.438-1.438zm0-5.752c0-.794.643-1.438 1.438-1.438h1.232a1.438 1.438 0 0 1 0 2.876h-1.232a1.437 1.437 0 0 1-1.438-1.438z" fill="#E6E9ED"/><g clip-path="url(#clip0)"><path d="M54.3 112.058H24.884c-.306 0-.425-.419-.17-.597l2.465-1.738c2.658-1.874 3.915-5.312 3.14-8.587h18.55v.003c-.775 3.276.484 6.713 3.143 8.587l2.462 1.735c.252.179.132.597-.172.597z" fill="#BFC9D6"/><path d="M74.408 101.136H4.776A4.775 4.775 0 0 1 0 96.36V45.841a4.775 4.775 0 0 1 4.776-4.775h69.63a4.776 4.776 0 0 1 4.777 4.775V96.36a4.776 4.776 0 0 1-4.775 4.777z" fill="#ECF0F1"/><path d="M79.183 88.849H0V45.84a4.775 4.775 0 0 1 4.776-4.775h69.63a4.776 4.776 0 0 1 4.777 4.775v43.01z" fill="#556080"/><path d="M5.46 53.353c.35 0 .7-.134.966-.4l5.461-5.461a1.364 1.364 0 0 0 0-1.93 1.364 1.364 0 0 0-1.93 0l-5.461 5.46a1.364 1.364 0 0 0 .965 2.33zm0 6.826c.35 0 .7-.134.966-.4l2.73-2.73a1.364 1.364 0 0 0 0-1.93 1.364 1.364 0 0 0-1.93 0l-2.73 2.73a1.364 1.364 0 0 0 .965 2.33zm4.493-7.796a1.43 1.43 0 0 0-.396.97c0 .355.148.71.396.97.258.245.599.395.969.395.355 0 .71-.15.97-.396.245-.26.395-.614.395-.97 0-.354-.15-.71-.396-.968-.519-.506-1.42-.506-1.938 0zm2.734-.795a1.361 1.361 0 0 0 1.93 0l4.096-4.096a1.364 1.364 0 0 0 0-1.93 1.364 1.364 0 0 0-1.93 0l-4.096 4.095a1.364 1.364 0 0 0 0 1.93zm4.096.8L4.496 64.675a1.364 1.364 0 0 0 .965 2.33c.35 0 .699-.134.965-.4l12.287-12.287a1.364 1.364 0 0 0 0-1.93 1.364 1.364 0 0 0-1.93 0zm2.727-2.735c-.248.26-.397.6-.397.97 0 .368.15.71.396.969.258.245.6.396.97.396.368 0 .71-.15.969-.396a1.41 1.41 0 0 0 .396-.97c0-.368-.15-.71-.396-.969-.505-.505-1.434-.505-1.939 0zm6.03-4.091a1.364 1.364 0 0 0-1.931 0l-1.365 1.365a1.364 1.364 0 0 0 .965 2.33c.35 0 .699-.134.965-.4l1.365-1.365a1.364 1.364 0 0 0 0-1.93z" fill="#8697CB"/><path d="M55.292 116.154h-31.4a2.054 2.054 0 0 1-2.048-2.048c0-1.127.921-2.048 2.048-2.048h31.4c1.126 0 2.048.921 2.048 2.048a2.054 2.054 0 0 1-2.048 2.048z" fill="#D7DCE2"/><path d="M54.186 64.07l-1.7-.327c-2.522-.485-3.678-3.432-2.16-5.502l1.068-1.455-2.304-2.304-1.433.97c-2.125 1.441-5.028.175-5.418-2.363l-.276-1.784h-3.259l-.422 2.195c-.474 2.467-3.317 3.644-5.396 2.235l-1.85-1.253-2.305 2.304 1.068 1.455c1.518 2.071.362 5.017-2.16 5.502l-1.7.327v3.259l1.784.274c2.538.39 3.803 3.292 2.363 5.419l-.971 1.432 2.304 2.304 1.455-1.067c2.071-1.518 5.017-.363 5.502 2.16l.328 1.7h3.26l.192-1.254c.4-2.594 3.409-3.84 5.525-2.288l1.023.75 2.304-2.304-.971-1.432c-1.44-2.126-.174-5.028 2.363-5.419l1.786-.275V64.07z" fill="#8697CB"/><path d="M40.063 70.136a4.708 4.708 0 1 0 0-9.416 4.708 4.708 0 0 0 0 9.416z" fill="#fff"/><path d="M40.063 71.313a5.891 5.891 0 0 1-5.885-5.885 5.891 5.891 0 0 1 5.885-5.884 5.891 5.891 0 0 1 5.884 5.884 5.891 5.891 0 0 1-5.885 5.885zm0-9.416a3.535 3.535 0 0 0-3.531 3.531 3.535 3.535 0 0 0 3.53 3.53 3.535 3.535 0 0 0 3.531-3.53 3.535 3.535 0 0 0-3.53-3.53z" fill="#ECF0F1"/></g><path d="M129.104 21.23v99.841" stroke="#38454F" stroke-linecap="round"/><path d="M161.016 21.01a.5.5 0 0 0 0-.707l-3.182-3.182a.5.5 0 1 0-.707.707l2.828 2.829-2.828 2.828a.499.499 0 1 0 .707.707l3.182-3.182zm-32.486.147h32.132v-1H128.53v1zm32.486 50.347a.5.5 0 0 0 0-.707l-3.182-3.182a.5.5 0 1 0-.707.707l2.828 2.828-2.828 2.829a.5.5 0 1 0 .707.707l3.182-3.182zm-66.914.146h66.56v-1h-66.56v1zm66.914 50.348a.5.5 0 0 0 0-.707l-3.182-3.182a.499.499 0 0 0-.707 0 .499.499 0 0 0 0 .707l2.828 2.828-2.828 2.829a.5.5 0 0 0 .707.707l3.182-3.182zm-32.486.146h32.132v-1H128.53v1z" fill="#38454F"/><defs><clipPath id="clip0"><path fill="#fff" transform="translate(0 39.018)" d="M0 0h79.183v79.183H0z"/></clipPath></defs></svg>