<svg width="1280" height="1125" fill="none" xmlns="http://www.w3.org/2000/svg"><path d="M2032.46 795.573c12.43 98.17-61.28 186.171-160.11 191.145L-69.721 1084.46c-162.337 8.17-242.467-194.292-118.508-299.431L666.656 59.931a170 170 0 0 1 153.748-34.62L1863.35 303.303c66.81 17.809 116.18 74.31 124.86 142.906l44.25 349.365z" fill="#C4C4C4"/><path d="M2032.46 795.573c12.43 98.17-61.28 186.171-160.11 191.145L-69.721 1084.46c-162.337 8.17-242.467-194.292-118.508-299.431L666.656 59.931a170 170 0 0 1 153.748-34.62L1863.35 303.303c66.81 17.809 116.18 74.31 124.86 142.906l44.25 349.365z" fill="url(#paint0_linear)"/><defs><linearGradient id="paint0_linear" x1="1569.86" y1="880.965" x2="-1.291" y2="-209.47" gradientUnits="userSpaceOnUse"><stop stop-color="#FFE6A7"/><stop offset="1" stop-color="#FFCF55"/></linearGradient></defs></svg>